{"glyphs":{"0":{"ha":599,"x_min":53,"x_max":544,"o":"m 303 918 q 397 891 353 918 q 468 815 440 864 q 544 453 544 683 q 468 85 544 225 q 300 -14 411 -14 q 118 108 183 -14 q 53 450 53 231 q 83 699 53 589 q 164 860 113 808 q 303 918 224 918 m 300 875 q 217 769 246 875 q 188 465 188 663 q 300 29 188 29 q 411 460 411 29 q 300 875 411 875 z "},"1":{"ha":599,"x_min":119,"x_max":468,"o":"m 376 944 l 376 136 q 391 62 376 79 q 457 40 406 44 l 468 40 l 468 -4 q 308 6 376 6 q 150 -4 242 6 l 150 40 l 161 40 q 227 62 213 44 q 242 136 242 79 l 242 749 l 119 749 l 119 792 q 253 840 194 799 q 335 944 313 881 l 376 944 z "},"2":{"ha":599,"x_min":71,"x_max":521,"o":"m 521 132 l 504 0 l 71 0 l 71 113 q 300 463 233 335 q 367 676 367 590 q 337 776 367 738 q 260 815 307 815 q 126 644 151 815 l 78 644 q 128 831 89 765 q 199 894 151 871 q 300 918 246 918 q 448 857 390 918 q 506 701 506 796 q 375 389 506 576 q 199 150 256 218 l 185 132 l 521 132 z "},"3":{"ha":599,"x_min":58,"x_max":529,"o":"m 58 257 l 110 257 q 249 85 126 85 q 351 135 313 85 q 390 268 390 185 q 343 414 390 369 q 217 449 306 449 l 200 449 l 200 503 q 299 518 269 503 q 344 575 326 533 q 363 668 363 617 q 334 779 363 738 q 257 821 306 821 q 129 667 158 821 l 81 667 q 293 918 100 918 q 442 857 386 918 q 499 694 499 796 q 363 486 499 540 q 461 436 425 468 q 529 261 529 375 q 459 64 529 142 q 283 -14 389 -14 q 119 60 181 -14 q 58 257 58 133 z "},"4":{"ha":599,"x_min":19,"x_max":558,"o":"m 310 -14 l 310 226 l 19 226 l 304 931 l 444 931 l 444 338 l 558 338 l 558 226 l 444 226 l 444 -14 l 310 -14 m 314 338 l 314 828 l 118 338 l 314 338 z "},"5":{"ha":599,"x_min":69,"x_max":531,"o":"m 479 779 l 178 779 l 144 531 q 308 614 214 614 q 469 532 408 614 q 531 318 531 450 q 503 163 531 238 q 429 44 475 89 q 281 -14 369 -14 q 131 53 186 -14 q 69 239 75 119 l 122 239 q 250 86 139 86 q 353 148 315 86 q 392 315 392 210 q 356 469 392 413 q 258 526 319 526 q 133 425 182 526 l 81 432 l 144 904 l 496 904 l 479 779 z "},"6":{"ha":599,"x_min":57,"x_max":540,"o":"m 399 951 l 469 951 q 341 776 401 872 q 251 604 281 681 q 332 625 294 625 q 481 537 422 625 q 540 314 540 449 q 471 80 540 174 q 299 -14 401 -14 q 126 78 196 -14 q 57 308 57 171 q 103 541 57 428 q 253 788 150 654 q 399 951 313 865 m 300 568 q 223 503 250 568 q 196 319 196 439 q 297 29 196 29 q 401 300 401 29 q 300 568 401 568 z "},"7":{"ha":599,"x_min":56,"x_max":539,"o":"m 99 0 l 431 776 l 56 776 l 56 904 l 539 904 l 221 0 l 99 0 z "},"8":{"ha":599,"x_min":67,"x_max":532,"o":"m 404 475 q 532 254 532 411 q 453 44 532 126 q 303 -14 399 -14 q 132 58 197 -14 q 67 244 67 129 q 192 475 67 404 q 81 678 81 540 q 141 852 81 786 q 301 918 201 918 q 453 854 397 918 q 515 683 515 783 q 404 475 515 542 m 303 450 q 228 395 256 450 q 201 243 201 340 q 228 87 201 144 q 300 29 254 29 q 364 72 340 29 q 396 243 396 131 q 372 395 396 340 q 303 450 347 450 m 300 875 q 238 825 260 875 q 217 685 217 775 q 299 493 217 493 q 379 685 379 493 q 358 825 379 775 q 300 875 338 875 z "},"9":{"ha":599,"x_min":63,"x_max":538,"o":"m 206 -47 l 135 -47 q 258 122 199 26 q 349 300 317 218 q 271 281 306 281 q 122 370 181 281 q 63 594 63 460 q 131 825 63 732 q 300 918 199 918 q 468 827 399 918 q 538 607 538 736 q 324 88 538 356 q 206 -47 267 15 m 399 590 q 300 875 399 875 q 201 611 201 875 q 299 338 201 338 q 399 590 399 338 z "}," ":{"ha":278,"x_min":0,"x_max":0,"o":""},"!":{"ha":329,"x_min":75,"x_max":258,"o":"m 126 297 l 94 918 l 236 918 l 203 297 l 126 297 m 168 171 q 232 144 206 171 q 258 79 258 117 q 231 15 258 42 q 167 -12 204 -12 q 101 15 128 -12 q 75 81 75 42 q 102 144 75 118 q 168 171 129 171 z "},"\"":{"ha":431,"x_min":74,"x_max":357,"o":"m 167 554 l 89 554 l 74 926 l 182 926 l 167 554 m 342 554 l 263 554 l 247 926 l 357 926 l 342 554 z "},"#":{"ha":675,"x_min":32,"x_max":643,"o":"m 608 379 l 597 288 l 478 288 l 442 0 l 349 0 l 385 288 l 244 288 l 208 0 l 115 0 l 151 288 l 32 288 l 43 379 l 164 379 l 186 564 l 67 564 l 79 656 l 199 656 l 232 926 l 325 926 l 292 656 l 432 656 l 465 926 l 558 926 l 525 656 l 643 656 l 632 564 l 513 564 l 490 379 l 608 379 m 419 564 l 279 564 l 256 379 l 396 379 l 419 564 z "},"$":{"ha":599,"x_min":57,"x_max":543,"o":"m 281 -129 l 281 -12 q 121 72 193 0 l 83 -26 l 57 -26 l 57 294 l 97 294 q 158 110 110 178 q 281 38 206 43 l 281 410 q 111 550 153 493 q 69 697 69 607 q 128 868 69 801 q 281 940 186 935 l 281 1053 l 324 1053 l 324 939 q 451 864 396 929 l 482 949 l 510 949 l 510 674 l 469 674 q 417 828 456 771 q 324 892 379 886 l 324 560 q 432 483 392 515 q 517 385 492 436 q 543 258 543 333 q 510 113 543 179 q 421 14 476 46 q 324 -14 378 -10 l 324 -129 l 281 -129 m 281 590 l 281 889 q 213 838 239 878 q 186 742 186 797 q 204 661 186 690 q 281 590 222 632 m 324 379 l 324 43 q 399 101 371 57 q 426 204 426 144 q 372 339 426 288 q 324 379 364 349 z "},"%":{"ha":722,"x_min":38,"x_max":685,"o":"m 83 871 q 105 903 83 871 q 196 935 128 935 q 307 872 264 935 q 350 713 350 810 q 306 553 350 617 q 193 489 261 489 q 81 552 125 489 q 38 713 38 615 q 83 871 38 807 m 196 896 q 133 726 133 896 q 194 528 133 528 q 254 711 254 528 q 196 896 254 896 m 113 0 l 544 926 l 610 926 l 178 0 l 113 0 m 532 438 q 642 375 599 438 q 685 215 685 313 q 640 56 685 119 q 529 -8 596 -8 q 417 55 461 -8 q 374 217 374 118 q 419 374 374 311 q 532 438 464 438 m 531 399 q 469 214 469 399 q 531 31 469 31 q 589 214 589 31 q 531 399 589 399 z "},"&":{"ha":686,"x_min":35,"x_max":664,"o":"m 336 490 l 508 200 q 550 350 550 285 q 538 383 550 374 q 494 394 525 393 l 494 439 q 578 433 551 433 q 661 439 607 433 l 661 394 q 615 382 625 392 q 600 338 606 372 q 538 150 586 232 l 569 97 q 611 42 597 51 q 664 31 625 33 l 664 -4 q 579 0 608 0 q 488 -4 554 0 l 454 54 q 365 0 403 15 q 278 -15 326 -15 q 101 54 168 -15 q 35 239 35 124 q 67 379 35 321 q 183 514 99 438 q 129 631 143 590 q 115 714 115 672 q 167 854 115 797 q 294 911 218 911 q 408 859 364 911 q 451 725 451 807 q 426 612 451 664 q 336 490 400 560 m 275 593 q 365 768 365 685 q 346 844 365 814 q 296 874 326 874 q 242 839 264 874 q 219 754 219 804 q 230 688 219 718 q 275 593 240 657 m 428 99 l 246 407 q 160 221 160 322 q 199 94 160 143 q 301 46 238 46 q 428 99 363 46 z "},"'":{"ha":256,"x_min":74,"x_max":182,"o":"m 167 554 l 89 554 l 74 926 l 182 926 l 167 554 z "},"(":{"ha":369,"x_min":78,"x_max":310,"o":"m 267 949 l 310 949 q 203 321 203 710 q 310 -293 203 -47 l 267 -293 q 78 329 78 -62 q 267 949 78 722 z "},")":{"ha":369,"x_min":61,"x_max":293,"o":"m 104 -293 l 61 -293 q 168 324 168 -46 q 61 949 168 708 l 104 949 q 293 326 293 722 q 104 -293 293 -62 z "},"*":{"ha":599,"x_min":118,"x_max":476,"o":"m 251 901 l 343 901 l 315 724 l 450 797 l 476 706 l 325 689 l 449 561 l 371 506 l 297 665 l 224 504 l 146 561 l 269 689 l 118 706 l 143 797 l 279 724 l 251 901 z "},"+":{"ha":599,"x_min":57,"x_max":542,"o":"m 57 417 l 57 519 l 247 519 l 247 765 l 350 765 l 350 519 l 542 519 l 542 417 l 350 417 l 350 169 l 247 169 l 247 417 l 57 417 z "},",":{"ha":303,"x_min":36,"x_max":243,"o":"m 100 -282 l 36 -282 q 108 -153 76 -231 q 149 -4 140 -75 l 147 -4 q 143 -6 144 -6 q 86 19 108 -6 q 64 83 64 43 q 89 152 64 125 q 153 179 114 179 q 219 149 194 179 q 243 65 243 118 q 206 -108 243 -17 q 100 -282 168 -200 z "},"-":{"ha":297,"x_min":3,"x_max":294,"o":"m 3 326 l 3 396 l 294 396 l 294 326 l 3 326 z "},".":{"ha":307,"x_min":64,"x_max":247,"o":"m 157 171 q 221 144 194 171 q 247 79 247 117 q 221 14 247 40 q 156 -12 194 -12 q 90 15 117 -12 q 64 81 64 42 q 91 144 64 118 q 157 171 118 171 z "},"/":{"ha":490,"x_min":-94,"x_max":476,"o":"m -94 -269 l 388 926 l 476 926 l -6 -269 l -94 -269 z "},":":{"ha":307,"x_min":63,"x_max":247,"o":"m 157 614 q 221 587 194 614 q 247 522 247 560 q 221 457 247 483 q 156 431 194 431 q 90 458 117 431 q 64 524 64 485 q 91 588 64 561 q 157 614 118 614 m 156 169 q 219 142 193 169 q 246 78 246 115 q 219 13 246 40 q 154 -14 192 -14 q 89 13 115 -14 q 63 79 63 40 q 90 143 63 117 q 156 169 117 169 z "},";":{"ha":306,"x_min":36,"x_max":246,"o":"m 100 -282 l 36 -282 q 108 -153 76 -231 q 149 -4 140 -75 l 147 -4 q 143 -6 144 -6 q 86 19 108 -6 q 64 83 64 43 q 89 152 64 125 q 153 179 114 179 q 219 149 194 179 q 243 65 243 118 q 206 -108 243 -17 q 100 -282 168 -200 m 156 615 q 219 588 193 615 q 246 524 246 561 q 219 459 246 486 q 154 432 192 432 q 90 459 117 432 q 63 524 63 486 q 90 589 63 563 q 156 615 117 615 z "},"<":{"ha":589,"x_min":53,"x_max":535,"o":"m 535 801 l 535 742 l 188 521 l 535 293 l 535 150 l 53 463 l 53 503 l 535 801 z "},"=":{"ha":599,"x_min":57,"x_max":542,"o":"m 57 513 l 57 615 l 542 615 l 542 513 l 57 513 m 57 319 l 57 422 l 542 422 l 542 319 l 57 319 z "},">":{"ha":589,"x_min":53,"x_max":535,"o":"m 53 150 l 53 208 l 400 429 l 53 657 l 53 801 l 535 489 l 535 449 l 53 150 z "},"?":{"ha":461,"x_min":47,"x_max":429,"o":"m 222 290 l 167 290 q 165 353 165 321 q 180 462 165 422 q 246 578 194 501 q 299 718 299 656 q 274 800 299 769 q 207 831 249 831 q 92 672 107 831 l 47 672 q 101 863 47 794 q 249 931 154 931 q 380 873 331 931 q 429 719 429 815 q 404 603 429 651 q 315 497 379 554 q 242 406 261 447 q 222 300 222 365 l 222 296 l 222 290 m 207 171 q 271 144 244 171 q 297 79 297 117 q 270 15 297 42 q 206 -12 243 -12 q 140 15 167 -12 q 114 81 114 42 q 141 144 114 118 q 207 171 168 171 z "},"@":{"ha":915,"x_min":29,"x_max":885,"o":"m 806 242 l 875 242 q 747 81 821 138 q 486 -14 628 -14 q 160 121 292 -14 q 29 457 29 256 q 160 800 29 660 q 481 940 290 940 q 769 829 653 940 q 885 553 885 718 q 797 304 885 406 q 593 192 701 192 q 481 269 501 192 q 381 197 433 197 q 277 251 318 197 q 236 389 236 306 q 308 601 236 510 q 474 693 379 693 q 550 626 529 693 l 561 681 l 665 681 l 588 319 q 581 275 581 288 q 615 228 581 228 q 749 332 685 228 q 808 556 808 429 q 713 779 808 686 q 481 872 617 872 q 213 754 321 872 q 106 460 106 636 q 215 168 106 283 q 494 53 325 53 q 692 117 600 53 q 806 242 756 161 m 474 658 q 410 615 443 660 q 357 497 378 569 q 336 354 336 425 q 349 265 336 297 q 386 232 363 232 q 486 368 440 232 q 524 557 524 481 q 474 658 524 656 z "},"A":{"ha":744,"x_min":14,"x_max":731,"o":"m 217 257 l 183 146 q 169 81 169 106 q 187 51 169 61 q 246 40 204 42 l 246 -4 q 124 3 156 3 q 14 -4 81 3 l 14 40 q 88 65 67 43 q 135 163 108 86 l 385 958 l 624 132 q 660 61 640 78 q 731 40 679 44 l 731 -4 q 554 1 668 1 q 411 -4 485 1 l 411 40 q 469 51 451 43 q 486 78 486 60 q 478 129 486 96 l 446 257 l 217 257 m 232 308 l 433 308 l 340 661 l 232 308 z "},"B":{"ha":665,"x_min":35,"x_max":614,"o":"m 35 926 l 346 926 q 524 863 469 926 q 579 700 579 796 q 450 497 579 550 q 571 421 528 482 q 614 267 614 360 q 583 128 614 192 q 499 35 551 65 q 328 0 435 0 l 35 0 l 35 44 q 110 64 94 47 q 126 139 126 81 l 126 786 q 110 862 126 844 q 35 882 93 879 l 35 926 m 261 508 l 303 508 q 407 552 375 508 q 439 697 439 596 q 410 835 439 792 q 317 878 381 878 l 261 878 l 261 508 m 261 460 l 261 114 q 273 62 261 75 q 318 49 285 49 l 335 49 q 474 263 474 49 q 425 431 474 386 q 326 460 396 460 l 261 460 z "},"C":{"ha":700,"x_min":61,"x_max":629,"o":"m 582 324 l 629 324 q 554 73 625 167 q 367 -21 483 -21 q 145 109 229 -21 q 61 453 61 239 q 145 814 61 681 q 372 947 229 947 q 558 853 483 947 l 590 946 l 618 946 l 618 644 l 576 644 q 393 892 535 892 q 254 782 301 892 q 206 488 206 672 q 222 294 206 390 q 265 144 239 199 q 319 87 283 108 q 397 65 356 65 q 526 133 478 65 q 582 324 575 201 z "},"D":{"ha":729,"x_min":35,"x_max":678,"o":"m 35 882 l 35 926 l 332 926 q 606 767 514 926 q 678 468 678 639 q 642 244 678 350 q 546 81 606 138 q 310 0 458 0 l 35 0 l 35 44 q 110 65 94 47 q 126 140 126 82 l 126 786 q 110 862 126 844 q 35 882 93 879 m 264 878 l 264 114 q 275 60 264 74 q 319 47 286 47 q 482 149 431 47 q 533 472 533 251 q 482 780 533 682 q 321 878 431 878 l 264 878 z "},"E":{"ha":636,"x_min":35,"x_max":585,"o":"m 585 244 l 553 0 l 35 0 l 35 44 q 110 65 94 47 q 126 140 126 82 l 126 786 q 110 862 126 844 q 35 882 93 879 l 35 926 l 546 926 l 574 696 l 533 696 q 484 840 513 803 q 393 878 456 878 l 264 878 l 264 506 l 386 506 q 435 526 421 506 q 451 601 449 546 l 453 621 l 493 621 l 493 342 l 453 342 q 437 434 450 411 q 385 457 424 457 l 264 457 l 264 125 q 278 64 264 79 q 332 49 292 49 l 382 49 q 481 89 453 49 q 544 244 524 147 l 585 244 z "},"F":{"ha":606,"x_min":35,"x_max":574,"o":"m 493 342 l 453 342 q 437 435 450 414 q 383 457 424 457 l 264 457 l 264 136 q 279 60 264 76 q 356 40 294 44 l 356 -4 q 194 6 263 6 q 35 -4 128 6 l 35 40 l 46 40 q 112 62 97 44 q 126 136 126 79 l 126 786 q 110 862 126 844 q 35 882 93 879 l 35 926 l 546 926 l 574 696 l 533 696 q 484 840 513 803 q 393 878 456 878 l 264 878 l 264 506 l 386 506 q 435 526 424 506 q 453 621 447 547 l 493 621 l 493 342 z "},"G":{"ha":738,"x_min":51,"x_max":711,"o":"m 564 854 l 599 946 l 628 946 l 628 644 l 586 644 q 515 836 561 775 q 393 897 468 897 q 196 457 196 897 q 386 28 196 28 q 504 63 444 28 l 504 308 q 490 366 504 353 q 424 382 475 379 l 424 426 q 568 418 515 418 q 711 426 617 418 l 711 382 q 650 365 663 378 q 638 306 638 351 l 638 93 q 376 -15 504 -15 q 138 113 225 -15 q 51 464 51 242 q 138 813 51 685 q 374 942 225 942 q 564 854 485 942 z "},"H":{"ha":783,"x_min":35,"x_max":749,"o":"m 261 507 l 524 507 l 524 790 q 508 867 524 850 q 433 886 492 883 l 433 931 q 594 921 532 921 q 749 931 657 921 l 749 886 q 674 867 690 885 q 658 790 658 850 l 658 135 q 674 60 658 76 q 749 40 689 44 l 749 -4 q 594 6 657 6 q 433 -4 532 6 l 433 40 q 508 60 493 44 q 524 135 524 76 l 524 458 l 261 458 l 261 135 q 276 61 261 78 q 350 40 292 44 l 350 -4 q 190 6 253 6 q 35 -4 128 6 l 35 40 l 46 40 q 112 62 97 44 q 126 135 126 79 l 126 790 q 110 867 126 850 q 35 886 93 883 l 35 931 q 190 921 128 921 q 350 931 253 921 l 350 886 q 277 867 293 885 q 261 790 261 850 l 261 507 z "},"I":{"ha":389,"x_min":35,"x_max":356,"o":"m 356 40 l 356 -4 q 194 6 257 6 q 35 -4 133 6 l 35 40 q 110 61 94 44 q 126 136 126 78 l 126 790 q 110 867 126 850 q 35 886 93 883 l 35 931 q 194 921 133 921 q 356 931 257 921 l 356 886 q 280 867 296 885 q 264 790 264 850 l 264 136 q 280 60 264 78 q 356 40 296 43 z "},"J":{"ha":389,"x_min":-7,"x_max":357,"o":"m -7 -96 l -7 -43 q 28 -47 15 -47 q 106 -10 85 -47 q 128 125 128 26 l 128 792 q 112 867 128 850 q 38 886 96 885 l 38 931 q 197 921 135 921 q 357 931 258 921 l 357 886 q 282 867 299 883 q 265 792 265 850 l 265 183 q 231 -8 265 54 q 44 -101 179 -101 q -7 -96 21 -101 z "},"K":{"ha":754,"x_min":35,"x_max":739,"o":"m 390 589 l 615 140 q 670 60 647 79 q 739 40 693 42 l 739 -4 q 579 7 650 7 q 415 -4 508 7 l 415 40 l 422 40 q 486 74 486 49 q 474 115 486 90 l 304 474 l 261 415 l 261 136 q 275 62 261 78 q 343 40 289 46 l 343 -4 q 196 6 264 6 q 35 -4 131 6 l 35 40 q 110 60 94 43 q 126 136 126 78 l 126 790 q 110 867 126 850 q 35 886 93 883 l 35 931 q 196 921 136 921 q 350 931 257 921 l 350 886 q 277 867 293 885 q 261 790 261 850 l 261 490 l 494 814 q 513 856 513 836 q 449 886 513 882 l 442 886 l 442 931 q 571 925 525 925 q 686 931 619 925 l 686 886 q 611 867 639 883 q 551 808 583 851 l 390 589 z "},"L":{"ha":599,"x_min":35,"x_max":585,"o":"m 585 244 l 554 0 l 35 0 l 35 44 q 110 64 94 47 q 126 140 126 81 l 126 792 q 110 867 126 850 q 35 886 93 883 l 35 931 q 194 921 133 921 q 356 931 257 921 l 356 886 q 280 867 296 885 q 264 792 264 850 l 264 126 q 277 65 264 81 q 331 50 290 50 l 382 50 q 482 92 454 50 q 544 244 522 144 l 585 244 z "},"M":{"ha":963,"x_min":33,"x_max":928,"o":"m 190 799 l 175 136 l 175 126 q 192 59 175 75 q 268 40 210 43 l 268 -4 q 154 1 201 1 q 33 -4 106 1 l 33 40 l 49 42 q 111 62 99 47 q 126 136 124 76 l 142 796 q 126 865 143 849 q 49 886 108 882 l 49 931 q 172 928 96 928 q 290 932 232 928 l 486 308 l 683 932 q 807 925 747 925 q 917 931 854 925 l 917 886 q 842 867 860 883 q 824 803 824 851 l 824 792 l 833 136 q 851 60 835 76 q 928 40 867 44 l 928 -4 q 767 6 826 6 q 606 -4 704 6 l 606 40 q 683 60 667 43 q 699 135 699 76 l 689 792 l 504 204 q 453 26 483 139 l 429 26 q 374 219 401 128 l 190 799 z "},"N":{"ha":765,"x_min":33,"x_max":735,"o":"m 642 -25 l 615 -25 q 490 207 563 81 l 175 760 l 175 136 q 191 61 175 78 q 268 40 207 44 l 268 -4 q 149 1 197 1 q 35 -4 101 1 l 35 40 q 111 60 96 44 q 126 136 126 76 l 126 838 q 85 874 106 864 q 33 886 65 883 l 33 931 q 135 926 97 926 q 236 931 171 926 l 593 306 l 593 790 q 577 867 593 850 q 501 886 561 885 l 501 931 q 619 925 572 925 q 735 931 667 925 l 735 886 q 658 867 675 885 q 642 790 642 850 l 642 -25 z "},"O":{"ha":732,"x_min":51,"x_max":682,"o":"m 367 947 q 487 919 429 947 q 581 840 544 890 q 682 450 682 704 q 644 215 682 326 q 546 49 606 103 q 367 -21 468 -21 q 164 71 247 -21 q 82 234 113 128 q 51 460 51 340 q 137 815 51 683 q 367 947 222 947 m 371 906 q 240 790 285 906 q 196 454 196 675 q 240 133 196 246 q 367 21 285 21 q 538 456 538 21 q 479 831 538 729 q 371 906 436 906 z "},"P":{"ha":642,"x_min":35,"x_max":607,"o":"m 35 926 l 344 926 q 496 896 443 926 q 576 803 546 865 q 607 665 607 740 q 528 460 607 536 q 358 403 467 403 l 264 403 l 264 135 q 280 60 264 76 q 356 40 296 43 l 356 -4 q 196 6 257 6 q 35 -4 133 6 l 35 40 q 110 60 94 43 q 126 135 126 76 l 126 786 q 110 862 126 844 q 35 882 93 879 l 35 926 m 264 451 l 310 451 q 467 669 467 451 q 452 774 467 725 q 414 846 438 822 q 314 878 379 878 l 264 878 l 264 451 z "},"Q":{"ha":742,"x_min":51,"x_max":757,"o":"m 757 -15 l 708 -15 q 629 -1 660 -15 q 554 57 599 13 q 367 -21 475 -21 q 164 71 247 -21 q 83 235 114 128 q 51 460 51 342 q 137 815 51 683 q 367 947 222 947 q 597 816 511 947 q 682 463 682 685 q 631 181 682 307 q 694 66 671 92 q 757 33 717 40 l 757 -15 m 371 906 q 240 790 285 906 q 196 454 196 675 q 240 133 196 246 q 367 21 285 21 q 538 456 538 21 q 479 831 538 729 q 371 906 436 906 z "},"R":{"ha":699,"x_min":35,"x_max":689,"o":"m 263 426 l 263 135 q 276 61 263 78 q 342 40 290 44 l 353 40 l 353 -4 q 197 6 260 6 q 35 -4 133 6 l 35 40 l 46 40 q 112 62 97 44 q 126 135 126 79 l 126 786 q 110 862 126 844 q 35 882 93 879 l 35 926 l 347 926 q 494 896 442 926 q 574 808 544 867 q 604 678 604 749 q 532 496 604 557 q 424 442 496 463 q 485 401 463 428 q 532 314 508 374 l 597 129 q 634 57 618 72 q 689 40 650 42 l 689 -4 q 596 0 631 0 q 503 -4 561 0 q 471 81 488 29 l 392 314 q 347 404 369 382 q 281 426 325 426 l 263 426 m 264 475 l 318 475 q 421 515 388 475 q 464 678 464 568 q 449 780 464 732 q 411 850 435 828 q 325 878 381 878 l 264 878 l 264 475 z "},"S":{"ha":606,"x_min":65,"x_max":551,"o":"m 65 294 l 106 294 q 170 104 121 171 q 296 38 219 38 q 395 85 356 38 q 435 204 435 132 q 401 315 435 269 q 279 417 368 360 q 119 550 161 492 q 78 696 78 608 q 140 873 78 806 q 304 940 203 940 q 460 864 394 940 l 490 949 l 518 949 l 518 674 l 478 674 q 318 892 446 892 q 230 849 265 892 q 194 740 194 806 q 224 647 194 682 q 354 546 253 611 q 510 412 469 472 q 551 258 551 351 q 486 63 551 139 q 319 -14 421 -14 q 129 72 217 -14 l 93 -26 l 65 -26 l 65 294 z "},"T":{"ha":629,"x_min":24,"x_max":607,"o":"m 607 688 l 567 688 q 515 836 546 794 q 422 878 483 878 l 383 878 l 383 136 q 399 60 383 76 q 475 40 415 43 l 475 -4 q 319 6 382 6 q 156 -4 257 6 l 156 40 q 231 60 215 44 q 246 136 246 76 l 246 878 l 211 878 q 118 836 150 878 q 65 688 86 794 l 24 688 l 57 926 l 574 926 l 607 688 z "},"U":{"ha":763,"x_min":28,"x_max":733,"o":"m 500 886 l 500 931 q 618 925 572 925 q 733 931 665 925 l 733 886 q 658 867 675 883 q 642 790 642 850 l 642 313 q 599 103 642 178 q 382 -15 531 -15 q 160 107 229 -15 q 119 301 119 178 l 119 790 q 103 867 119 850 q 28 886 86 883 l 28 931 q 189 921 126 921 q 349 931 250 921 l 349 886 q 273 867 289 885 q 257 790 257 850 l 257 276 q 285 129 257 175 q 415 58 328 58 q 499 81 460 58 q 558 139 539 103 q 593 317 593 199 l 593 790 q 576 867 593 850 q 500 886 560 883 z "},"V":{"ha":733,"x_min":14,"x_max":719,"o":"m 410 249 l 571 797 q 578 844 578 825 q 563 874 578 865 q 507 886 547 883 l 507 931 q 613 925 564 925 q 719 931 660 925 l 719 886 q 656 862 678 882 q 619 793 635 842 l 413 90 q 393 22 400 51 q 381 -19 390 17 l 347 -19 q 318 78 326 50 q 313 97 313 94 l 114 781 q 76 861 94 842 q 14 886 58 881 l 14 931 q 167 921 100 921 q 321 931 235 921 l 321 886 q 249 847 249 881 q 261 785 249 826 l 410 249 z "},"W":{"ha":1010,"x_min":24,"x_max":993,"o":"m 328 -19 l 299 -19 q 282 69 292 24 l 119 783 q 87 862 106 842 q 24 886 68 882 l 24 931 q 175 921 107 921 q 326 931 243 921 l 326 886 q 253 842 253 879 q 261 788 253 821 l 367 318 l 536 956 l 569 956 l 736 315 l 844 781 q 853 843 853 818 q 838 875 853 865 q 783 886 822 885 l 783 931 q 888 925 840 925 q 993 931 933 925 l 993 886 q 930 865 947 882 q 897 793 913 847 l 731 81 q 710 -19 719 38 l 679 -19 q 672 17 674 11 l 669 29 q 660 65 663 57 l 506 664 l 353 83 q 328 -19 338 35 z "},"X":{"ha":724,"x_min":18,"x_max":704,"o":"m 415 532 l 575 156 q 630 63 608 82 q 704 40 651 43 l 704 -4 q 550 6 613 6 q 375 -4 490 6 l 375 40 l 385 40 q 449 75 449 44 q 431 143 449 96 l 333 375 l 208 138 q 186 74 186 96 q 201 51 186 58 q 253 40 215 43 l 253 -4 q 135 1 188 1 q 18 -4 83 1 l 18 40 q 94 67 63 43 q 154 142 125 90 l 310 432 l 157 792 q 113 863 135 844 q 43 886 90 882 l 43 931 q 204 921 131 921 q 364 931 278 921 l 364 886 l 346 885 q 290 850 290 879 q 303 803 290 831 l 392 589 l 500 797 q 519 853 519 833 q 451 886 519 882 l 451 931 q 565 925 514 925 q 681 931 618 925 l 681 886 q 610 867 635 883 q 560 804 585 850 l 415 532 z "},"Y":{"ha":686,"x_min":19,"x_max":672,"o":"m 183 -4 l 183 40 q 259 60 243 43 q 275 136 275 76 l 275 401 l 126 786 q 83 862 104 842 q 19 886 61 882 l 19 931 q 175 921 106 921 q 332 931 244 921 l 332 886 q 274 875 290 883 q 257 849 257 867 q 269 796 257 829 l 392 475 l 513 790 q 529 851 529 828 q 457 886 529 882 l 457 931 q 565 925 522 925 q 672 931 610 925 l 672 886 q 608 865 628 881 q 569 804 588 850 l 413 401 l 413 136 q 428 60 413 76 q 504 40 444 43 l 504 -4 q 344 6 406 6 q 183 -4 285 6 z "},"Z":{"ha":628,"x_min":32,"x_max":594,"o":"m 32 0 l 408 878 l 283 878 q 178 840 214 878 q 117 699 143 803 l 75 699 l 107 926 l 579 926 l 204 49 l 375 49 q 479 86 450 49 q 554 256 524 140 l 594 256 l 560 0 l 32 0 z "},"[":{"ha":369,"x_min":118,"x_max":336,"o":"m 336 885 l 231 885 l 231 -228 l 336 -228 l 336 -269 l 118 -269 l 118 926 l 336 926 l 336 885 z "},"\\":{"ha":490,"x_min":14,"x_max":585,"o":"m 585 -269 l 496 -269 l 14 926 l 103 926 l 585 -269 z "},"]":{"ha":369,"x_min":33,"x_max":251,"o":"m 33 -228 l 139 -228 l 139 885 l 33 885 l 33 926 l 251 926 l 251 -269 l 33 -269 l 33 -228 z "},"^":{"ha":561,"x_min":-26,"x_max":586,"o":"m 586 396 l 531 396 l 322 797 l 107 394 l -26 394 l 283 972 l 292 972 l 586 396 z "},"_":{"ha":561,"x_min":25,"x_max":536,"o":"m 25 -122 l 536 -122 l 536 -190 l 25 -190 l 25 -122 z "},"`":{"ha":561,"x_min":93,"x_max":349,"o":"m 349 764 l 292 764 l 93 961 l 260 961 l 349 764 z "},"a":{"ha":546,"x_min":39,"x_max":524,"o":"m 524 40 l 524 1 q 444 -12 478 -12 q 336 82 358 -12 q 199 -14 286 -14 q 83 35 126 -14 q 39 165 39 85 q 119 331 39 274 q 322 408 201 386 l 322 504 q 249 628 322 628 q 200 609 221 628 q 179 565 179 590 q 181 536 179 547 q 182 507 182 525 q 165 459 182 476 q 121 442 149 442 q 72 499 72 442 q 128 620 72 571 q 265 669 185 669 q 428 579 379 669 q 454 400 454 531 l 454 140 q 463 56 454 79 q 494 33 472 33 q 524 40 506 33 m 322 242 l 322 371 q 206 305 240 347 q 172 182 172 263 q 192 90 172 124 q 243 56 211 56 q 300 92 279 56 q 322 242 322 135 z "},"b":{"ha":596,"x_min":14,"x_max":553,"o":"m 90 -15 l 90 779 q 78 857 90 842 q 14 872 65 872 l 14 904 q 221 949 121 914 l 221 601 q 272 655 247 640 q 336 669 297 669 q 492 574 432 669 q 553 328 553 478 q 489 82 553 178 q 324 -14 425 -14 q 244 10 274 -14 q 193 93 214 35 l 124 -15 l 90 -15 m 322 631 q 219 349 219 631 q 242 101 219 178 q 317 25 265 25 q 417 340 417 25 q 322 631 417 631 z "},"c":{"ha":510,"x_min":47,"x_max":467,"o":"m 457 685 l 457 438 l 421 438 q 301 632 396 632 q 183 324 183 632 q 297 35 183 35 q 374 81 344 35 q 414 213 404 126 l 467 213 q 406 42 454 101 q 276 -17 357 -17 q 110 78 174 -17 q 47 324 47 172 q 113 576 47 479 q 281 674 178 674 q 404 613 354 674 l 432 685 l 457 685 z "},"d":{"ha":599,"x_min":42,"x_max":586,"o":"m 586 56 l 586 24 q 404 -19 486 11 q 389 64 393 21 q 335 -4 365 17 q 263 -25 306 -25 q 103 72 165 -25 q 42 318 42 168 q 103 563 42 467 q 257 658 164 658 q 321 642 296 658 q 371 588 346 626 l 371 779 q 358 857 371 842 q 293 872 346 872 l 293 904 q 503 949 406 915 l 503 147 q 516 73 503 88 q 586 56 529 58 m 271 619 q 178 328 178 619 q 276 14 178 14 q 347 86 321 14 q 372 288 372 158 q 349 541 372 463 q 271 619 325 619 z "},"e":{"ha":529,"x_min":42,"x_max":488,"o":"m 438 210 l 488 210 q 420 42 474 101 q 281 -17 367 -17 q 106 77 171 -17 q 42 329 42 171 q 106 578 42 483 q 272 674 169 674 q 387 633 338 674 q 461 517 436 593 q 488 335 483 449 l 178 335 q 208 103 179 171 q 304 35 236 35 q 438 210 415 35 m 179 385 l 354 385 q 271 636 350 636 q 179 385 188 636 z "},"f":{"ha":364,"x_min":28,"x_max":411,"o":"m 238 656 l 363 656 l 363 603 l 238 603 l 238 111 q 250 47 238 60 q 315 31 263 33 l 315 -4 q 174 4 242 4 q 28 -4 104 4 l 28 31 q 93 47 81 33 q 106 111 106 60 l 106 603 l 29 603 l 29 651 q 99 667 85 653 q 115 742 113 682 q 279 951 122 951 q 375 919 339 951 q 411 835 411 888 q 358 774 411 774 q 306 819 306 774 q 311 843 306 828 q 318 878 318 864 q 309 903 318 893 q 288 914 300 914 q 238 779 238 914 l 238 656 z "},"g":{"ha":560,"x_min":33,"x_max":535,"o":"m 385 632 l 535 632 l 535 569 l 431 578 q 464 449 464 522 q 357 254 464 304 q 264 229 336 243 q 163 167 163 210 q 236 124 163 128 q 426 92 371 118 q 519 -65 519 49 q 449 -223 519 -162 q 264 -283 378 -283 q 96 -234 158 -283 q 33 -101 33 -185 q 124 36 33 -6 q 69 131 69 75 q 186 250 69 221 q 65 453 65 306 q 119 612 65 554 q 267 669 172 669 q 385 632 336 669 m 265 632 q 208 587 229 632 q 188 465 188 542 q 265 274 188 274 q 321 319 301 274 q 340 449 340 365 q 265 632 340 632 m 231 -3 q 93 -103 93 -3 q 141 -197 93 -160 q 263 -233 189 -233 q 375 -201 333 -233 q 417 -115 417 -169 q 231 -3 417 -3 z "},"h":{"ha":638,"x_min":25,"x_max":614,"o":"m 26 872 l 26 904 q 235 949 128 913 l 235 594 q 371 669 285 669 q 536 439 536 669 l 536 111 q 549 47 536 60 q 614 31 561 33 l 614 -4 q 478 4 546 4 q 344 -4 408 4 l 344 29 q 392 46 381 32 q 404 106 404 60 l 404 454 q 324 599 404 599 q 254 553 279 599 q 235 450 235 519 l 235 106 q 246 45 235 60 q 294 29 257 31 l 294 -4 q 161 4 229 4 q 25 -4 93 4 l 25 31 q 90 47 78 33 q 103 111 103 60 l 103 779 q 90 857 103 842 q 26 872 78 872 z "},"i":{"ha":350,"x_min":32,"x_max":319,"o":"m 242 681 l 242 111 q 254 47 242 60 q 319 31 267 33 l 319 -4 q 175 4 242 4 q 32 -4 110 4 l 32 31 q 97 47 85 33 q 110 111 110 60 l 110 514 q 99 590 110 574 q 44 606 88 606 l 33 606 l 33 638 q 242 681 140 647 m 175 938 q 233 913 208 938 q 257 854 257 889 q 233 795 257 819 q 174 771 208 771 q 115 795 139 771 q 90 854 90 819 q 115 913 90 889 q 175 938 139 938 z "},"j":{"ha":342,"x_min":-14,"x_max":258,"o":"m -14 -279 l -14 -231 q 81 -185 54 -228 q 108 -44 108 -143 l 108 514 q 96 590 108 575 q 31 606 83 604 l 31 638 q 240 681 136 647 l 240 22 q 201 -179 240 -107 q 1 -279 143 -279 l -14 -279 m 176 939 q 234 915 210 939 q 258 856 258 890 q 234 797 258 821 q 175 772 210 772 q 116 797 140 772 q 92 856 92 821 q 117 915 92 890 q 176 939 142 939 z "},"k":{"ha":625,"x_min":25,"x_max":615,"o":"m 357 422 l 514 119 q 561 49 544 64 q 615 31 578 33 l 615 -4 q 540 -1 557 -1 q 429 -4 489 -1 l 279 317 l 233 256 l 233 111 q 246 47 233 60 q 311 31 258 33 l 311 -4 q 168 4 238 4 q 25 -4 99 4 l 25 31 q 90 47 78 33 q 103 111 103 60 l 103 779 q 90 857 103 842 q 26 872 78 872 l 26 904 q 235 949 115 915 l 235 336 l 381 535 q 404 586 404 565 q 390 610 404 603 q 336 625 376 618 l 336 660 q 449 653 392 653 q 579 660 510 653 l 579 625 q 510 607 531 619 q 456 553 489 594 l 357 422 z "},"l":{"ha":344,"x_min":28,"x_max":315,"o":"m 238 949 l 238 111 q 250 47 238 60 q 315 31 263 33 l 315 -4 q 171 4 238 4 q 28 -4 106 4 l 28 31 q 93 47 81 33 q 106 111 106 60 l 106 781 q 93 857 106 842 q 29 872 81 872 l 29 904 q 238 949 138 915 z "},"m":{"ha":926,"x_min":32,"x_max":901,"o":"m 32 603 l 32 635 q 210 675 146 651 q 226 574 225 614 q 290 647 257 625 q 371 669 324 669 q 508 569 468 669 q 574 647 539 624 q 663 669 610 669 q 822 461 822 669 l 822 111 q 835 47 822 60 q 901 31 849 33 l 901 -4 q 765 4 833 4 q 632 -4 696 4 l 632 29 q 679 47 668 32 q 690 106 690 61 l 690 465 q 617 597 690 597 q 554 561 576 597 q 532 460 532 525 l 532 106 q 543 47 532 61 q 590 29 554 32 l 590 -4 q 467 3 525 3 q 343 -4 407 3 l 343 29 q 389 47 378 32 q 400 106 400 61 l 400 465 q 383 566 400 535 q 328 597 367 597 q 261 554 286 597 q 243 451 243 522 l 243 106 q 254 46 243 60 q 301 29 265 32 l 301 -4 q 169 4 240 4 q 32 -4 100 4 l 32 31 q 98 47 85 33 q 111 111 111 60 l 111 508 q 101 588 111 574 q 42 603 90 603 l 32 603 z "},"n":{"ha":646,"x_min":32,"x_max":621,"o":"m 32 603 l 32 635 q 208 675 143 650 q 225 571 224 624 q 378 669 282 669 q 501 610 458 669 q 543 439 543 551 l 543 111 q 556 47 543 60 q 621 31 568 33 l 621 -4 q 486 4 553 4 q 354 -4 415 4 l 354 29 q 400 47 389 32 q 411 106 411 61 l 411 454 q 392 565 411 531 q 333 600 374 600 q 242 450 242 600 l 242 106 q 253 46 242 61 q 300 29 264 31 l 300 -4 q 167 4 236 4 q 32 -4 100 4 l 32 31 q 97 47 85 33 q 110 111 110 60 l 110 508 q 99 588 110 572 q 42 603 88 603 l 32 603 z "},"o":{"ha":549,"x_min":42,"x_max":507,"o":"m 278 674 q 425 606 365 674 q 484 486 461 564 q 507 326 507 408 q 442 78 507 174 q 274 -17 378 -17 q 106 78 169 -17 q 42 328 42 172 q 106 578 42 483 q 278 674 171 674 m 275 636 q 178 324 178 636 q 274 21 178 21 q 371 307 371 21 q 349 559 371 482 q 275 636 326 636 z "},"p":{"ha":604,"x_min":19,"x_max":563,"o":"m 19 606 l 19 638 q 197 671 108 646 q 213 578 210 624 q 267 649 239 628 q 339 669 296 669 q 499 572 436 669 q 563 328 563 475 q 501 82 563 178 q 346 -14 440 -14 q 283 1 308 -14 q 231 51 258 15 l 231 -161 q 243 -226 231 -212 q 308 -242 256 -239 l 308 -276 q 164 -268 228 -268 q 21 -276 99 -268 l 21 -242 q 86 -226 74 -239 q 99 -161 99 -212 l 99 513 q 81 597 99 585 q 19 606 69 604 m 328 631 q 255 558 281 631 q 229 354 229 486 q 253 103 229 182 q 331 25 278 25 q 426 313 426 25 q 388 589 426 522 q 328 631 364 631 z "},"q":{"ha":604,"x_min":42,"x_max":585,"o":"m 585 606 l 579 606 q 517 588 529 603 q 506 513 506 574 l 506 -161 q 518 -226 506 -212 q 583 -242 531 -239 l 583 -276 q 440 -268 507 -268 q 296 -276 376 -268 l 296 -242 q 361 -226 349 -239 q 374 -161 374 -212 l 374 51 q 321 1 346 15 q 258 -14 296 -14 q 103 82 164 -14 q 42 328 42 178 q 105 572 42 475 q 265 669 168 669 q 338 649 310 669 q 392 578 365 629 q 407 671 394 624 q 585 638 496 646 l 585 606 m 276 631 q 178 313 178 631 q 274 25 178 25 q 351 103 326 25 q 375 354 375 182 q 349 558 375 486 q 276 631 324 631 z "},"r":{"ha":465,"x_min":32,"x_max":454,"o":"m 321 31 l 321 -4 q 176 4 243 4 q 32 -4 113 4 l 32 31 q 98 47 85 33 q 111 111 111 60 l 111 515 q 100 595 111 581 q 40 610 89 610 l 35 610 l 32 610 l 32 642 q 208 675 139 651 q 222 565 221 613 q 346 675 269 675 q 424 641 394 675 q 454 553 454 607 q 393 479 454 479 q 354 492 369 479 q 339 528 339 506 q 342 551 339 535 q 344 581 344 576 q 338 602 344 593 q 321 611 331 611 q 269 571 290 611 q 243 421 243 519 l 243 111 q 256 47 243 60 q 321 31 268 33 z "},"s":{"ha":507,"x_min":65,"x_max":449,"o":"m 65 -21 l 65 222 l 100 222 q 239 33 124 33 q 308 64 281 33 q 335 142 335 94 q 317 203 335 179 q 249 260 300 228 q 118 351 144 328 q 67 482 67 396 q 118 617 67 564 q 250 669 169 669 q 374 619 319 669 l 394 686 l 419 686 l 419 461 l 385 461 q 269 624 368 624 q 202 594 229 624 q 175 522 175 565 q 192 469 175 490 q 265 413 210 447 q 406 314 381 343 q 449 189 449 268 q 394 43 449 100 q 257 -14 340 -14 q 117 50 179 -14 l 90 -21 l 65 -21 z "},"t":{"ha":368,"x_min":32,"x_max":357,"o":"m 357 83 l 357 33 q 292 -4 314 4 q 238 -12 269 -12 q 92 189 83 -12 l 92 201 l 99 603 l 32 603 l 32 651 q 188 858 151 651 l 232 858 l 231 656 l 347 656 l 347 603 l 229 603 l 228 193 q 240 81 228 111 q 286 50 253 50 q 349 78 306 50 l 357 83 z "},"u":{"ha":638,"x_min":18,"x_max":608,"o":"m 18 606 l 18 638 q 226 681 119 647 l 226 200 q 245 91 226 125 q 307 57 264 57 q 396 210 396 57 l 396 515 q 384 590 396 575 q 326 606 372 606 l 322 606 l 319 606 l 319 638 q 528 681 421 647 l 528 149 q 539 72 528 88 q 597 57 550 57 l 608 57 l 608 25 q 424 -19 497 11 q 413 89 413 36 q 349 12 383 35 q 263 -11 314 -11 q 94 217 94 -11 l 94 239 l 94 514 q 83 590 94 575 q 25 606 71 606 l 21 606 l 18 606 z "},"v":{"ha":565,"x_min":6,"x_max":558,"o":"m 297 -21 l 265 -21 q 246 42 253 24 l 238 67 l 83 563 q 57 612 71 600 q 6 625 43 624 l 6 660 q 146 651 89 651 q 279 660 186 651 l 279 625 l 272 625 q 224 600 224 621 q 231 557 224 588 l 324 214 l 425 556 q 435 601 435 583 q 389 625 435 622 l 379 625 l 379 660 q 475 654 440 654 q 558 660 507 654 l 558 625 q 506 609 522 622 q 476 558 490 596 l 329 79 l 326 72 q 322 60 324 65 q 297 -21 307 17 z "},"w":{"ha":822,"x_min":11,"x_max":814,"o":"m 418 436 l 296 36 q 282 -19 288 10 l 247 -19 l 238 14 l 233 31 l 93 544 q 63 608 78 593 q 11 625 49 624 l 11 660 q 146 653 86 653 q 279 660 204 653 l 279 625 q 219 594 219 621 q 225 564 219 581 l 311 232 l 444 676 l 481 676 l 604 232 l 688 550 q 694 596 694 581 q 638 625 694 624 l 638 660 q 728 654 693 654 q 814 660 764 654 l 814 625 q 763 604 779 621 q 732 543 747 588 l 592 31 l 586 13 l 583 1 q 579 -19 581 -10 l 542 -19 q 531 21 536 3 l 528 31 l 418 436 z "},"x":{"ha":592,"x_min":19,"x_max":571,"o":"m 319 436 l 393 560 q 410 599 410 588 q 357 625 410 624 l 357 660 q 449 654 413 654 q 540 660 485 654 l 540 625 q 488 608 506 619 q 449 563 469 596 l 342 389 l 471 114 q 515 49 494 65 q 571 31 535 32 l 571 -4 q 429 3 496 3 q 292 -4 363 3 l 292 31 q 346 57 346 32 q 332 101 346 71 l 261 260 l 169 107 q 149 58 149 72 q 160 38 149 44 q 200 31 171 32 l 200 -4 q 110 1 143 1 q 19 -4 79 1 l 19 31 q 74 51 54 35 q 129 124 93 68 l 239 307 l 121 561 q 85 610 103 597 q 33 625 67 624 l 33 660 q 172 653 110 653 q 303 660 233 653 l 303 625 q 253 600 253 619 q 265 557 253 583 l 319 436 z "},"y":{"ha":571,"x_min":11,"x_max":564,"o":"m 261 19 l 97 543 q 64 606 81 590 q 11 625 47 622 l 11 660 q 146 653 82 653 q 281 660 211 653 l 281 625 q 224 597 224 621 q 233 556 224 583 l 328 221 l 431 546 q 442 597 442 583 q 382 625 442 624 l 382 660 q 469 654 431 654 q 564 660 510 654 l 564 625 q 513 603 531 621 q 478 536 496 585 l 268 -108 q 197 -236 239 -197 q 90 -275 156 -275 q 65 -274 76 -275 l 65 -199 q 86 -200 75 -200 q 168 -174 136 -200 q 222 -87 200 -147 l 261 19 z "},"z":{"ha":513,"x_min":36,"x_max":474,"o":"m 36 0 l 311 614 l 231 614 q 149 584 175 614 q 94 460 122 554 l 60 460 l 86 656 l 474 656 l 199 42 l 288 42 q 374 78 344 42 q 432 218 404 114 l 467 218 l 436 0 l 36 0 z "},"{":{"ha":378,"x_min":69,"x_max":328,"o":"m 328 -293 l 288 -293 q 199 -276 226 -293 q 139 -124 139 -243 l 139 219 q 125 297 139 271 q 69 344 111 322 q 125 392 111 367 q 139 468 139 417 l 139 781 q 199 932 139 899 q 288 949 226 949 l 328 949 q 249 811 249 925 l 249 497 q 233 402 249 433 q 172 344 218 371 q 233 286 218 317 q 249 192 249 256 l 249 -156 q 267 -247 249 -215 q 328 -293 286 -279 z "},"|":{"ha":561,"x_min":246,"x_max":315,"o":"m 246 926 l 315 926 l 315 -232 l 246 -232 l 246 926 z "},"}":{"ha":378,"x_min":51,"x_max":310,"o":"m 51 949 l 92 949 q 181 932 153 949 q 240 781 240 900 l 240 468 q 254 392 240 417 q 310 344 268 367 q 254 296 268 321 q 240 219 240 271 l 240 -124 q 181 -276 240 -243 q 92 -293 153 -293 l 51 -293 q 112 -247 93 -279 q 131 -156 131 -215 l 131 192 q 146 286 131 256 q 207 344 161 317 q 146 402 161 371 q 131 497 131 433 l 131 811 q 112 903 131 871 q 51 949 93 935 z "},"~":{"ha":746,"x_min":143,"x_max":604,"o":"m 575 519 l 604 506 q 535 393 576 436 q 454 350 494 350 q 375 379 424 350 q 258 426 296 426 q 178 358 219 426 l 172 350 l 143 364 q 296 519 210 519 q 396 481 332 519 q 488 447 454 447 q 575 519 531 447 z "}," ":{"ha":278,"x_min":0,"x_max":0,"o":""},"¡":{"ha":329,"x_min":74,"x_max":257,"o":"m 203 358 l 236 -261 l 94 -261 l 126 358 l 203 358 m 167 661 q 230 634 203 661 q 257 569 257 607 q 231 504 257 531 q 165 478 204 478 q 100 505 126 478 q 74 571 74 532 q 101 635 74 608 q 167 661 128 661 z "},"¢":{"ha":600,"x_min":82,"x_max":503,"o":"m 358 915 l 358 806 q 440 749 407 792 l 468 821 l 493 821 l 493 574 l 457 574 q 358 765 438 744 l 358 174 q 419 232 394 185 q 450 349 443 279 l 503 349 q 358 125 483 157 l 358 10 l 315 10 l 315 118 q 146 212 210 118 q 82 460 82 306 q 147 711 82 614 q 315 810 211 808 l 315 915 l 358 915 m 315 172 l 315 765 q 218 458 218 733 q 315 172 218 193 z "},"£":{"ha":599,"x_min":44,"x_max":557,"o":"m 131 503 l 140 601 q 223 851 157 761 q 390 942 289 942 q 549 736 536 942 l 493 736 q 467 851 488 815 q 406 886 446 886 q 325 836 357 886 q 294 760 306 804 q 274 618 283 715 l 263 503 l 394 503 l 394 449 l 257 449 l 244 335 q 135 64 226 169 q 269 106 218 106 q 346 93 299 106 q 417 82 390 82 q 513 229 488 82 l 557 229 q 507 51 547 101 q 375 0 467 0 l 44 0 q 84 99 71 42 q 111 289 97 157 l 125 449 l 44 449 l 44 503 l 131 503 z "},"¤":{"ha":850,"x_min":56,"x_max":796,"o":"m 58 132 l 181 254 q 118 436 118 339 q 181 615 118 529 l 56 739 l 118 803 l 242 679 q 426 742 332 742 q 607 679 521 742 l 731 801 l 794 739 l 671 617 q 735 435 735 528 q 672 256 735 342 l 796 132 l 733 68 l 610 192 q 428 129 524 129 q 243 192 335 129 l 121 69 l 58 132 m 431 642 q 282 582 343 642 q 221 438 221 522 q 281 290 221 351 q 426 229 342 229 q 572 290 511 229 q 632 435 632 350 q 572 581 632 519 q 431 642 513 642 z "},"¥":{"ha":599,"x_min":8,"x_max":586,"o":"m 51 608 l 161 608 l 104 794 q 69 861 89 842 q 8 886 49 881 l 8 931 q 199 925 121 925 q 303 931 257 925 l 303 886 q 235 849 235 881 q 242 813 235 832 l 339 475 l 439 810 q 447 851 447 836 q 382 886 447 881 l 382 931 q 481 925 438 925 q 586 931 521 925 l 586 886 q 522 863 543 881 q 486 801 501 846 l 426 608 l 535 608 l 535 553 l 410 553 l 379 457 l 535 457 l 535 401 l 361 401 l 361 136 q 378 60 361 78 q 453 40 394 43 l 453 -4 q 293 6 356 6 q 132 -4 229 6 l 132 40 q 208 60 192 43 q 224 136 224 78 l 224 401 l 51 401 l 51 457 l 207 457 l 178 553 l 51 553 l 51 608 z "},"¦":{"ha":561,"x_min":246,"x_max":315,"o":"m 246 926 l 315 926 l 315 456 l 246 456 l 246 926 m 246 213 l 315 213 l 315 -232 l 246 -232 l 246 213 z "},"§":{"ha":599,"x_min":79,"x_max":519,"o":"m 290 644 l 419 556 q 519 368 519 486 q 421 186 519 253 q 511 13 511 114 q 451 -147 511 -85 q 297 -208 392 -208 q 140 -141 199 -208 q 82 39 82 -74 l 133 39 q 177 -100 139 -50 q 278 -150 215 -150 q 362 -114 329 -150 q 394 -21 394 -78 q 380 44 394 18 q 328 97 365 71 l 174 208 q 79 397 79 276 q 103 501 79 461 q 185 569 128 540 q 119 647 138 610 q 100 736 100 685 q 156 883 100 825 q 299 942 213 942 q 446 876 392 942 q 500 699 500 811 l 453 699 q 415 829 449 782 q 325 876 381 876 q 247 843 278 876 q 215 760 215 810 q 231 699 215 724 q 290 644 247 675 m 385 425 l 226 538 q 154 442 154 508 q 218 332 154 378 l 382 214 q 431 260 417 238 q 444 317 444 282 q 385 425 444 383 z "},"¨":{"ha":563,"x_min":104,"x_max":464,"o":"m 183 939 q 238 916 215 939 q 261 861 261 893 q 238 805 261 828 q 183 782 215 782 q 127 805 150 782 q 104 861 104 828 q 127 916 104 893 q 183 939 150 939 m 386 939 q 441 916 418 939 q 464 861 464 893 q 441 805 464 828 q 386 782 418 782 q 330 805 353 782 q 307 861 307 828 q 330 916 307 893 q 386 939 353 939 z "},"©":{"ha":1004,"x_min":39,"x_max":965,"o":"m 508 893 q 194 750 317 893 q 89 468 89 629 q 209 162 89 288 q 501 36 329 36 q 793 162 672 36 q 914 465 914 288 q 794 766 914 639 q 508 893 674 893 m 636 385 l 672 385 q 626 230 671 286 q 506 174 581 174 q 361 253 415 174 q 307 464 307 332 q 362 675 307 596 q 508 754 417 754 q 624 700 578 754 l 643 753 l 665 753 l 665 567 l 633 567 q 519 714 608 714 q 406 478 406 714 q 522 232 406 232 q 603 272 574 232 q 636 385 633 313 m 510 942 q 831 801 696 942 q 965 465 965 660 q 830 127 965 267 q 503 -12 694 -12 q 174 128 310 -12 q 39 468 39 268 q 176 803 39 665 q 510 942 314 942 z "},"ª":{"ha":401,"x_min":38,"x_max":372,"o":"m 361 558 l 361 525 q 308 515 333 515 q 240 568 257 515 q 154 514 204 514 q 78 546 107 514 q 50 631 50 578 q 229 785 50 751 l 229 838 q 185 914 229 914 q 154 903 167 914 q 142 878 142 893 q 143 860 142 867 q 144 842 144 854 q 133 810 144 822 q 103 799 122 799 q 69 838 69 799 q 106 917 69 885 q 194 949 142 949 q 301 890 268 949 q 318 775 318 856 l 318 614 q 339 551 318 551 q 361 558 344 551 m 229 678 l 229 753 q 160 714 182 740 q 139 640 139 688 q 182 565 139 565 q 229 678 229 565 m 38 443 l 372 443 l 372 390 l 38 390 l 38 443 z "},"«":{"ha":488,"x_min":50,"x_max":424,"o":"m 50 332 l 203 656 l 246 656 l 161 332 l 246 0 l 203 0 l 50 332 m 228 332 l 381 656 l 424 656 l 339 332 l 424 0 l 381 0 l 228 332 z "},"¬":{"ha":561,"x_min":42,"x_max":521,"o":"m 521 0 l 399 0 l 399 307 l 42 307 l 42 371 l 521 371 l 521 0 z "},"­":{"ha":297,"x_min":3,"x_max":294,"o":"m 3 326 l 3 396 l 294 396 l 294 326 l 3 326 z "},"®":{"ha":1004,"x_min":39,"x_max":965,"o":"m 463 438 l 463 269 q 470 228 463 238 q 508 217 478 218 l 517 215 l 517 182 q 417 189 464 189 q 311 182 368 189 l 311 215 q 324 217 317 217 q 361 228 353 219 q 369 269 369 238 l 369 654 q 361 695 369 686 q 324 706 353 704 l 311 707 l 311 740 l 510 740 q 632 696 596 740 q 669 589 669 651 q 567 449 669 485 q 624 376 600 433 l 665 267 q 688 225 678 233 q 722 215 697 217 l 722 182 q 649 183 701 183 q 604 182 617 183 q 583 235 596 197 l 532 374 q 506 424 518 411 q 469 438 493 438 l 463 438 m 464 474 l 494 474 q 574 590 574 474 q 499 704 574 704 l 464 704 l 464 474 m 510 942 q 831 801 696 942 q 965 465 965 660 q 830 127 965 267 q 503 -12 694 -12 q 174 128 310 -12 q 39 468 39 268 q 176 803 39 665 q 510 942 314 942 m 508 893 q 194 750 319 893 q 89 468 89 626 q 210 162 89 288 q 503 36 331 36 q 794 162 674 36 q 915 465 915 288 q 794 766 915 639 q 508 893 674 893 z "},"¯":{"ha":561,"x_min":106,"x_max":454,"o":"m 106 815 l 106 894 l 454 894 l 454 815 l 106 815 z "},"°":{"ha":613,"x_min":115,"x_max":497,"o":"m 310 943 q 442 886 386 943 q 497 751 497 829 q 442 617 497 672 q 307 561 386 561 q 171 617 226 561 q 115 753 115 672 q 172 888 115 832 q 310 943 229 943 m 308 875 q 219 840 256 875 q 182 753 182 804 q 219 664 182 700 q 307 628 256 628 q 394 664 358 628 q 431 751 431 700 q 394 838 431 801 q 308 875 358 875 z "},"±":{"ha":599,"x_min":57,"x_max":542,"o":"m 57 17 l 57 117 l 542 117 l 542 17 l 57 17 m 57 417 l 57 519 l 247 519 l 247 765 l 350 765 l 350 519 l 542 519 l 542 417 l 350 417 l 350 189 l 247 189 l 247 417 l 57 417 z "},"²":{"ha":392,"x_min":51,"x_max":338,"o":"m 338 678 l 326 592 l 51 592 l 51 664 q 192 868 157 807 q 235 997 235 947 q 217 1053 235 1031 q 171 1075 199 1075 q 96 974 110 1075 l 56 974 q 97 1102 63 1061 q 196 1143 131 1143 q 290 1106 253 1143 q 328 1013 328 1069 q 192 751 328 921 l 186 743 q 164 717 179 735 q 132 678 149 699 l 338 678 z "},"³":{"ha":392,"x_min":43,"x_max":340,"o":"m 43 753 l 82 753 q 106 674 88 699 q 161 650 125 650 q 224 679 200 650 q 247 757 247 708 q 223 834 247 810 q 144 858 199 858 l 131 858 l 131 897 l 144 897 q 231 992 231 897 q 213 1056 231 1032 q 165 1079 196 1079 q 93 988 110 1079 l 57 988 q 192 1144 69 1144 q 287 1107 251 1144 q 322 1008 322 1069 q 246 885 322 921 q 340 751 340 854 q 297 632 340 679 q 185 585 253 585 q 43 753 50 585 z "},"´":{"ha":561,"x_min":236,"x_max":492,"o":"m 236 764 l 325 961 l 492 961 l 293 764 l 236 764 z "},"µ":{"ha":619,"x_min":65,"x_max":607,"o":"m 607 74 l 607 36 l 536 -4 q 489 -17 517 -17 q 433 1 451 -17 q 397 68 414 18 q 340 -1 369 19 q 268 -21 310 -21 q 119 75 161 -21 q 169 -131 146 -74 q 188 -203 188 -175 q 169 -248 188 -228 q 126 -268 150 -268 q 83 -247 100 -268 q 65 -194 65 -226 q 71 -110 65 -154 q 92 376 92 99 l 92 656 l 224 656 l 224 238 q 247 92 224 129 q 306 57 265 57 q 349 76 329 57 q 393 144 368 94 l 393 656 l 525 656 l 525 167 q 534 81 525 103 q 569 58 543 58 q 607 74 586 58 z "},"¶":{"ha":599,"x_min":31,"x_max":565,"o":"m 565 926 l 565 882 q 491 862 507 879 q 475 786 475 844 l 475 -57 q 491 -133 475 -115 q 565 -153 507 -150 l 565 -197 q 342 -186 444 -186 q 119 -197 240 -186 l 119 -153 q 191 -133 175 -150 q 207 -57 207 -115 l 207 431 q 31 688 31 463 q 56 817 31 761 q 125 896 81 872 q 285 926 182 926 l 565 926 m 383 -42 l 383 779 q 376 857 383 839 q 342 875 368 875 q 307 858 315 875 q 299 782 299 840 l 299 -42 q 307 -118 299 -100 q 340 -136 315 -136 q 375 -117 367 -136 q 383 -42 383 -99 z "},"·":{"ha":307,"x_min":63,"x_max":246,"o":"m 156 429 q 219 402 193 429 q 246 338 246 375 q 219 273 246 300 q 154 246 192 246 q 90 273 117 246 q 63 338 63 300 q 90 403 63 376 q 156 429 117 429 z "},"¸":{"ha":564,"x_min":196,"x_max":397,"o":"m 225 -108 l 275 0 l 326 0 l 293 -75 q 397 -171 397 -81 q 366 -247 397 -218 q 286 -276 335 -276 q 196 -253 243 -276 l 196 -207 q 253 -219 232 -219 q 286 -206 274 -219 q 299 -168 299 -192 q 281 -124 299 -140 q 232 -108 263 -108 l 231 -108 l 225 -108 z "},"¹":{"ha":392,"x_min":79,"x_max":304,"o":"m 247 1158 l 247 676 q 256 635 247 644 q 296 624 265 625 l 304 624 l 304 589 q 201 594 247 594 q 99 589 154 594 l 99 624 l 107 624 q 146 635 138 625 q 154 676 154 644 l 154 1035 l 79 1035 l 79 1068 q 163 1094 126 1069 q 215 1158 200 1119 l 247 1158 z "},"º":{"ha":401,"x_min":33,"x_max":368,"o":"m 93 885 q 115 916 93 885 q 203 947 138 947 q 310 887 268 947 q 351 733 351 826 q 308 576 351 639 q 200 514 265 514 q 92 576 135 514 q 49 732 49 638 q 93 885 49 824 m 201 915 q 143 732 143 915 q 199 546 143 546 q 257 733 257 546 q 201 915 257 915 m 33 443 l 368 443 l 368 390 l 33 390 l 33 443 z "},"»":{"ha":488,"x_min":64,"x_max":438,"o":"m 242 656 l 285 656 l 438 332 l 285 0 l 242 0 l 325 332 l 242 656 m 64 656 l 107 656 l 260 332 l 107 0 l 64 0 l 149 332 l 64 656 z "},"¼":{"ha":843,"x_min":79,"x_max":819,"o":"m 192 0 l 613 904 l 678 904 l 257 0 l 192 0 m 247 926 l 247 446 q 256 404 247 414 q 296 393 265 394 l 304 393 l 304 358 q 201 364 247 364 q 99 358 154 364 l 99 393 l 107 393 q 146 404 138 394 q 154 446 154 414 l 154 804 l 79 804 l 79 836 q 215 926 182 846 l 247 926 m 654 -8 l 654 133 l 475 133 l 656 560 l 750 560 l 750 207 l 819 207 l 819 133 l 750 133 l 750 -8 l 654 -8 m 657 207 l 657 463 l 551 207 l 657 207 z "},"½":{"ha":843,"x_min":79,"x_max":789,"o":"m 181 0 l 601 904 l 667 904 l 246 0 l 181 0 m 247 926 l 247 446 q 256 404 247 414 q 296 393 265 394 l 304 393 l 304 358 q 201 364 247 364 q 99 358 154 364 l 99 393 l 107 393 q 146 404 138 394 q 154 446 154 414 l 154 804 l 79 804 l 79 836 q 215 926 182 846 l 247 926 m 789 86 l 778 0 l 503 0 l 503 72 q 519 96 514 89 l 532 113 q 682 407 682 314 q 665 461 682 439 q 621 483 647 483 q 549 382 563 483 l 507 382 q 538 496 514 458 q 583 536 553 521 q 649 551 614 551 q 742 515 706 551 q 779 421 779 478 q 649 169 779 324 q 625 140 638 156 q 603 112 613 124 q 593 99 594 100 l 583 86 l 789 86 z "},"¾":{"ha":843,"x_min":43,"x_max":819,"o":"m 654 -8 l 654 133 l 475 133 l 656 560 l 750 560 l 750 207 l 819 207 l 819 133 l 750 133 l 750 -8 l 654 -8 m 657 207 l 657 463 l 551 207 l 657 207 m 200 0 l 622 904 l 688 904 l 265 0 l 200 0 m 43 521 l 82 521 q 106 442 88 467 q 161 418 125 418 q 224 447 200 418 q 247 525 247 476 q 223 603 247 578 q 144 628 199 628 l 131 628 l 131 667 l 144 667 q 231 758 231 667 q 213 823 231 799 q 165 847 196 847 q 93 756 110 847 l 57 756 q 192 913 69 913 q 287 875 251 913 q 322 776 322 838 q 246 654 322 689 q 340 519 340 624 q 297 400 340 447 q 185 353 253 353 q 43 521 50 353 z "},"¿":{"ha":461,"x_min":40,"x_max":422,"o":"m 247 367 l 303 367 q 306 303 306 306 q 291 194 306 233 q 224 79 276 156 q 171 -61 171 1 q 196 -143 171 -112 q 263 -174 221 -174 q 378 -15 365 -174 l 422 -15 q 369 -206 422 -137 q 219 -274 315 -274 q 89 -216 138 -274 q 40 -62 40 -158 q 65 53 40 4 q 154 160 90 101 q 228 251 208 211 q 247 356 247 292 l 247 367 m 267 660 q 331 633 304 660 q 357 568 357 606 q 330 503 357 531 q 265 476 303 476 q 200 503 226 476 q 174 569 174 531 q 201 633 174 607 q 267 660 228 660 z "},"À":{"ha":744,"x_min":14,"x_max":731,"o":"m 217 257 l 183 146 q 169 81 169 106 q 187 51 169 61 q 246 40 204 42 l 246 -4 q 124 3 156 3 q 14 -4 81 3 l 14 40 q 88 65 67 43 q 135 163 108 86 l 385 958 l 624 132 q 660 61 640 78 q 731 40 679 44 l 731 -4 q 554 1 668 1 q 411 -4 485 1 l 411 40 q 469 51 451 43 q 486 78 486 60 q 478 129 486 96 l 446 257 l 217 257 m 232 308 l 433 308 l 340 661 l 232 308 m 431 1004 l 374 1004 l 132 1190 l 314 1190 l 431 1004 z "},"Á":{"ha":744,"x_min":14,"x_max":731,"o":"m 217 257 l 183 146 q 169 81 169 106 q 187 51 169 61 q 246 40 204 42 l 246 -4 q 124 3 156 3 q 14 -4 81 3 l 14 40 q 88 65 67 43 q 135 163 108 86 l 385 958 l 624 132 q 660 61 640 78 q 731 40 679 44 l 731 -4 q 554 1 668 1 q 411 -4 485 1 l 411 40 q 469 51 451 43 q 486 78 486 60 q 478 129 486 96 l 446 257 l 217 257 m 232 308 l 433 308 l 340 661 l 232 308 m 340 1004 l 457 1190 l 640 1190 l 399 1004 l 340 1004 z "},"Â":{"ha":744,"x_min":14,"x_max":731,"o":"m 217 257 l 183 146 q 169 81 169 106 q 187 51 169 61 q 246 40 204 42 l 246 -4 q 124 3 156 3 q 14 -4 81 3 l 14 40 q 88 65 67 43 q 135 163 108 86 l 385 958 l 624 132 q 660 61 640 78 q 731 40 679 44 l 731 -4 q 554 1 668 1 q 411 -4 485 1 l 411 40 q 469 51 451 43 q 486 78 486 60 q 478 129 486 96 l 446 257 l 217 257 m 232 308 l 433 308 l 340 661 l 232 308 m 197 1004 l 361 1194 l 407 1194 l 571 1004 l 511 1004 l 385 1089 l 257 1004 l 197 1004 z "},"Ã":{"ha":744,"x_min":14,"x_max":731,"o":"m 217 257 l 183 146 q 169 81 169 106 q 187 51 169 61 q 246 40 204 42 l 246 -4 q 124 3 156 3 q 14 -4 81 3 l 14 40 q 88 65 67 43 q 135 163 108 86 l 385 958 l 624 132 q 660 61 640 78 q 731 40 679 44 l 731 -4 q 554 1 668 1 q 411 -4 485 1 l 411 40 q 469 51 451 43 q 486 78 486 60 q 478 129 486 96 l 446 257 l 217 257 m 232 308 l 433 308 l 340 661 l 232 308 m 242 1019 l 200 1031 q 249 1147 222 1114 q 321 1181 276 1181 q 411 1139 364 1181 q 467 1108 447 1108 q 499 1123 486 1108 q 528 1178 513 1138 l 569 1167 q 449 1014 538 1014 q 408 1022 425 1014 q 349 1065 392 1031 q 304 1086 324 1086 q 269 1071 283 1086 q 242 1019 256 1056 z "},"Ä":{"ha":744,"x_min":14,"x_max":731,"o":"m 278 1175 q 333 1151 310 1175 q 357 1096 357 1128 q 333 1039 357 1063 q 276 1015 310 1015 q 221 1039 244 1015 q 197 1096 197 1063 q 221 1152 197 1129 q 278 1175 244 1175 m 490 1175 q 546 1151 522 1175 q 569 1096 569 1128 q 546 1039 569 1063 q 490 1015 522 1015 q 433 1039 457 1015 q 410 1094 410 1063 q 433 1152 410 1129 q 490 1175 457 1175 m 217 257 l 183 146 q 169 81 169 106 q 187 51 169 61 q 246 40 204 42 l 246 -4 q 124 3 156 3 q 14 -4 81 3 l 14 40 q 88 65 67 43 q 135 163 108 86 l 385 958 l 624 132 q 660 61 640 78 q 731 40 679 44 l 731 -4 q 554 1 668 1 q 411 -4 485 1 l 411 40 q 469 51 451 43 q 486 78 486 60 q 478 129 486 96 l 446 257 l 217 257 m 232 308 l 433 308 l 340 661 l 232 308 z "},"Å":{"ha":744,"x_min":14,"x_max":731,"o":"m 217 257 l 183 146 q 169 81 169 106 q 187 51 169 61 q 246 40 204 42 l 246 -4 q 124 3 156 3 q 14 -4 81 3 l 14 40 q 88 65 67 43 q 135 163 108 86 l 385 958 l 624 132 q 660 61 640 78 q 731 40 679 44 l 731 -4 q 554 1 668 1 q 411 -4 485 1 l 411 40 q 469 51 451 43 q 486 78 486 60 q 478 129 486 96 l 446 257 l 217 257 m 232 308 l 433 308 l 340 661 l 232 308 m 385 1222 q 465 1188 432 1222 q 499 1106 499 1154 q 465 1023 499 1057 q 383 989 431 989 q 301 1024 335 989 q 267 1107 267 1058 q 301 1188 267 1154 q 385 1222 336 1222 m 383 1168 q 339 1150 357 1168 q 321 1106 321 1132 q 339 1061 321 1079 q 383 1043 357 1043 q 426 1061 408 1043 q 444 1106 444 1079 q 426 1149 444 1131 q 383 1168 408 1168 z "},"Æ":{"ha":1022,"x_min":8,"x_max":975,"o":"m 517 300 l 258 300 l 179 126 q 165 75 165 94 q 181 50 165 57 q 239 40 196 43 l 239 -4 q 124 1 167 1 q 8 -4 81 1 l 8 40 q 78 62 56 42 q 135 151 100 82 l 492 926 l 936 926 l 964 696 l 924 696 q 874 840 903 803 q 783 878 846 878 l 654 878 l 654 506 l 776 506 q 825 526 811 506 q 842 601 839 546 l 843 621 l 883 621 l 883 342 l 843 342 q 827 433 842 410 q 775 457 813 457 l 654 457 l 654 125 q 668 64 654 79 q 722 49 682 49 l 772 49 q 871 89 843 49 q 935 244 914 147 l 975 244 l 943 0 l 422 0 l 422 44 q 500 65 483 47 q 517 140 517 82 l 517 300 m 517 351 l 517 867 l 282 351 l 517 351 z "},"Ç":{"ha":700,"x_min":61,"x_max":629,"o":"m 386 -19 l 361 -76 q 469 -174 469 -81 q 438 -253 469 -222 q 358 -285 406 -285 q 263 -261 315 -285 l 263 -214 q 324 -226 301 -226 q 358 -210 344 -226 q 371 -169 371 -194 q 301 -111 371 -111 l 293 -111 l 335 -18 q 135 126 208 -1 q 61 454 61 254 q 145 815 61 682 q 374 947 229 947 q 558 853 483 947 l 590 946 l 618 946 l 618 644 l 578 644 q 393 892 536 892 q 254 782 301 892 q 206 488 206 678 q 223 295 206 392 q 267 146 240 199 q 320 88 285 110 q 397 67 356 67 q 526 135 478 67 q 582 324 575 203 l 629 324 q 561 83 628 176 q 386 -19 494 -11 z "},"È":{"ha":636,"x_min":35,"x_max":585,"o":"m 585 244 l 553 0 l 35 0 l 35 44 q 110 65 94 47 q 126 140 126 82 l 126 786 q 110 862 126 844 q 35 882 93 879 l 35 926 l 546 926 l 574 696 l 533 696 q 484 840 513 803 q 393 878 456 878 l 264 878 l 264 506 l 386 506 q 435 526 421 506 q 451 601 449 546 l 453 621 l 493 621 l 493 342 l 453 342 q 437 434 450 411 q 385 457 424 457 l 264 457 l 264 125 q 278 64 264 79 q 332 49 292 49 l 382 49 q 481 89 453 49 q 544 244 524 147 l 585 244 m 385 1004 l 328 1004 l 86 1190 l 268 1190 l 385 1004 z "},"É":{"ha":636,"x_min":35,"x_max":585,"o":"m 585 244 l 553 0 l 35 0 l 35 44 q 110 65 94 47 q 126 140 126 82 l 126 786 q 110 862 126 844 q 35 882 93 879 l 35 926 l 546 926 l 574 696 l 533 696 q 484 840 513 803 q 393 878 456 878 l 264 878 l 264 506 l 386 506 q 435 526 421 506 q 451 601 449 546 l 453 621 l 493 621 l 493 342 l 453 342 q 437 434 450 411 q 385 457 424 457 l 264 457 l 264 125 q 278 64 264 79 q 332 49 292 49 l 382 49 q 481 89 453 49 q 544 244 524 147 l 585 244 m 278 1004 l 394 1190 l 578 1190 l 336 1004 l 278 1004 z "},"Ê":{"ha":636,"x_min":35,"x_max":585,"o":"m 585 244 l 553 0 l 35 0 l 35 44 q 110 65 94 47 q 126 140 126 82 l 126 786 q 110 862 126 844 q 35 882 93 879 l 35 926 l 546 926 l 574 696 l 533 696 q 484 840 513 803 q 393 878 456 878 l 264 878 l 264 506 l 386 506 q 435 526 421 506 q 451 601 449 546 l 453 621 l 493 621 l 493 342 l 453 342 q 437 434 450 411 q 385 457 424 457 l 264 457 l 264 125 q 278 64 264 79 q 332 49 292 49 l 382 49 q 481 89 453 49 q 544 244 524 147 l 585 244 m 122 1004 l 286 1194 l 333 1194 l 497 1004 l 436 1004 l 310 1089 l 183 1004 l 122 1004 z "},"Ë":{"ha":636,"x_min":35,"x_max":585,"o":"m 585 244 l 553 0 l 35 0 l 35 44 q 110 65 94 47 q 126 140 126 82 l 126 786 q 110 862 126 844 q 35 882 93 879 l 35 926 l 546 926 l 574 696 l 533 696 q 484 840 513 803 q 393 878 456 878 l 264 878 l 264 506 l 386 506 q 435 526 421 506 q 451 601 449 546 l 453 621 l 493 621 l 493 342 l 453 342 q 437 434 450 411 q 385 457 424 457 l 264 457 l 264 125 q 278 64 264 79 q 332 49 292 49 l 382 49 q 481 89 453 49 q 544 244 524 147 l 585 244 m 207 1175 q 263 1151 239 1175 q 286 1096 286 1128 q 263 1039 286 1063 q 206 1015 239 1015 q 150 1039 174 1015 q 126 1096 126 1063 q 150 1152 126 1129 q 207 1175 174 1175 m 419 1175 q 475 1151 451 1175 q 499 1096 499 1128 q 475 1039 499 1063 q 419 1015 451 1015 q 363 1039 386 1015 q 339 1094 339 1063 q 363 1152 339 1129 q 419 1175 386 1175 z "},"Ì":{"ha":389,"x_min":-29,"x_max":354,"o":"m 354 40 l 354 -4 q 193 6 256 6 q 33 -4 132 6 l 33 40 q 109 61 93 44 q 125 136 125 78 l 125 790 q 108 867 125 850 q 33 886 92 883 l 33 931 q 193 921 132 921 q 354 931 256 921 l 354 886 q 278 867 294 885 q 263 790 263 850 l 263 136 q 278 60 263 78 q 354 40 294 43 m 269 1004 l 213 1004 l -29 1190 l 153 1190 l 269 1004 z "},"Í":{"ha":389,"x_min":35,"x_max":463,"o":"m 356 40 l 356 -4 q 194 6 257 6 q 35 -4 133 6 l 35 40 q 110 61 94 44 q 126 136 126 78 l 126 790 q 110 867 126 850 q 35 886 93 883 l 35 931 q 194 921 133 921 q 356 931 257 921 l 356 886 q 280 867 296 885 q 264 790 264 850 l 264 136 q 280 60 264 78 q 356 40 296 43 m 164 1004 l 281 1190 l 463 1190 l 221 1004 l 164 1004 z "},"Î":{"ha":389,"x_min":8,"x_max":382,"o":"m 356 40 l 356 -4 q 194 6 257 6 q 35 -4 133 6 l 35 40 q 110 61 94 44 q 126 136 126 78 l 126 790 q 110 867 126 850 q 35 886 93 883 l 35 931 q 194 921 133 921 q 356 931 257 921 l 356 886 q 280 867 296 885 q 264 790 264 850 l 264 136 q 280 60 264 78 q 356 40 296 43 m 8 1004 l 172 1194 l 218 1194 l 382 1004 l 322 1004 l 196 1089 l 68 1004 l 8 1004 z "},"Ï":{"ha":389,"x_min":15,"x_max":381,"o":"m 356 40 l 356 -4 q 194 6 257 6 q 35 -4 133 6 l 35 40 q 110 61 94 44 q 126 136 126 78 l 126 790 q 110 867 126 850 q 35 886 93 883 l 35 931 q 194 921 133 921 q 356 931 257 921 l 356 886 q 280 867 296 885 q 264 790 264 850 l 264 136 q 280 60 264 78 q 356 40 296 43 m 96 1175 q 151 1151 128 1175 q 175 1096 175 1128 q 151 1039 175 1063 q 96 1015 128 1015 q 39 1039 63 1015 q 15 1094 15 1063 q 39 1152 15 1129 q 96 1175 63 1175 m 301 1175 q 357 1151 333 1175 q 381 1096 381 1128 q 357 1039 381 1063 q 301 1015 333 1015 q 244 1039 268 1015 q 221 1096 221 1063 q 244 1152 221 1129 q 301 1175 268 1175 z "},"Ð":{"ha":729,"x_min":32,"x_max":678,"o":"m 125 458 l 32 458 l 32 513 l 125 513 l 125 786 q 109 862 125 844 q 35 882 93 879 l 35 926 l 331 926 q 492 888 426 926 q 606 767 558 849 q 678 467 678 639 q 642 243 678 349 q 546 81 606 138 q 308 0 458 0 l 35 0 l 35 44 q 109 65 93 47 q 125 139 125 82 l 125 458 m 263 458 l 263 114 q 274 60 263 74 q 319 47 285 47 q 482 149 431 47 q 533 472 533 251 q 482 780 533 682 q 319 878 431 878 l 263 878 l 263 513 l 399 513 l 399 458 l 263 458 z "},"Ñ":{"ha":765,"x_min":33,"x_max":735,"o":"m 642 -25 l 615 -25 q 490 207 563 81 l 175 760 l 175 136 q 191 61 175 78 q 268 40 207 44 l 268 -4 q 149 1 197 1 q 35 -4 101 1 l 35 40 q 111 60 96 44 q 126 136 126 76 l 126 838 q 85 874 106 864 q 33 886 65 883 l 33 931 q 135 926 97 926 q 236 931 171 926 l 593 306 l 593 790 q 577 867 593 850 q 501 886 561 885 l 501 931 q 619 925 572 925 q 735 931 667 925 l 735 886 q 658 867 675 885 q 642 790 642 850 l 642 -25 m 250 1019 l 207 1031 q 257 1147 229 1114 q 329 1181 285 1181 q 418 1139 371 1181 q 474 1108 456 1108 q 507 1124 493 1108 q 535 1178 521 1139 l 578 1167 q 456 1014 543 1014 q 417 1022 433 1014 q 356 1065 401 1031 q 313 1086 331 1086 q 250 1019 272 1086 z "},"Ò":{"ha":732,"x_min":51,"x_max":682,"o":"m 367 947 q 487 919 429 947 q 581 840 544 890 q 682 450 682 704 q 644 215 682 326 q 546 49 606 103 q 367 -21 468 -21 q 164 71 247 -21 q 82 234 113 128 q 51 460 51 340 q 137 815 51 683 q 367 947 222 947 m 371 906 q 240 790 285 906 q 196 454 196 675 q 240 133 196 246 q 367 21 285 21 q 538 456 538 21 q 479 831 538 729 q 371 906 436 906 m 442 1004 l 385 1004 l 143 1190 l 325 1190 l 442 1004 z "},"Ó":{"ha":732,"x_min":51,"x_max":682,"o":"m 367 947 q 487 919 429 947 q 581 840 544 890 q 682 450 682 704 q 644 215 682 326 q 546 49 606 103 q 367 -21 468 -21 q 164 71 247 -21 q 82 234 113 128 q 51 460 51 340 q 137 815 51 683 q 367 947 222 947 m 371 906 q 240 790 285 906 q 196 454 196 675 q 240 133 196 246 q 367 21 285 21 q 538 456 538 21 q 479 831 538 729 q 371 906 436 906 m 335 1004 l 451 1190 l 633 1190 l 393 1004 l 335 1004 z "},"Ô":{"ha":732,"x_min":51,"x_max":682,"o":"m 367 947 q 487 919 429 947 q 581 840 544 890 q 682 450 682 704 q 644 215 682 326 q 546 49 606 103 q 367 -21 468 -21 q 164 71 247 -21 q 82 234 113 128 q 51 460 51 340 q 137 815 51 683 q 367 947 222 947 m 371 906 q 240 790 285 906 q 196 454 196 675 q 240 133 196 246 q 367 21 285 21 q 538 456 538 21 q 479 831 538 729 q 371 906 436 906 m 179 1004 l 343 1194 l 390 1194 l 554 1004 l 493 1004 l 367 1089 l 240 1004 l 179 1004 z "},"Õ":{"ha":732,"x_min":51,"x_max":682,"o":"m 367 947 q 487 919 429 947 q 581 840 544 890 q 682 450 682 704 q 644 215 682 326 q 546 49 606 103 q 367 -21 468 -21 q 164 71 247 -21 q 82 234 113 128 q 51 460 51 340 q 137 815 51 683 q 367 947 222 947 m 371 906 q 240 790 285 906 q 196 454 196 675 q 240 133 196 246 q 367 21 285 21 q 538 456 538 21 q 479 831 538 729 q 371 906 436 906 m 224 1019 l 182 1031 q 232 1147 206 1114 q 303 1181 258 1181 q 393 1139 346 1181 q 449 1108 429 1108 q 481 1124 468 1108 q 508 1178 494 1139 l 551 1167 q 429 1014 519 1014 q 390 1022 407 1014 q 331 1065 374 1031 q 286 1086 304 1086 q 251 1071 265 1086 q 224 1019 238 1056 z "},"Ö":{"ha":732,"x_min":51,"x_max":682,"o":"m 367 947 q 487 919 429 947 q 581 840 544 890 q 682 450 682 704 q 644 215 682 326 q 546 49 606 103 q 367 -21 468 -21 q 164 71 247 -21 q 82 234 113 128 q 51 460 51 340 q 137 815 51 683 q 367 947 222 947 m 371 906 q 240 790 285 906 q 196 454 196 675 q 240 133 196 246 q 367 21 285 21 q 538 456 538 21 q 479 831 538 729 q 371 906 436 906 m 264 1175 q 319 1151 296 1175 q 343 1096 343 1128 q 319 1039 343 1063 q 263 1015 296 1015 q 207 1039 231 1015 q 183 1096 183 1063 q 207 1152 183 1129 q 264 1175 231 1175 m 475 1175 q 531 1151 507 1175 q 554 1096 554 1128 q 531 1039 554 1063 q 475 1015 507 1015 q 418 1039 442 1015 q 394 1094 394 1063 q 418 1152 394 1129 q 475 1175 442 1175 z "},"×":{"ha":603,"x_min":76,"x_max":522,"o":"m 76 669 l 150 735 l 299 546 l 449 735 l 522 669 l 363 467 l 522 265 l 449 200 l 300 388 l 151 200 l 78 265 l 236 467 l 76 669 z "},"Ø":{"ha":732,"x_min":32,"x_max":703,"o":"m 703 926 l 614 790 q 682 467 682 649 q 597 111 682 243 q 365 -21 511 -21 q 150 89 235 -21 l 90 0 l 32 0 l 121 135 q 51 463 51 267 q 138 815 51 683 q 367 947 224 947 q 583 836 500 947 l 643 926 l 703 926 m 526 661 l 221 196 q 275 67 236 113 q 368 21 314 21 q 494 133 449 21 q 539 449 539 246 q 526 661 539 544 m 208 265 l 514 732 q 460 860 497 815 q 371 906 422 906 q 240 790 286 906 q 194 457 194 674 q 208 265 194 354 z "},"Ù":{"ha":763,"x_min":28,"x_max":733,"o":"m 500 886 l 500 931 q 618 925 572 925 q 733 931 665 925 l 733 886 q 658 867 675 883 q 642 790 642 850 l 642 313 q 599 103 642 178 q 382 -15 531 -15 q 160 107 229 -15 q 119 301 119 178 l 119 790 q 103 867 119 850 q 28 886 86 883 l 28 931 q 189 921 126 921 q 349 931 250 921 l 349 886 q 273 867 289 885 q 257 790 257 850 l 257 276 q 285 129 257 175 q 415 58 328 58 q 499 81 460 58 q 558 139 539 103 q 593 317 593 199 l 593 790 q 576 867 593 850 q 500 886 560 883 m 461 1004 l 403 1004 l 161 1190 l 344 1190 l 461 1004 z "},"Ú":{"ha":763,"x_min":28,"x_max":733,"o":"m 500 886 l 500 931 q 618 925 572 925 q 733 931 665 925 l 733 886 q 658 867 675 883 q 642 790 642 850 l 642 313 q 599 103 642 178 q 382 -15 531 -15 q 160 107 229 -15 q 119 301 119 178 l 119 790 q 103 867 119 850 q 28 886 86 883 l 28 931 q 189 921 126 921 q 349 931 250 921 l 349 886 q 273 867 289 885 q 257 790 257 850 l 257 276 q 285 129 257 175 q 415 58 328 58 q 499 81 460 58 q 558 139 539 103 q 593 317 593 199 l 593 790 q 576 867 593 850 q 500 886 560 883 m 364 1004 l 481 1190 l 663 1190 l 422 1004 l 364 1004 z "},"Û":{"ha":763,"x_min":28,"x_max":733,"o":"m 500 886 l 500 931 q 618 925 572 925 q 733 931 665 925 l 733 886 q 658 867 675 883 q 642 790 642 850 l 642 313 q 599 103 642 178 q 382 -15 531 -15 q 160 107 229 -15 q 119 301 119 178 l 119 790 q 103 867 119 850 q 28 886 86 883 l 28 931 q 189 921 126 921 q 349 931 250 921 l 349 886 q 273 867 289 885 q 257 790 257 850 l 257 276 q 285 129 257 175 q 415 58 328 58 q 499 81 460 58 q 558 139 539 103 q 593 317 593 199 l 593 790 q 576 867 593 850 q 500 886 560 883 m 222 1004 l 385 1194 l 432 1194 l 596 1004 l 536 1004 l 408 1089 l 282 1004 l 222 1004 z "},"Ü":{"ha":763,"x_min":28,"x_max":733,"o":"m 500 886 l 500 931 q 618 925 572 925 q 733 931 665 925 l 733 886 q 658 867 675 883 q 642 790 642 850 l 642 313 q 599 103 642 178 q 382 -15 531 -15 q 160 107 229 -15 q 119 301 119 178 l 119 790 q 103 867 119 850 q 28 886 86 883 l 28 931 q 189 921 126 921 q 349 931 250 921 l 349 886 q 273 867 289 885 q 257 790 257 850 l 257 276 q 285 129 257 175 q 415 58 328 58 q 499 81 460 58 q 558 139 539 103 q 593 317 593 199 l 593 790 q 576 867 593 850 q 500 886 560 883 m 308 1175 q 364 1151 340 1175 q 388 1096 388 1128 q 364 1039 388 1063 q 307 1015 340 1015 q 251 1039 275 1015 q 228 1096 228 1063 q 251 1152 228 1129 q 308 1175 275 1175 m 519 1175 q 575 1151 551 1175 q 599 1096 599 1128 q 575 1039 599 1063 q 519 1015 551 1015 q 463 1039 486 1015 q 439 1094 439 1063 q 463 1152 439 1129 q 519 1175 486 1175 z "},"Ý":{"ha":686,"x_min":19,"x_max":672,"o":"m 183 -4 l 183 40 q 259 60 243 43 q 275 136 275 76 l 275 401 l 126 786 q 83 862 104 842 q 19 886 61 882 l 19 931 q 175 921 106 921 q 332 931 244 921 l 332 886 q 274 875 290 883 q 257 849 257 867 q 269 796 257 829 l 392 475 l 513 790 q 529 851 529 828 q 457 886 529 882 l 457 931 q 565 925 522 925 q 672 931 610 925 l 672 886 q 608 865 628 881 q 569 804 588 850 l 413 401 l 413 136 q 428 60 413 76 q 504 40 444 43 l 504 -4 q 344 6 406 6 q 183 -4 285 6 m 333 1004 l 450 1190 l 633 1190 l 392 1004 l 333 1004 z "},"Þ":{"ha":642,"x_min":35,"x_max":607,"o":"m 356 931 l 356 886 q 281 867 297 885 q 264 790 264 849 l 264 767 l 344 767 q 496 736 443 767 q 576 643 546 706 q 607 507 607 581 q 528 301 607 376 q 358 244 467 244 l 264 244 l 264 131 q 281 60 264 76 q 356 40 297 43 l 356 -4 q 194 6 257 6 q 35 -4 133 6 l 35 40 q 110 61 94 44 q 126 136 126 78 l 126 790 q 110 867 126 849 q 35 886 93 885 l 35 931 q 194 921 133 921 q 356 931 257 921 m 264 293 l 310 293 q 467 506 467 293 q 452 611 467 561 q 414 685 438 661 q 314 718 381 718 l 264 718 l 264 293 z "},"ß":{"ha":596,"x_min":25,"x_max":554,"o":"m 269 485 l 269 526 q 354 576 328 531 q 381 717 381 621 q 306 897 381 897 q 235 750 235 897 l 235 -3 q 175 -1 218 -1 q 25 -4 64 -1 l 25 31 q 90 47 78 33 q 103 111 103 60 l 103 660 q 139 838 103 774 q 210 908 165 882 q 307 935 256 935 q 447 872 392 935 q 503 714 503 808 q 382 514 503 581 q 475 460 443 492 q 554 243 554 385 q 502 60 554 133 q 372 -12 450 -12 q 283 21 328 -12 l 283 64 q 333 44 311 44 q 400 93 376 44 q 424 228 424 142 q 387 417 424 356 q 269 485 350 479 z "},"à":{"ha":546,"x_min":39,"x_max":524,"o":"m 524 40 l 524 1 q 444 -12 478 -12 q 336 82 358 -12 q 199 -14 286 -14 q 83 35 126 -14 q 39 165 39 85 q 119 331 39 274 q 322 408 201 386 l 322 504 q 249 628 322 628 q 200 609 221 628 q 179 565 179 590 q 181 536 179 547 q 182 507 182 525 q 165 459 182 476 q 121 442 149 442 q 72 499 72 442 q 128 620 72 571 q 265 669 185 669 q 428 579 379 669 q 454 400 454 531 l 454 140 q 463 56 454 79 q 494 33 472 33 q 524 40 506 33 m 322 242 l 322 371 q 206 305 240 347 q 172 182 172 263 q 192 90 172 124 q 243 56 211 56 q 300 92 279 56 q 322 242 322 135 m 311 764 l 254 764 l 56 961 l 222 961 l 311 764 z "},"á":{"ha":546,"x_min":39,"x_max":524,"o":"m 524 40 l 524 1 q 444 -12 478 -12 q 336 82 358 -12 q 199 -14 286 -14 q 83 35 126 -14 q 39 165 39 85 q 119 331 39 274 q 322 408 201 386 l 322 504 q 249 628 322 628 q 200 609 221 628 q 179 565 179 590 q 181 536 179 547 q 182 507 182 525 q 165 459 182 476 q 121 442 149 442 q 72 499 72 442 q 128 620 72 571 q 265 669 185 669 q 428 579 379 669 q 454 400 454 531 l 454 140 q 463 56 454 79 q 494 33 472 33 q 524 40 506 33 m 322 242 l 322 371 q 206 305 240 347 q 172 182 172 263 q 192 90 172 124 q 243 56 211 56 q 300 92 279 56 q 322 242 322 135 m 228 764 l 317 961 l 483 961 l 285 764 l 228 764 z "},"â":{"ha":546,"x_min":39,"x_max":524,"o":"m 524 40 l 524 1 q 444 -12 478 -12 q 336 82 358 -12 q 199 -14 286 -14 q 83 35 126 -14 q 39 165 39 85 q 119 331 39 274 q 322 408 201 386 l 322 504 q 249 628 322 628 q 200 609 221 628 q 179 565 179 590 q 181 536 179 547 q 182 507 182 525 q 165 459 182 476 q 121 442 149 442 q 72 499 72 442 q 128 620 72 571 q 265 669 185 669 q 428 579 379 669 q 454 400 454 531 l 454 140 q 463 56 454 79 q 494 33 472 33 q 524 40 506 33 m 322 242 l 322 371 q 206 305 240 347 q 172 182 172 263 q 192 90 172 124 q 243 56 211 56 q 300 92 279 56 q 322 242 322 135 m 101 764 l 257 963 l 304 963 l 461 764 l 403 764 l 281 849 l 160 764 l 101 764 z "},"ã":{"ha":546,"x_min":39,"x_max":524,"o":"m 524 40 l 524 1 q 444 -12 478 -12 q 336 82 358 -12 q 199 -14 286 -14 q 83 35 126 -14 q 39 165 39 85 q 119 331 39 274 q 322 408 201 386 l 322 504 q 249 628 322 628 q 200 609 221 628 q 179 565 179 590 q 181 536 179 547 q 182 507 182 525 q 165 459 182 476 q 121 442 149 442 q 72 499 72 442 q 128 620 72 571 q 265 669 185 669 q 428 579 379 669 q 454 400 454 531 l 454 140 q 463 56 454 79 q 494 33 472 33 q 524 40 506 33 m 322 242 l 322 371 q 206 305 240 347 q 172 182 172 263 q 192 90 172 124 q 243 56 211 56 q 300 92 279 56 q 322 242 322 135 m 131 778 l 89 789 q 138 903 113 871 q 208 935 164 935 q 296 894 247 935 q 350 864 332 864 q 382 878 369 864 q 410 932 394 893 l 451 922 q 332 771 421 771 q 293 780 310 771 q 235 822 276 789 q 192 843 210 843 q 157 828 171 843 q 131 778 143 814 z "},"ä":{"ha":546,"x_min":39,"x_max":524,"o":"m 524 40 l 524 1 q 444 -12 478 -12 q 336 82 358 -12 q 199 -14 286 -14 q 83 35 126 -14 q 39 165 39 85 q 119 331 39 274 q 322 408 201 386 l 322 504 q 249 628 322 628 q 200 609 221 628 q 179 565 179 590 q 181 536 179 547 q 182 507 182 525 q 165 459 182 476 q 121 442 149 442 q 72 499 72 442 q 128 620 72 571 q 265 669 185 669 q 428 579 379 669 q 454 400 454 531 l 454 140 q 463 56 454 79 q 494 33 472 33 q 524 40 506 33 m 322 242 l 322 371 q 206 305 240 347 q 172 182 172 263 q 192 90 172 124 q 243 56 211 56 q 300 92 279 56 q 322 242 322 135 m 169 939 q 224 916 201 939 q 247 861 247 893 q 224 805 247 828 q 169 782 201 782 q 113 805 136 782 q 90 861 90 828 q 113 916 90 893 q 169 939 136 939 m 374 939 q 428 916 406 939 q 451 861 451 893 q 428 805 451 828 q 374 782 406 782 q 317 805 340 782 q 294 861 294 828 q 317 916 294 893 q 374 939 340 939 z "},"å":{"ha":546,"x_min":39,"x_max":524,"o":"m 524 40 l 524 1 q 444 -12 478 -12 q 336 82 358 -12 q 199 -14 286 -14 q 83 35 126 -14 q 39 165 39 85 q 119 331 39 274 q 322 408 201 386 l 322 504 q 249 628 322 628 q 200 609 221 628 q 179 565 179 590 q 181 536 179 547 q 182 507 182 525 q 165 459 182 476 q 121 442 149 442 q 72 499 72 442 q 128 620 72 571 q 265 669 185 669 q 428 579 379 669 q 454 400 454 531 l 454 140 q 463 56 454 79 q 494 33 472 33 q 524 40 506 33 m 322 242 l 322 371 q 206 305 240 347 q 172 182 172 263 q 192 90 172 124 q 243 56 211 56 q 300 92 279 56 q 322 242 322 135 m 276 989 q 357 955 324 989 q 390 872 390 921 q 356 790 390 824 q 275 756 322 756 q 194 790 228 756 q 160 872 160 824 q 194 955 160 921 q 276 989 228 989 m 276 935 q 232 917 250 935 q 214 872 214 899 q 232 828 214 846 q 275 810 250 810 q 318 828 300 810 q 336 872 336 846 q 318 916 336 897 q 276 935 300 935 z "},"æ":{"ha":813,"x_min":39,"x_max":771,"o":"m 721 210 l 771 210 q 703 44 757 103 q 561 -14 649 -14 q 361 129 428 -14 q 296 20 335 54 q 199 -14 257 -14 q 83 35 128 -14 q 39 161 39 83 q 126 324 39 267 q 325 386 208 376 l 325 504 q 249 628 325 628 q 199 609 219 628 q 178 564 178 590 q 179 539 178 554 q 182 510 182 526 q 121 443 182 443 q 72 500 72 443 q 128 620 72 571 q 265 669 185 669 q 408 604 356 669 q 554 669 469 669 q 744 515 692 669 q 771 336 767 447 l 460 336 q 491 106 463 174 q 588 38 519 38 q 676 83 642 38 q 721 210 710 128 m 461 388 l 638 388 q 553 629 633 629 q 461 388 471 629 m 325 242 l 325 339 q 207 286 242 324 q 172 175 172 249 q 192 89 172 122 q 243 56 211 56 q 301 93 281 56 q 325 242 325 135 z "},"ç":{"ha":510,"x_min":47,"x_max":467,"o":"m 294 -17 l 268 -75 q 372 -172 372 -81 q 341 -247 372 -218 q 261 -276 310 -276 q 171 -253 218 -276 l 171 -207 q 228 -219 207 -219 q 261 -206 249 -219 q 274 -168 274 -192 q 256 -124 274 -140 q 207 -108 238 -108 l 206 -108 l 200 -108 l 243 -14 q 101 93 154 1 q 47 324 47 185 q 113 576 47 478 q 281 674 178 674 q 404 613 356 674 l 432 685 l 457 685 l 457 438 l 421 438 q 301 632 396 632 q 183 324 183 632 q 297 35 183 35 q 374 81 344 35 q 414 213 404 126 l 467 213 q 411 50 456 110 q 294 -17 367 -10 z "},"è":{"ha":529,"x_min":42,"x_max":488,"o":"m 438 210 l 488 210 q 420 42 474 101 q 281 -17 367 -17 q 106 77 171 -17 q 42 329 42 171 q 106 578 42 483 q 272 674 169 674 q 387 633 338 674 q 461 517 436 593 q 488 335 483 449 l 178 335 q 208 103 179 171 q 304 35 236 35 q 438 210 415 35 m 179 385 l 354 385 q 271 636 350 636 q 179 385 188 636 m 326 764 l 269 764 l 71 961 l 238 961 l 326 764 z "},"é":{"ha":529,"x_min":42,"x_max":488,"o":"m 438 210 l 488 210 q 420 42 474 101 q 281 -17 367 -17 q 106 77 171 -17 q 42 329 42 171 q 106 578 42 483 q 272 674 169 674 q 387 633 338 674 q 461 517 436 593 q 488 335 483 449 l 178 335 q 208 103 179 171 q 304 35 236 35 q 438 210 415 35 m 179 385 l 354 385 q 271 636 350 636 q 179 385 188 636 m 231 764 l 319 961 l 486 961 l 288 764 l 231 764 z "},"ê":{"ha":529,"x_min":42,"x_max":488,"o":"m 438 210 l 488 210 q 420 42 474 101 q 281 -17 367 -17 q 106 77 171 -17 q 42 329 42 171 q 106 578 42 483 q 272 674 169 674 q 387 633 338 674 q 461 517 436 593 q 488 335 483 449 l 178 335 q 208 103 179 171 q 304 35 236 35 q 438 210 415 35 m 179 385 l 354 385 q 271 636 350 636 q 179 385 188 636 m 96 764 l 251 963 l 299 963 l 456 764 l 397 764 l 275 849 l 154 764 l 96 764 z "},"ë":{"ha":529,"x_min":42,"x_max":488,"o":"m 438 210 l 488 210 q 420 42 474 101 q 281 -17 367 -17 q 106 77 171 -17 q 42 329 42 171 q 106 578 42 483 q 272 674 169 674 q 387 633 338 674 q 461 517 436 593 q 488 335 483 449 l 178 335 q 208 103 179 171 q 304 35 236 35 q 438 210 415 35 m 179 385 l 354 385 q 271 636 350 636 q 179 385 188 636 m 174 939 q 228 916 206 939 q 251 861 251 893 q 228 805 251 828 q 174 782 206 782 q 117 805 140 782 q 94 861 94 828 q 117 916 94 893 q 174 939 140 939 m 376 939 q 431 916 408 939 q 454 861 454 893 q 431 805 454 828 q 376 782 408 782 q 320 805 343 782 q 297 861 297 828 q 320 916 297 893 q 376 939 343 939 z "},"ì":{"ha":350,"x_min":-10,"x_max":321,"o":"m 243 681 l 243 111 q 256 47 243 60 q 321 31 268 33 l 321 -4 q 176 4 243 4 q 33 -4 111 4 l 33 31 q 99 47 86 33 q 111 111 111 60 l 111 514 q 100 590 111 574 q 46 606 89 606 l 35 606 l 35 638 q 243 681 142 647 m 246 764 l 189 764 l -10 961 l 157 961 l 246 764 z "},"í":{"ha":350,"x_min":32,"x_max":376,"o":"m 242 681 l 242 111 q 254 47 242 60 q 319 31 267 33 l 319 -4 q 175 4 242 4 q 32 -4 110 4 l 32 31 q 97 47 85 33 q 110 111 110 60 l 110 514 q 99 590 110 574 q 44 606 88 606 l 33 606 l 33 638 q 242 681 140 647 m 121 764 l 210 961 l 376 961 l 178 764 l 121 764 z "},"î":{"ha":350,"x_min":1,"x_max":333,"o":"m 242 681 l 242 111 q 254 47 242 60 q 319 31 267 33 l 319 -4 q 175 4 242 4 q 32 -4 110 4 l 32 31 q 97 47 85 33 q 110 111 110 60 l 110 514 q 99 590 110 574 q 44 606 88 606 l 33 606 l 33 638 q 242 681 140 647 m 1 764 l 143 963 l 190 963 l 333 764 l 275 764 l 167 849 l 60 764 l 1 764 z "},"ï":{"ha":350,"x_min":8,"x_max":344,"o":"m 243 681 l 243 111 q 256 47 243 60 q 321 31 268 33 l 321 -4 q 176 4 243 4 q 32 -4 113 4 l 32 31 q 98 47 85 33 q 111 111 111 60 l 111 514 q 99 590 111 574 q 44 606 88 606 l 33 606 l 33 638 q 243 681 139 647 m 30 924 q 41 936 30 924 q 82 949 51 949 q 135 924 113 949 q 157 865 157 900 q 135 806 157 831 q 83 781 114 781 q 31 805 53 781 q 8 863 8 829 q 30 924 8 899 m 219 924 q 230 936 219 924 q 271 949 240 949 q 323 924 301 949 q 344 865 344 900 q 323 806 344 831 q 271 781 301 781 q 219 805 240 781 q 197 863 197 829 q 219 924 197 899 z "},"ð":{"ha":549,"x_min":42,"x_max":507,"o":"m 390 869 l 303 807 q 467 535 426 631 q 507 326 507 440 q 442 78 507 174 q 274 -17 378 -17 q 106 78 169 -17 q 42 328 42 172 q 105 576 42 479 q 267 672 168 672 q 307 665 283 672 q 253 769 289 703 l 169 708 l 144 749 l 231 815 l 165 921 l 197 946 l 274 846 l 364 911 l 390 869 m 275 636 q 178 324 178 636 q 274 21 178 21 q 371 306 371 21 q 349 558 371 481 q 275 636 326 636 z "},"ñ":{"ha":646,"x_min":32,"x_max":621,"o":"m 32 603 l 32 635 q 208 675 143 650 q 225 571 224 624 q 378 669 282 669 q 501 610 458 669 q 543 439 543 551 l 543 111 q 556 47 543 60 q 621 31 568 33 l 621 -4 q 486 4 553 4 q 354 -4 415 4 l 354 29 q 400 47 389 32 q 411 106 411 61 l 411 454 q 392 565 411 531 q 333 600 374 600 q 242 450 242 600 l 242 106 q 253 46 242 61 q 300 29 264 31 l 300 -4 q 167 4 236 4 q 32 -4 100 4 l 32 31 q 97 47 85 33 q 110 111 110 60 l 110 508 q 99 588 110 572 q 42 603 88 603 l 32 603 m 186 778 l 144 789 q 194 903 168 871 q 264 935 221 935 q 353 894 304 935 q 407 864 389 864 q 440 878 426 864 q 467 932 453 893 l 508 922 q 389 771 475 771 q 350 780 367 771 q 292 822 333 789 q 249 843 265 843 q 214 828 228 843 q 186 778 200 814 z "},"ò":{"ha":549,"x_min":42,"x_max":507,"o":"m 278 674 q 425 606 365 674 q 484 486 461 564 q 507 326 507 408 q 442 78 507 174 q 274 -17 378 -17 q 106 78 169 -17 q 42 328 42 172 q 106 578 42 483 q 278 674 171 674 m 275 636 q 178 324 178 636 q 274 21 178 21 q 371 307 371 21 q 349 559 371 482 q 275 636 326 636 m 343 764 l 286 764 l 88 961 l 254 961 l 343 764 z "},"ó":{"ha":549,"x_min":42,"x_max":507,"o":"m 278 674 q 425 606 365 674 q 484 486 461 564 q 507 326 507 408 q 442 78 507 174 q 274 -17 378 -17 q 106 78 169 -17 q 42 328 42 172 q 106 578 42 483 q 278 674 171 674 m 275 636 q 178 324 178 636 q 274 21 178 21 q 371 307 371 21 q 349 559 371 482 q 275 636 326 636 m 232 764 l 321 961 l 488 961 l 289 764 l 232 764 z "},"ô":{"ha":549,"x_min":42,"x_max":507,"o":"m 278 674 q 425 606 365 674 q 484 486 461 564 q 507 326 507 408 q 442 78 507 174 q 274 -17 378 -17 q 106 78 169 -17 q 42 328 42 172 q 106 578 42 483 q 278 674 171 674 m 275 636 q 178 324 178 636 q 274 21 178 21 q 371 307 371 21 q 349 559 371 482 q 275 636 326 636 m 94 764 l 250 963 l 297 963 l 454 764 l 396 764 l 274 849 l 153 764 l 94 764 z "},"õ":{"ha":549,"x_min":42,"x_max":507,"o":"m 278 674 q 425 606 365 674 q 484 486 461 564 q 507 326 507 408 q 442 78 507 174 q 274 -17 378 -17 q 106 78 169 -17 q 42 328 42 172 q 106 578 42 483 q 278 674 171 674 m 275 636 q 178 324 178 636 q 274 21 178 21 q 371 307 371 21 q 349 559 371 482 q 275 636 326 636 m 133 778 l 93 789 q 142 903 117 871 q 213 935 168 935 q 300 894 251 935 q 354 864 336 864 q 386 878 374 864 q 414 932 399 893 l 456 922 q 336 771 425 771 q 297 780 314 771 q 239 822 281 789 q 196 843 214 843 q 161 828 175 843 q 133 778 147 814 z "},"ö":{"ha":549,"x_min":42,"x_max":507,"o":"m 278 674 q 425 606 365 674 q 484 486 461 564 q 507 326 507 408 q 442 78 507 174 q 274 -17 378 -17 q 106 78 169 -17 q 42 328 42 172 q 106 578 42 483 q 278 674 171 674 m 275 636 q 178 324 178 636 q 274 21 178 21 q 371 307 371 21 q 349 559 371 482 q 275 636 326 636 m 176 939 q 231 916 208 939 q 254 861 254 893 q 231 805 254 828 q 176 782 208 782 q 120 805 143 782 q 97 861 97 828 q 120 916 97 893 q 176 939 143 939 m 379 939 q 434 916 411 939 q 457 861 457 893 q 434 805 457 828 q 379 782 411 782 q 323 805 346 782 q 300 861 300 828 q 323 916 300 893 q 379 939 346 939 z "},"÷":{"ha":599,"x_min":57,"x_max":542,"o":"m 300 765 q 359 741 335 765 q 383 682 383 717 q 358 622 383 647 q 299 597 333 597 q 240 622 264 597 q 215 681 215 646 q 240 741 215 717 q 300 765 264 765 m 301 339 q 359 315 335 339 q 383 256 383 290 q 358 195 383 219 q 299 171 333 171 q 240 196 264 171 q 215 256 215 221 q 240 315 215 290 q 301 339 265 339 m 57 417 l 57 519 l 542 519 l 542 417 l 57 417 z "},"ø":{"ha":549,"x_min":18,"x_max":529,"o":"m 529 669 l 456 558 q 507 324 507 456 q 442 78 507 172 q 274 -17 378 -17 q 121 58 182 -17 l 74 -12 l 18 -12 l 93 100 q 42 328 42 193 q 106 579 42 483 q 276 675 171 675 q 428 603 371 675 l 472 669 l 529 669 m 368 428 l 189 158 q 219 53 199 86 q 274 21 239 21 q 371 314 371 21 q 368 428 371 382 m 181 232 l 361 501 q 276 638 342 638 q 178 338 178 638 q 181 232 178 310 z "},"ù":{"ha":638,"x_min":18,"x_max":608,"o":"m 18 606 l 18 638 q 226 681 119 647 l 226 200 q 245 91 226 125 q 307 57 264 57 q 396 210 396 57 l 396 515 q 384 590 396 575 q 326 606 372 606 l 322 606 l 319 606 l 319 638 q 528 681 421 647 l 528 149 q 539 72 528 88 q 597 57 550 57 l 608 57 l 608 25 q 424 -19 497 11 q 413 89 413 36 q 349 12 383 35 q 263 -11 314 -11 q 94 217 94 -11 l 94 239 l 94 514 q 83 590 94 575 q 25 606 71 606 l 21 606 l 18 606 m 382 764 l 325 764 l 126 961 l 293 961 l 382 764 z "},"ú":{"ha":638,"x_min":18,"x_max":608,"o":"m 18 606 l 18 638 q 226 681 119 647 l 226 200 q 245 91 226 125 q 307 57 264 57 q 396 210 396 57 l 396 515 q 384 590 396 575 q 326 606 372 606 l 322 606 l 319 606 l 319 638 q 528 681 421 647 l 528 149 q 539 72 528 88 q 597 57 550 57 l 608 57 l 608 25 q 424 -19 497 11 q 413 89 413 36 q 349 12 383 35 q 263 -11 314 -11 q 94 217 94 -11 l 94 239 l 94 514 q 83 590 94 575 q 25 606 71 606 l 21 606 l 18 606 m 268 764 l 357 961 l 524 961 l 325 764 l 268 764 z "},"û":{"ha":638,"x_min":18,"x_max":608,"o":"m 18 606 l 18 638 q 226 681 119 647 l 226 200 q 245 91 226 125 q 307 57 264 57 q 396 210 396 57 l 396 515 q 384 590 396 575 q 326 606 372 606 l 322 606 l 319 606 l 319 638 q 528 681 421 647 l 528 149 q 539 72 528 88 q 597 57 550 57 l 608 57 l 608 25 q 424 -19 497 11 q 413 89 413 36 q 349 12 383 35 q 263 -11 314 -11 q 94 217 94 -11 l 94 239 l 94 514 q 83 590 94 575 q 25 606 71 606 l 21 606 l 18 606 m 133 764 l 289 963 l 336 963 l 493 764 l 435 764 l 313 849 l 192 764 l 133 764 z "},"ü":{"ha":638,"x_min":18,"x_max":608,"o":"m 18 606 l 18 638 q 226 681 119 647 l 226 200 q 245 91 226 125 q 307 57 264 57 q 396 210 396 57 l 396 515 q 384 590 396 575 q 326 606 372 606 l 322 606 l 319 606 l 319 638 q 528 681 421 647 l 528 149 q 539 72 528 88 q 597 57 550 57 l 608 57 l 608 25 q 424 -19 497 11 q 413 89 413 36 q 349 12 383 35 q 263 -11 314 -11 q 94 217 94 -11 l 94 239 l 94 514 q 83 590 94 575 q 25 606 71 606 l 21 606 l 18 606 m 215 939 q 270 916 247 939 q 293 861 293 893 q 270 805 293 828 q 215 782 247 782 q 159 805 182 782 q 136 861 136 828 q 159 916 136 893 q 215 939 182 939 m 418 939 q 473 916 450 939 q 496 861 496 893 q 473 805 496 828 q 418 782 450 782 q 362 805 385 782 q 339 861 339 828 q 362 916 339 893 q 418 939 385 939 z "},"ý":{"ha":571,"x_min":11,"x_max":564,"o":"m 261 19 l 97 543 q 64 606 81 590 q 11 625 47 622 l 11 660 q 146 653 82 653 q 281 660 211 653 l 281 625 q 224 597 224 621 q 233 556 224 583 l 328 221 l 431 546 q 442 597 442 583 q 382 625 442 624 l 382 660 q 469 654 431 654 q 564 660 510 654 l 564 625 q 513 603 531 621 q 478 536 496 585 l 268 -108 q 197 -236 239 -197 q 90 -275 156 -275 q 65 -274 76 -275 l 65 -199 q 86 -200 75 -200 q 168 -174 136 -200 q 222 -87 200 -147 l 261 19 m 290 764 l 379 961 l 546 961 l 347 764 l 290 764 z "},"þ":{"ha":604,"x_min":21,"x_max":563,"o":"m 328 631 q 229 333 229 631 q 332 25 229 25 q 426 313 426 25 q 388 589 426 522 q 328 631 364 631 m 308 -242 l 308 -276 q 164 -268 228 -268 q 21 -276 99 -268 l 21 -242 q 86 -226 74 -239 q 99 -161 99 -212 l 99 779 q 86 857 99 842 q 22 872 74 872 l 22 904 q 231 949 128 914 l 231 607 q 339 669 269 669 q 499 573 436 669 q 563 328 563 476 q 501 82 563 178 q 346 -14 440 -14 q 283 1 308 -14 q 231 51 258 15 l 231 -161 q 243 -226 231 -212 q 308 -242 256 -239 z "},"ÿ":{"ha":571,"x_min":11,"x_max":564,"o":"m 261 19 l 97 543 q 64 606 81 590 q 11 625 47 622 l 11 660 q 146 653 82 653 q 281 660 211 653 l 281 625 q 224 597 224 621 q 233 556 224 585 l 328 221 l 431 546 q 442 599 442 583 q 382 625 442 624 l 382 660 q 469 654 431 654 q 564 660 510 654 l 564 625 q 513 603 531 621 q 478 536 496 585 l 268 -108 q 197 -236 239 -197 q 90 -275 156 -275 q 65 -274 76 -275 l 65 -199 q 86 -200 75 -200 q 168 -174 136 -200 q 222 -87 200 -147 l 261 19 m 214 939 q 269 916 246 939 q 292 861 292 893 q 269 805 292 828 q 214 782 246 782 q 158 805 181 782 q 135 861 135 828 q 158 916 135 893 q 214 939 181 939 m 417 939 q 472 916 449 939 q 494 861 494 893 q 472 805 494 828 q 417 782 449 782 q 360 805 383 782 q 338 861 338 828 q 360 916 338 893 q 417 939 383 939 z "},"Ā":{"ha":744,"x_min":14,"x_max":731,"o":"m 217 257 l 183 146 q 169 81 169 106 q 187 51 169 61 q 246 40 204 42 l 246 -4 q 124 3 156 3 q 14 -4 81 3 l 14 40 q 88 65 67 43 q 135 163 108 86 l 385 958 l 624 132 q 660 61 640 78 q 731 40 679 44 l 731 -4 q 554 1 668 1 q 411 -4 485 1 l 411 40 q 469 51 451 43 q 486 78 486 60 q 478 129 486 96 l 446 257 l 217 257 m 232 308 l 433 308 l 340 661 l 232 308 m 200 1044 l 200 1124 l 575 1124 l 575 1044 l 200 1044 z "},"ā":{"ha":546,"x_min":39,"x_max":524,"o":"m 524 40 l 524 1 q 444 -12 478 -12 q 336 82 358 -12 q 199 -14 286 -14 q 83 35 126 -14 q 39 165 39 85 q 119 331 39 274 q 322 408 201 386 l 322 504 q 249 628 322 628 q 200 609 221 628 q 179 565 179 590 q 181 536 179 547 q 182 507 182 525 q 165 459 182 476 q 121 442 149 442 q 72 499 72 442 q 128 620 72 571 q 265 669 185 669 q 428 579 379 669 q 454 400 454 531 l 454 140 q 463 56 454 79 q 494 33 472 33 q 524 40 506 33 m 322 242 l 322 371 q 206 305 240 347 q 172 182 172 263 q 192 90 172 124 q 243 56 211 56 q 300 92 279 56 q 322 242 322 135 m 101 815 l 101 894 l 443 894 l 443 815 l 101 815 z "},"Ă":{"ha":744,"x_min":14,"x_max":731,"o":"m 217 257 l 183 146 q 169 81 169 106 q 187 51 169 61 q 246 40 204 42 l 246 -4 q 124 3 156 3 q 14 -4 81 3 l 14 40 q 88 65 67 43 q 135 163 108 86 l 385 958 l 624 132 q 660 61 640 78 q 731 40 679 44 l 731 -4 q 554 1 668 1 q 411 -4 485 1 l 411 40 q 469 51 451 43 q 486 78 486 60 q 478 129 486 96 l 446 257 l 217 257 m 232 308 l 433 308 l 340 661 l 232 308 m 226 1194 l 271 1194 q 318 1121 296 1139 q 385 1103 340 1103 q 451 1121 429 1103 q 497 1194 474 1139 l 542 1194 q 518 1090 536 1136 q 465 1026 501 1050 q 385 1001 429 1001 q 303 1026 340 1001 q 250 1090 267 1050 q 226 1194 233 1131 z "},"ă":{"ha":546,"x_min":39,"x_max":524,"o":"m 524 40 l 524 1 q 444 -12 478 -12 q 336 82 358 -12 q 199 -14 286 -14 q 83 35 126 -14 q 39 165 39 85 q 119 331 39 274 q 322 408 201 386 l 322 504 q 249 628 322 628 q 200 609 221 628 q 179 565 179 590 q 181 536 179 547 q 182 507 182 525 q 165 459 182 476 q 121 442 149 442 q 72 499 72 442 q 128 620 72 571 q 265 669 185 669 q 428 579 379 669 q 454 400 454 531 l 454 140 q 463 56 454 79 q 494 33 472 33 q 524 40 506 33 m 322 242 l 322 371 q 206 305 240 347 q 172 182 172 263 q 192 90 172 124 q 243 56 211 56 q 300 92 279 56 q 322 242 322 135 m 114 957 l 160 957 q 206 883 183 903 q 269 864 229 864 q 334 883 311 864 q 381 957 357 903 l 426 957 q 403 853 418 892 q 350 788 386 813 q 269 764 314 764 q 190 788 226 764 q 138 853 154 813 q 114 957 119 897 z "},"Ą":{"ha":744,"x_min":14,"x_max":731,"o":"m 731 -164 l 731 -211 q 635 -235 679 -235 q 554 -206 586 -235 q 522 -131 522 -176 q 643 0 522 -47 q 563 1 603 1 q 411 -4 483 1 l 411 40 q 469 51 451 43 q 486 78 486 60 q 478 129 486 96 l 446 257 l 217 257 l 183 146 q 169 81 169 106 q 187 51 169 61 q 246 40 204 42 l 246 -4 q 124 3 156 3 q 14 -4 81 3 l 14 40 q 88 65 67 43 q 135 163 108 86 l 385 958 l 624 132 q 660 61 640 78 q 731 40 679 44 l 731 -4 l 722 -4 q 624 -117 624 -57 q 638 -160 624 -143 q 674 -178 653 -178 q 731 -164 694 -178 m 232 308 l 433 308 l 340 661 l 232 308 z "},"ą":{"ha":546,"x_min":39,"x_max":524,"o":"m 524 -156 l 524 -201 q 446 -219 486 -219 q 367 -191 399 -219 q 336 -118 336 -162 q 424 -10 336 -57 q 336 82 353 0 q 199 -14 286 -14 q 83 35 126 -14 q 39 165 39 85 q 119 331 39 274 q 322 408 201 386 l 322 504 q 249 628 322 628 q 200 609 221 628 q 179 565 179 590 q 181 536 179 547 q 182 507 182 525 q 165 459 182 476 q 121 442 149 442 q 72 499 72 442 q 128 620 72 571 q 265 669 185 669 q 428 579 379 669 q 454 400 454 531 l 454 140 q 463 56 454 79 q 494 33 472 33 q 524 40 506 33 l 524 1 q 490 -21 506 -10 q 435 -107 435 -65 q 449 -147 435 -131 q 483 -164 463 -164 q 524 -156 504 -164 m 322 242 l 322 371 q 206 305 240 347 q 172 182 172 263 q 192 90 172 124 q 243 56 211 56 q 300 92 279 56 q 322 242 322 135 z "},"Ć":{"ha":700,"x_min":61,"x_max":639,"o":"m 582 324 l 629 324 q 554 73 625 167 q 367 -21 483 -21 q 145 109 229 -21 q 61 453 61 239 q 145 814 61 681 q 372 947 229 947 q 558 853 483 947 l 590 946 l 618 946 l 618 644 l 576 644 q 393 892 535 892 q 254 782 301 892 q 206 488 206 672 q 222 294 206 390 q 265 144 239 199 q 319 87 283 108 q 397 65 356 65 q 526 133 478 65 q 582 324 575 201 m 340 1004 l 457 1190 l 639 1190 l 397 1004 l 340 1004 z "},"ć":{"ha":510,"x_min":47,"x_max":488,"o":"m 457 685 l 457 438 l 421 438 q 301 632 396 632 q 183 324 183 632 q 297 35 183 35 q 374 81 344 35 q 414 213 404 126 l 467 213 q 406 42 454 101 q 276 -17 357 -17 q 110 78 174 -17 q 47 324 47 172 q 113 576 47 479 q 281 674 178 674 q 404 613 354 674 l 432 685 l 457 685 m 232 764 l 321 961 l 488 961 l 289 764 l 232 764 z "},"Ĉ":{"ha":700,"x_min":61,"x_max":629,"o":"m 582 324 l 629 324 q 554 73 625 167 q 367 -21 483 -21 q 145 109 229 -21 q 61 453 61 239 q 145 814 61 681 q 372 947 229 947 q 558 853 483 947 l 590 946 l 618 946 l 618 644 l 576 644 q 393 892 535 892 q 254 782 301 892 q 206 488 206 672 q 222 294 206 390 q 265 144 239 199 q 319 87 283 108 q 397 65 356 65 q 526 133 478 65 q 582 324 575 201 m 186 1004 l 350 1194 l 397 1194 l 561 1004 l 500 1004 l 374 1089 l 247 1004 l 186 1004 z "},"ĉ":{"ha":510,"x_min":47,"x_max":467,"o":"m 457 685 l 457 438 l 421 438 q 301 632 396 632 q 183 324 183 632 q 297 35 183 35 q 374 81 344 35 q 414 213 404 126 l 467 213 q 406 42 454 101 q 276 -17 357 -17 q 110 78 174 -17 q 47 324 47 172 q 113 576 47 479 q 281 674 178 674 q 404 613 354 674 l 432 685 l 457 685 m 100 764 l 256 963 l 303 963 l 460 764 l 401 764 l 279 849 l 158 764 l 100 764 z "},"Ċ":{"ha":700,"x_min":61,"x_max":629,"o":"m 582 324 l 629 324 q 554 73 625 167 q 367 -21 483 -21 q 145 109 229 -21 q 61 453 61 239 q 145 814 61 681 q 372 947 229 947 q 558 853 483 947 l 590 946 l 618 946 l 618 644 l 576 644 q 393 892 535 892 q 254 782 301 892 q 206 488 206 672 q 222 294 206 390 q 265 144 239 199 q 319 87 283 108 q 397 65 356 65 q 526 133 478 65 q 582 324 575 201 m 379 1175 q 435 1151 411 1175 q 458 1096 458 1128 q 435 1039 458 1063 q 378 1015 411 1015 q 322 1039 346 1015 q 299 1096 299 1063 q 322 1152 299 1129 q 379 1175 346 1175 z "},"ċ":{"ha":510,"x_min":47,"x_max":467,"o":"m 457 685 l 457 438 l 421 438 q 301 632 396 632 q 183 324 183 632 q 297 35 183 35 q 374 81 344 35 q 414 213 404 126 l 467 213 q 406 42 454 101 q 276 -17 357 -17 q 110 78 174 -17 q 47 324 47 172 q 113 576 47 479 q 281 674 178 674 q 404 613 354 674 l 432 685 l 457 685 m 285 938 q 342 913 318 938 q 367 854 367 889 q 342 795 367 819 q 283 771 318 771 q 224 795 249 771 q 200 854 200 819 q 224 913 200 889 q 285 938 249 938 z "},"Č":{"ha":700,"x_min":61,"x_max":629,"o":"m 582 324 l 629 324 q 554 73 625 167 q 367 -21 483 -21 q 145 109 229 -21 q 61 453 61 239 q 145 814 61 681 q 372 947 229 947 q 558 853 483 947 l 590 946 l 618 946 l 618 644 l 576 644 q 393 892 535 892 q 254 782 301 892 q 206 488 206 672 q 222 294 206 390 q 265 144 239 199 q 319 87 283 108 q 397 65 356 65 q 526 133 478 65 q 582 324 575 201 m 190 1194 l 251 1194 l 378 1110 l 504 1194 l 565 1194 l 401 1004 l 354 1004 l 190 1194 z "},"č":{"ha":510,"x_min":47,"x_max":467,"o":"m 457 685 l 457 438 l 421 438 q 301 632 396 632 q 183 324 183 632 q 297 35 183 35 q 374 81 344 35 q 414 213 404 126 l 467 213 q 406 42 454 101 q 276 -17 357 -17 q 110 78 174 -17 q 47 324 47 172 q 113 576 47 479 q 281 674 178 674 q 404 613 354 674 l 432 685 l 457 685 m 97 963 l 156 963 l 276 878 l 397 963 l 456 963 l 300 764 l 253 764 l 97 963 z "},"Ď":{"ha":729,"x_min":35,"x_max":678,"o":"m 35 882 l 35 926 l 332 926 q 606 767 514 926 q 678 468 678 639 q 642 244 678 350 q 546 81 606 138 q 310 0 458 0 l 35 0 l 35 44 q 110 65 94 47 q 126 140 126 82 l 126 786 q 110 862 126 844 q 35 882 93 879 m 264 878 l 264 114 q 275 60 264 74 q 319 47 286 47 q 482 149 431 47 q 533 472 533 251 q 482 780 533 682 q 321 878 431 878 l 264 878 m 143 1194 l 204 1194 l 331 1110 l 457 1194 l 518 1194 l 354 1004 l 307 1004 l 143 1194 z "},"ď":{"ha":686,"x_min":42,"x_max":696,"o":"m 586 56 l 586 24 q 404 -19 486 11 q 389 64 393 21 q 335 -4 365 17 q 263 -25 306 -25 q 103 72 165 -25 q 42 318 42 168 q 103 563 42 467 q 257 658 164 658 q 321 642 296 658 q 371 588 346 626 l 371 779 q 358 857 371 842 q 293 872 346 872 l 293 904 q 503 949 406 915 l 503 147 q 516 73 503 88 q 586 56 529 58 m 271 619 q 178 328 178 619 q 276 14 178 14 q 347 86 321 14 q 372 288 372 158 q 349 541 372 463 q 271 619 325 619 m 619 800 l 618 800 l 614 800 q 569 820 588 800 q 551 871 551 840 q 572 926 551 904 q 622 947 592 947 q 676 923 656 947 q 696 858 696 899 q 621 675 696 765 q 606 656 608 660 l 553 656 q 619 800 611 725 z "},"Đ":{"ha":729,"x_min":32,"x_max":678,"o":"m 125 458 l 32 458 l 32 513 l 125 513 l 125 786 q 109 862 125 844 q 35 882 93 879 l 35 926 l 331 926 q 492 888 426 926 q 606 767 558 849 q 678 467 678 639 q 642 243 678 349 q 546 81 606 138 q 308 0 458 0 l 35 0 l 35 44 q 109 65 93 47 q 125 139 125 82 l 125 458 m 263 458 l 263 114 q 274 60 263 74 q 319 47 285 47 q 482 149 431 47 q 533 472 533 251 q 482 780 533 682 q 319 878 431 878 l 263 878 l 263 513 l 399 513 l 399 458 l 263 458 z "},"đ":{"ha":599,"x_min":42,"x_max":586,"o":"m 371 733 l 224 733 l 224 786 l 371 786 q 358 858 369 846 q 293 872 346 871 l 293 904 q 503 949 400 914 l 503 786 l 586 786 l 586 733 l 503 733 l 503 147 q 516 73 503 88 q 586 56 529 58 l 586 24 q 404 -19 486 11 q 389 64 393 21 q 263 -25 346 -25 q 104 72 167 -25 q 42 318 42 168 q 103 563 42 467 q 257 658 164 658 q 320 643 296 658 q 371 588 344 628 l 371 733 m 271 619 q 178 328 178 619 q 275 14 178 14 q 347 86 321 14 q 372 288 372 158 q 348 541 372 463 q 271 619 324 619 z "},"Ē":{"ha":636,"x_min":35,"x_max":585,"o":"m 585 244 l 553 0 l 35 0 l 35 44 q 110 65 94 47 q 126 140 126 82 l 126 786 q 110 862 126 844 q 35 882 93 879 l 35 926 l 546 926 l 574 696 l 533 696 q 484 840 513 803 q 393 878 456 878 l 264 878 l 264 506 l 386 506 q 435 526 421 506 q 451 601 449 546 l 453 621 l 493 621 l 493 342 l 453 342 q 437 434 450 411 q 385 457 424 457 l 264 457 l 264 125 q 278 64 264 79 q 332 49 292 49 l 382 49 q 481 89 453 49 q 544 244 524 147 l 585 244 m 122 1044 l 122 1124 l 497 1124 l 497 1044 l 122 1044 z "},"ē":{"ha":529,"x_min":42,"x_max":488,"o":"m 438 210 l 488 210 q 420 42 474 101 q 281 -17 367 -17 q 106 77 171 -17 q 42 329 42 171 q 106 578 42 483 q 272 674 169 674 q 387 633 338 674 q 461 517 436 593 q 488 335 483 449 l 178 335 q 208 103 179 171 q 304 35 236 35 q 438 210 415 35 m 179 385 l 354 385 q 271 636 350 636 q 179 385 188 636 m 96 815 l 96 894 l 444 894 l 444 815 l 96 815 z "},"Ĕ":{"ha":636,"x_min":35,"x_max":585,"o":"m 585 244 l 553 0 l 35 0 l 35 44 q 110 65 94 47 q 126 140 126 82 l 126 786 q 110 862 126 844 q 35 882 93 879 l 35 926 l 546 926 l 574 696 l 533 696 q 484 840 513 803 q 393 878 456 878 l 264 878 l 264 506 l 386 506 q 435 526 421 506 q 451 601 449 546 l 453 621 l 493 621 l 493 342 l 453 342 q 437 434 450 411 q 385 457 424 457 l 264 457 l 264 125 q 278 64 264 79 q 332 49 292 49 l 382 49 q 481 89 453 49 q 544 244 524 147 l 585 244 m 157 1194 l 201 1194 q 247 1121 225 1139 q 314 1103 269 1103 q 381 1121 358 1103 q 426 1194 403 1139 l 472 1194 q 449 1090 465 1131 q 394 1026 431 1050 q 314 1001 358 1001 q 233 1026 269 1001 q 181 1090 197 1050 q 157 1194 163 1131 z "},"ĕ":{"ha":529,"x_min":42,"x_max":488,"o":"m 438 210 l 488 210 q 420 42 474 101 q 281 -17 367 -17 q 106 77 171 -17 q 42 329 42 171 q 106 578 42 483 q 272 674 169 674 q 387 633 338 674 q 461 517 436 593 q 488 335 483 449 l 178 335 q 208 103 179 171 q 304 35 236 35 q 438 210 415 35 m 179 385 l 354 385 q 271 636 350 636 q 179 385 188 636 m 115 957 l 160 957 q 207 883 183 903 q 271 864 231 864 q 335 883 313 864 q 382 957 358 903 l 428 957 q 404 853 419 892 q 350 788 386 813 q 271 764 314 764 q 192 788 228 764 q 139 853 156 813 q 115 957 121 892 z "},"Ė":{"ha":636,"x_min":35,"x_max":585,"o":"m 585 244 l 553 0 l 35 0 l 35 44 q 110 65 94 47 q 126 140 126 82 l 126 786 q 110 862 126 844 q 35 882 93 879 l 35 926 l 546 926 l 574 696 l 533 696 q 484 840 513 803 q 393 878 456 878 l 264 878 l 264 506 l 386 506 q 435 526 421 506 q 451 601 449 546 l 453 621 l 493 621 l 493 342 l 453 342 q 437 434 450 411 q 385 457 424 457 l 264 457 l 264 125 q 278 64 264 79 q 332 49 292 49 l 382 49 q 481 89 453 49 q 544 244 524 147 l 585 244 m 322 1175 q 378 1151 354 1175 q 401 1096 401 1128 q 378 1039 401 1063 q 321 1015 354 1015 q 265 1039 289 1015 q 242 1096 242 1063 q 265 1152 242 1129 q 322 1175 289 1175 z "},"ė":{"ha":529,"x_min":42,"x_max":488,"o":"m 438 210 l 488 210 q 420 42 474 101 q 281 -17 367 -17 q 106 77 171 -17 q 42 329 42 171 q 106 578 42 483 q 272 674 169 674 q 387 633 338 674 q 461 517 436 593 q 488 335 483 449 l 178 335 q 208 103 179 171 q 304 35 236 35 q 438 210 415 35 m 179 385 l 354 385 q 271 636 350 636 q 179 385 188 636 m 276 938 q 334 913 310 938 q 358 854 358 889 q 334 795 358 819 q 275 771 310 771 q 216 795 240 771 q 192 854 192 819 q 216 913 192 889 q 276 938 240 938 z "},"Ę":{"ha":636,"x_min":35,"x_max":585,"o":"m 553 -164 l 553 -211 q 457 -235 501 -235 q 376 -206 408 -235 q 344 -131 344 -176 q 464 0 344 -54 l 35 0 l 35 44 q 110 65 94 47 q 126 140 126 82 l 126 786 q 110 862 126 844 q 35 882 93 879 l 35 926 l 546 926 l 572 696 l 533 696 q 484 840 513 803 q 393 878 456 878 l 264 878 l 264 506 l 386 506 q 435 526 421 506 q 451 601 449 546 l 453 621 l 493 621 l 493 342 l 453 342 q 437 434 450 411 q 385 457 424 457 l 264 457 l 264 125 q 278 64 264 79 q 332 49 292 49 l 382 49 q 481 89 453 49 q 544 244 522 143 l 585 244 l 553 0 q 446 -117 446 -47 q 460 -160 446 -143 q 496 -178 475 -178 q 553 -164 518 -178 z "},"ę":{"ha":529,"x_min":42,"x_max":488,"o":"m 451 -156 l 451 -201 q 375 -219 414 -219 q 296 -190 326 -219 q 265 -115 265 -161 q 333 -10 265 -57 q 281 -17 311 -17 q 106 77 171 -17 q 42 329 42 171 q 105 578 42 483 q 271 674 168 674 q 387 633 338 674 q 461 517 436 593 q 488 335 483 449 l 178 335 q 208 103 179 171 q 304 35 236 35 q 438 210 415 35 l 488 210 q 469 124 482 157 q 418 32 456 92 q 364 -107 364 -56 q 378 -147 364 -131 q 413 -164 392 -164 q 451 -156 432 -164 m 178 385 l 354 385 q 271 636 350 636 q 178 385 189 636 z "},"Ě":{"ha":636,"x_min":35,"x_max":585,"o":"m 585 244 l 553 0 l 35 0 l 35 44 q 110 65 94 47 q 126 140 126 82 l 126 786 q 110 862 126 844 q 35 882 93 879 l 35 926 l 546 926 l 574 696 l 533 696 q 484 840 513 803 q 393 878 456 878 l 264 878 l 264 506 l 386 506 q 435 526 421 506 q 451 601 449 546 l 453 621 l 493 621 l 493 342 l 453 342 q 437 434 450 411 q 385 457 424 457 l 264 457 l 264 125 q 278 64 264 79 q 332 49 292 49 l 382 49 q 481 89 453 49 q 544 244 524 147 l 585 244 m 122 1194 l 183 1194 l 310 1110 l 436 1194 l 497 1194 l 333 1004 l 286 1004 l 122 1194 z "},"ě":{"ha":529,"x_min":42,"x_max":488,"o":"m 438 210 l 488 210 q 420 42 474 101 q 281 -17 367 -17 q 106 77 171 -17 q 42 329 42 171 q 106 578 42 483 q 272 674 169 674 q 387 633 338 674 q 461 517 436 593 q 488 335 483 449 l 178 335 q 208 103 179 171 q 304 35 236 35 q 438 210 415 35 m 179 385 l 354 385 q 271 636 350 636 q 179 385 188 636 m 96 963 l 154 963 l 275 878 l 397 963 l 456 963 l 299 764 l 251 764 l 96 963 z "},"Ĝ":{"ha":738,"x_min":51,"x_max":711,"o":"m 564 854 l 599 946 l 628 946 l 628 644 l 586 644 q 515 836 561 775 q 393 897 468 897 q 196 457 196 897 q 386 28 196 28 q 504 63 444 28 l 504 308 q 490 366 504 353 q 424 382 475 379 l 424 426 q 568 418 515 418 q 711 426 617 418 l 711 382 q 650 365 663 378 q 638 306 638 351 l 638 93 q 376 -15 504 -15 q 138 113 225 -15 q 51 464 51 242 q 138 813 51 685 q 374 942 225 942 q 564 854 485 942 m 194 1004 l 358 1194 l 404 1194 l 568 1004 l 508 1004 l 381 1089 l 254 1004 l 194 1004 z "},"ĝ":{"ha":560,"x_min":33,"x_max":535,"o":"m 385 632 l 535 632 l 535 569 l 431 578 q 464 449 464 522 q 357 254 464 304 q 264 229 336 243 q 163 167 163 210 q 236 124 163 128 q 426 92 371 118 q 519 -65 519 49 q 449 -223 519 -162 q 264 -283 378 -283 q 96 -234 158 -283 q 33 -101 33 -185 q 124 36 33 -6 q 69 131 69 75 q 186 250 69 221 q 65 453 65 306 q 119 612 65 554 q 267 669 172 669 q 385 632 336 669 m 265 632 q 208 587 229 632 q 188 465 188 542 q 265 274 188 274 q 321 319 301 274 q 340 449 340 365 q 265 632 340 632 m 231 -3 q 93 -103 93 -3 q 141 -197 93 -160 q 263 -233 189 -233 q 375 -201 333 -233 q 417 -115 417 -169 q 231 -3 417 -3 m 104 764 l 260 963 l 307 963 l 464 764 l 406 764 l 283 849 l 163 764 l 104 764 z "},"Ğ":{"ha":738,"x_min":51,"x_max":711,"o":"m 564 854 l 599 946 l 628 946 l 628 644 l 586 644 q 515 836 561 775 q 393 897 468 897 q 196 457 196 897 q 386 28 196 28 q 504 63 444 28 l 504 308 q 490 366 504 353 q 424 382 475 379 l 424 426 q 568 418 515 418 q 711 426 617 418 l 711 382 q 650 365 663 378 q 638 306 638 351 l 638 93 q 376 -15 504 -15 q 138 113 225 -15 q 51 464 51 242 q 138 813 51 685 q 374 942 225 942 q 564 854 485 942 m 221 1194 l 267 1194 q 313 1121 290 1139 q 379 1103 335 1103 q 446 1121 424 1103 q 492 1194 468 1139 l 536 1194 q 513 1090 531 1131 q 460 1026 496 1050 q 379 1001 424 1001 q 299 1026 335 1001 q 244 1090 263 1050 q 221 1194 228 1131 z "},"ğ":{"ha":560,"x_min":33,"x_max":535,"o":"m 385 632 l 535 632 l 535 569 l 431 578 q 464 449 464 522 q 357 254 464 304 q 264 229 336 243 q 163 167 163 210 q 236 124 163 128 q 426 92 371 118 q 519 -65 519 49 q 449 -223 519 -162 q 264 -283 378 -283 q 96 -234 158 -283 q 33 -101 33 -185 q 124 36 33 -6 q 69 131 69 75 q 186 250 69 221 q 65 453 65 306 q 119 612 65 554 q 267 669 172 669 q 385 632 336 669 m 265 632 q 208 587 229 632 q 188 465 188 542 q 265 274 188 274 q 321 319 301 274 q 340 449 340 365 q 265 632 340 632 m 231 -3 q 93 -103 93 -3 q 141 -197 93 -160 q 263 -233 189 -233 q 375 -201 333 -233 q 417 -115 417 -169 q 231 -3 417 -3 m 115 957 l 160 957 q 207 883 183 903 q 271 864 231 864 q 335 883 311 864 q 382 957 358 903 l 426 957 q 403 853 421 892 q 350 788 386 813 q 271 764 314 764 q 192 788 228 764 q 139 853 156 813 q 115 957 121 892 z "},"Ġ":{"ha":738,"x_min":51,"x_max":711,"o":"m 564 854 l 599 946 l 628 946 l 628 644 l 586 644 q 515 836 561 775 q 393 897 468 897 q 196 457 196 897 q 386 28 196 28 q 504 63 444 28 l 504 308 q 490 366 504 353 q 424 382 475 379 l 424 426 q 568 418 515 418 q 711 426 617 418 l 711 382 q 650 365 663 378 q 638 306 638 351 l 638 93 q 376 -15 504 -15 q 138 113 225 -15 q 51 464 51 242 q 138 813 51 685 q 374 942 225 942 q 564 854 485 942 m 385 1175 q 440 1151 417 1175 q 464 1096 464 1128 q 440 1039 464 1063 q 383 1015 417 1015 q 328 1039 351 1015 q 304 1096 304 1063 q 328 1152 304 1129 q 385 1175 351 1175 z "},"ġ":{"ha":560,"x_min":33,"x_max":535,"o":"m 385 632 l 535 632 l 535 569 l 431 578 q 464 449 464 522 q 357 254 464 304 q 264 229 336 243 q 163 167 163 210 q 236 124 163 128 q 426 92 371 118 q 519 -65 519 49 q 449 -223 519 -162 q 264 -283 378 -283 q 96 -234 158 -283 q 33 -101 33 -185 q 124 36 33 -6 q 69 131 69 75 q 186 250 69 221 q 65 453 65 306 q 119 612 65 554 q 267 669 172 669 q 385 632 336 669 m 265 632 q 208 587 229 632 q 188 465 188 542 q 265 274 188 274 q 321 319 301 274 q 340 449 340 365 q 265 632 340 632 m 231 -3 q 93 -103 93 -3 q 141 -197 93 -160 q 263 -233 189 -233 q 375 -201 333 -233 q 417 -115 417 -169 q 231 -3 417 -3 m 272 938 q 330 913 306 938 q 354 854 354 889 q 330 795 354 819 q 271 771 306 771 q 212 795 236 771 q 188 854 188 819 q 212 913 188 889 q 272 938 236 938 z "},"Ģ":{"ha":738,"x_min":51,"x_max":711,"o":"m 564 854 l 599 946 l 628 946 l 628 644 l 586 644 q 515 836 561 775 q 393 897 468 897 q 196 457 196 897 q 386 28 196 28 q 504 63 444 28 l 504 308 q 490 366 504 353 q 424 382 475 379 l 424 426 q 568 418 515 418 q 711 426 617 418 l 711 382 q 650 365 663 378 q 638 306 638 351 l 638 93 q 376 -15 504 -15 q 138 113 225 -15 q 51 464 51 242 q 138 813 51 685 q 374 942 225 942 q 564 854 485 942 m 372 -357 l 318 -357 q 379 -225 369 -296 l 378 -225 l 372 -225 q 328 -205 346 -225 q 310 -153 310 -185 q 330 -98 310 -119 q 382 -76 350 -76 q 437 -101 417 -76 q 457 -165 457 -125 q 372 -357 457 -258 z "},"ģ":{"ha":560,"x_min":33,"x_max":535,"o":"m 385 632 l 535 632 l 535 569 l 431 578 q 464 449 464 522 q 357 254 464 304 q 264 229 336 243 q 163 167 163 210 q 236 124 163 128 q 426 92 371 118 q 519 -65 519 49 q 449 -223 519 -162 q 264 -283 378 -283 q 96 -234 158 -283 q 33 -101 33 -185 q 124 36 33 -6 q 69 131 69 75 q 186 250 69 221 q 65 453 65 306 q 119 612 65 554 q 267 669 172 669 q 385 632 336 669 m 265 632 q 208 587 229 632 q 188 465 188 542 q 265 274 188 274 q 321 319 301 274 q 340 449 340 365 q 265 632 340 632 m 231 -3 q 93 -103 93 -3 q 141 -197 93 -160 q 263 -233 189 -233 q 375 -201 333 -233 q 417 -115 417 -169 q 231 -3 417 -3 m 274 900 l 275 900 l 279 900 q 324 880 306 900 q 342 829 342 860 q 322 774 342 796 q 271 753 301 753 q 216 777 236 753 q 196 842 196 801 q 272 1024 196 935 q 286 1043 285 1040 l 339 1043 q 274 900 279 974 z "},"Ĥ":{"ha":783,"x_min":35,"x_max":749,"o":"m 261 507 l 524 507 l 524 790 q 508 867 524 850 q 433 886 492 883 l 433 931 q 594 921 532 921 q 749 931 657 921 l 749 886 q 674 867 690 885 q 658 790 658 850 l 658 135 q 674 60 658 76 q 749 40 689 44 l 749 -4 q 594 6 657 6 q 433 -4 532 6 l 433 40 q 508 60 493 44 q 524 135 524 76 l 524 458 l 261 458 l 261 135 q 276 61 261 78 q 350 40 292 44 l 350 -4 q 190 6 253 6 q 35 -4 128 6 l 35 40 l 46 40 q 112 62 97 44 q 126 135 126 79 l 126 790 q 110 867 126 850 q 35 886 93 883 l 35 931 q 190 921 128 921 q 350 931 253 921 l 350 886 q 277 867 293 885 q 261 790 261 850 l 261 507 m 204 1004 l 368 1194 l 415 1194 l 579 1004 l 518 1004 l 392 1089 l 265 1004 l 204 1004 z "},"ĥ":{"ha":638,"x_min":25,"x_max":614,"o":"m 26 872 l 26 904 q 235 949 128 913 l 235 594 q 371 669 285 669 q 536 439 536 669 l 536 111 q 549 47 536 60 q 614 31 561 33 l 614 -4 q 478 4 546 4 q 344 -4 408 4 l 344 29 q 392 46 381 32 q 404 106 404 60 l 404 454 q 324 599 404 599 q 254 553 279 599 q 235 450 235 519 l 235 106 q 246 45 235 60 q 294 29 257 31 l 294 -4 q 161 4 229 4 q 25 -4 93 4 l 25 31 q 90 47 78 33 q 103 111 103 60 l 103 779 q 90 857 103 842 q 26 872 78 872 m 38 1004 l 201 1194 l 247 1194 l 411 1004 l 351 1004 l 225 1089 l 97 1004 l 38 1004 z "},"Ħ":{"ha":783,"x_min":35,"x_max":749,"o":"m 524 719 l 524 790 q 508 866 524 849 q 433 886 492 883 l 433 931 q 594 921 532 921 q 749 931 657 921 l 749 886 q 675 867 692 885 q 658 790 658 849 l 658 719 l 749 719 l 749 665 l 658 665 l 658 135 q 674 60 658 76 q 749 40 689 44 l 749 -4 q 594 6 657 6 q 433 -4 532 6 l 433 40 q 508 60 493 44 q 524 135 524 76 l 524 458 l 261 458 l 261 135 q 276 61 261 78 q 350 40 292 44 l 350 -4 q 190 6 253 6 q 35 -4 128 6 l 35 40 l 46 40 q 112 62 97 44 q 126 135 126 79 l 126 665 l 35 665 l 35 719 l 126 719 l 126 790 q 110 867 126 849 q 35 886 93 885 l 35 931 q 190 921 128 921 q 350 931 253 921 l 350 886 q 278 867 294 885 q 261 790 261 849 l 261 719 l 524 719 m 524 665 l 261 665 l 261 507 l 524 507 l 524 665 z "},"ħ":{"ha":638,"x_min":25,"x_max":614,"o":"m 235 786 l 374 786 l 374 733 l 235 733 l 235 594 q 371 669 285 669 q 494 610 451 669 q 536 439 536 551 l 536 111 q 549 47 536 60 q 614 31 561 33 l 614 -4 q 478 4 546 4 q 344 -4 408 4 l 344 29 q 392 46 381 32 q 404 106 404 60 l 404 454 q 324 599 404 599 q 254 553 279 599 q 235 450 235 519 l 235 106 q 246 45 235 60 q 294 29 257 31 l 294 -4 q 161 4 229 4 q 25 -4 93 4 l 25 31 q 90 47 78 33 q 103 111 103 60 l 103 733 l 26 733 l 26 786 l 103 786 l 103 790 q 89 859 100 847 q 26 872 78 871 l 26 904 q 235 949 135 915 l 235 786 z "},"Ĩ":{"ha":389,"x_min":10,"x_max":379,"o":"m 356 40 l 356 -4 q 193 6 254 6 q 35 -4 132 6 l 35 40 q 110 60 94 44 q 125 136 125 76 l 125 790 q 109 867 125 850 q 35 886 93 885 l 35 931 q 193 921 132 921 q 356 931 257 921 l 356 886 q 279 867 296 883 q 263 790 263 850 l 263 136 q 279 60 263 78 q 356 40 296 43 m 51 1019 l 10 1031 q 59 1147 32 1114 q 131 1181 86 1181 q 221 1139 174 1181 q 276 1108 257 1108 q 309 1124 296 1108 q 338 1178 322 1139 l 379 1167 q 257 1014 347 1014 q 218 1022 235 1014 q 158 1065 201 1031 q 114 1086 132 1086 q 79 1071 93 1086 q 51 1019 65 1056 z "},"ĩ":{"ha":350,"x_min":-6,"x_max":358,"o":"m 242 681 l 242 111 q 255 47 242 60 q 321 31 268 33 l 321 -4 q 175 4 240 4 q 32 -4 110 4 l 32 31 q 97 47 85 33 q 110 111 110 60 l 110 514 q 99 590 110 574 q 44 606 88 606 l 33 606 l 33 638 q 242 681 140 647 m 36 778 l -6 789 q 43 903 17 871 q 114 935 69 935 q 203 894 153 935 q 257 864 238 864 q 290 878 276 864 q 317 932 303 893 l 358 922 q 238 771 325 771 q 199 780 215 771 q 140 822 182 789 q 97 843 115 843 q 63 828 76 843 q 36 778 49 814 z "},"Ī":{"ha":389,"x_min":26,"x_max":364,"o":"m 356 40 l 356 -4 q 194 6 257 6 q 35 -4 133 6 l 35 40 q 110 61 94 44 q 126 136 126 78 l 126 790 q 110 867 126 850 q 35 886 93 883 l 35 931 q 194 921 133 921 q 356 931 257 921 l 356 886 q 280 867 296 885 q 264 790 264 850 l 264 136 q 280 60 264 78 q 356 40 296 43 m 26 1044 l 26 1124 l 364 1124 l 364 1044 l 26 1044 z "},"ī":{"ha":350,"x_min":18,"x_max":321,"o":"m 242 681 l 242 111 q 255 47 242 60 q 321 31 268 33 l 321 -4 q 175 4 240 4 q 32 -4 110 4 l 32 31 q 97 47 85 33 q 110 111 110 60 l 110 514 q 99 590 110 574 q 44 606 88 606 l 33 606 l 33 638 q 242 681 140 647 m 18 815 l 18 894 l 307 894 l 307 815 l 18 815 z "},"Ĭ":{"ha":389,"x_min":35,"x_max":356,"o":"m 356 40 l 356 -4 q 194 6 257 6 q 35 -4 133 6 l 35 40 q 110 61 94 44 q 126 136 126 78 l 126 790 q 110 867 126 850 q 35 886 93 883 l 35 931 q 194 921 133 921 q 356 931 257 921 l 356 886 q 280 867 296 885 q 264 790 264 850 l 264 136 q 280 60 264 78 q 356 40 296 43 m 38 1194 l 82 1194 q 128 1121 106 1139 q 194 1103 150 1103 q 261 1121 239 1103 q 308 1194 283 1139 l 353 1194 q 329 1090 346 1131 q 276 1026 313 1050 q 194 1001 239 1001 q 114 1026 150 1001 q 61 1090 78 1050 q 38 1194 43 1136 z "},"ĭ":{"ha":350,"x_min":24,"x_max":331,"o":"m 243 681 l 243 111 q 256 47 243 60 q 321 31 268 33 l 321 -4 q 176 4 243 4 q 33 -4 111 4 l 33 31 q 99 47 86 33 q 111 111 111 60 l 111 514 q 100 590 111 574 q 46 606 89 606 l 35 606 l 35 638 q 243 681 142 647 m 24 957 l 68 957 q 114 883 92 901 q 176 864 136 864 q 239 883 217 864 q 285 957 261 901 l 331 957 q 307 853 322 892 q 255 788 290 813 q 176 764 219 764 q 98 788 133 764 q 47 853 63 813 q 24 957 29 897 z "},"Į":{"ha":389,"x_min":35,"x_max":356,"o":"m 356 -164 l 356 -211 q 258 -235 304 -235 q 178 -206 210 -235 q 147 -131 147 -176 q 281 3 147 -44 q 203 6 249 6 q 35 -4 133 6 l 35 40 q 110 61 94 44 q 126 136 126 78 l 126 790 q 110 867 126 850 q 35 886 93 883 l 35 931 q 194 921 133 921 q 356 931 257 921 l 356 886 q 280 867 296 885 q 264 790 264 850 l 264 136 q 280 60 264 78 q 356 40 296 43 l 356 -4 q 278 -53 307 -22 q 249 -117 249 -83 q 263 -160 249 -143 q 299 -178 278 -178 q 356 -164 319 -178 z "},"į":{"ha":347,"x_min":32,"x_max":325,"o":"m 319 -4 l 313 -4 q 264 -40 290 -4 q 238 -107 238 -75 q 251 -148 238 -132 q 286 -164 265 -164 q 325 -156 306 -164 l 325 -201 q 247 -219 288 -219 q 169 -190 200 -219 q 139 -117 139 -161 q 242 1 139 -44 q 174 4 208 4 q 32 -4 110 4 l 32 31 q 97 47 85 33 q 110 111 110 60 l 110 514 q 99 590 110 574 q 44 606 88 606 l 33 606 l 33 638 q 242 681 140 647 l 242 111 q 254 47 242 60 q 319 31 267 33 l 319 -4 m 176 938 q 234 913 210 938 q 258 854 258 889 q 234 795 258 819 q 175 771 210 771 q 116 795 140 771 q 92 854 92 819 q 116 913 92 889 q 176 938 140 938 z "},"İ":{"ha":389,"x_min":35,"x_max":356,"o":"m 356 40 l 356 -4 q 194 6 257 6 q 35 -4 133 6 l 35 40 q 110 61 94 44 q 126 136 126 78 l 126 790 q 110 867 126 850 q 35 886 93 883 l 35 931 q 194 921 133 921 q 356 931 257 921 l 356 886 q 280 867 296 885 q 264 790 264 850 l 264 136 q 280 60 264 78 q 356 40 296 43 m 199 1175 q 254 1151 231 1175 q 278 1096 278 1128 q 254 1039 278 1063 q 197 1015 231 1015 q 142 1039 165 1015 q 118 1096 118 1063 q 142 1152 118 1129 q 199 1175 165 1175 z "},"ı":{"ha":350,"x_min":32,"x_max":319,"o":"m 242 681 l 242 111 q 254 47 242 60 q 319 31 267 33 l 319 -4 q 175 4 242 4 q 32 -4 110 4 l 32 31 q 97 47 85 33 q 110 111 110 60 l 110 514 q 99 590 110 574 q 44 606 88 606 l 33 606 l 33 638 q 242 681 140 647 z "},"Ĳ":{"ha":772,"x_min":35,"x_max":742,"o":"m 356 40 l 356 -4 q 194 6 257 6 q 35 -4 133 6 l 35 40 l 46 40 q 112 62 97 44 q 126 136 126 79 l 126 790 q 110 867 126 850 q 35 886 93 883 l 35 931 q 194 921 133 921 q 356 931 257 921 l 356 886 q 280 867 296 885 q 264 790 264 850 l 264 136 q 278 62 264 79 q 344 40 293 44 l 356 40 m 378 -96 l 378 -43 q 411 -47 400 -47 q 490 -10 468 -47 q 513 125 513 28 l 513 792 q 496 867 513 850 q 421 886 479 883 l 421 931 q 581 921 519 921 q 742 931 643 921 l 742 886 q 667 867 683 883 q 650 792 650 850 l 650 183 q 615 -8 650 54 q 428 -101 564 -101 q 378 -96 406 -101 z "},"ĳ":{"ha":690,"x_min":35,"x_max":606,"o":"m 244 681 l 244 111 q 257 47 244 60 q 322 31 269 33 l 322 -4 q 178 4 244 4 q 35 -4 113 4 l 35 31 q 100 47 88 33 q 113 111 113 60 l 113 514 q 101 591 113 576 q 36 606 89 606 l 36 638 q 244 681 143 647 m 178 939 q 235 915 211 939 q 260 856 260 890 q 235 797 260 821 q 176 772 211 772 q 117 797 142 772 q 93 856 93 821 q 117 915 93 890 q 178 939 142 939 m 333 -279 l 333 -231 q 428 -186 401 -228 q 456 -44 456 -144 l 456 514 q 443 590 456 575 q 379 606 431 606 l 379 638 q 588 681 486 647 l 588 22 q 549 -179 588 -107 q 350 -279 492 -279 l 333 -279 m 524 939 q 581 915 557 939 q 606 856 606 890 q 581 797 606 821 q 522 772 557 772 q 463 797 488 772 q 439 856 439 821 q 464 915 439 890 q 524 939 489 939 z "},"Ĵ":{"ha":389,"x_min":-7,"x_max":386,"o":"m -7 -96 l -7 -43 q 28 -47 15 -47 q 106 -10 85 -47 q 128 125 128 26 l 128 792 q 112 867 128 850 q 38 886 96 885 l 38 931 q 197 921 135 921 q 357 931 258 921 l 357 886 q 282 867 299 883 q 265 792 265 850 l 265 183 q 231 -8 265 54 q 44 -101 179 -101 q -7 -96 21 -101 m 11 1004 l 175 1194 l 222 1194 l 386 1004 l 325 1004 l 199 1089 l 72 1004 l 11 1004 z "},"ĵ":{"ha":342,"x_min":-19,"x_max":340,"o":"m -15 -279 l -15 -231 q 80 -186 53 -228 q 107 -44 107 -144 l 107 514 q 95 590 107 575 q 31 606 83 604 l 31 638 q 239 681 138 647 l 239 22 q 200 -179 239 -107 q 1 -279 142 -279 l -15 -279 m -19 764 l 136 963 l 183 963 l 340 764 l 282 764 l 160 849 l 39 764 l -19 764 z "},"Ķ":{"ha":754,"x_min":35,"x_max":739,"o":"m 390 589 l 615 140 q 670 60 647 79 q 739 40 693 42 l 739 -4 q 579 7 650 7 q 415 -4 508 7 l 415 40 l 422 40 q 486 74 486 49 q 474 115 486 90 l 304 474 l 261 415 l 261 136 q 275 62 261 78 q 343 40 289 46 l 343 -4 q 196 6 264 6 q 35 -4 131 6 l 35 40 q 110 60 94 43 q 126 136 126 78 l 126 790 q 110 867 126 850 q 35 886 93 883 l 35 931 q 196 921 136 921 q 350 931 257 921 l 350 886 q 277 867 293 885 q 261 790 261 850 l 261 490 l 494 814 q 513 856 513 836 q 449 886 513 882 l 442 886 l 442 931 q 571 925 525 925 q 686 931 619 925 l 686 886 q 611 867 639 883 q 551 808 583 851 l 390 589 m 364 -357 l 310 -357 q 369 -225 361 -293 l 368 -225 l 364 -225 q 319 -205 338 -225 q 301 -153 301 -185 q 322 -98 301 -119 q 372 -76 342 -76 q 427 -101 407 -76 q 447 -165 447 -125 q 364 -357 447 -256 z "},"ķ":{"ha":625,"x_min":25,"x_max":615,"o":"m 357 422 l 514 119 q 561 49 544 64 q 615 31 578 33 l 615 -4 q 540 -1 557 -1 q 429 -4 489 -1 l 279 317 l 233 256 l 233 111 q 246 47 233 60 q 311 31 258 33 l 311 -4 q 168 4 238 4 q 25 -4 99 4 l 25 31 q 90 47 78 33 q 103 111 103 60 l 103 779 q 90 857 103 842 q 26 872 78 872 l 26 904 q 235 949 115 915 l 235 336 l 381 535 q 404 586 404 565 q 390 610 404 603 q 336 625 376 618 l 336 660 q 449 653 392 653 q 579 660 510 653 l 579 625 q 510 607 531 619 q 456 553 489 594 l 357 422 m 310 -357 l 256 -357 q 318 -222 308 -297 l 315 -222 l 311 -222 q 267 -202 285 -222 q 250 -151 250 -182 q 269 -97 250 -118 q 321 -76 289 -76 q 374 -100 354 -76 q 394 -164 394 -124 q 310 -357 394 -258 z "},"ĸ":{"ha":625,"x_min":26,"x_max":613,"o":"m 232 336 l 378 535 q 401 586 401 565 q 388 610 401 603 q 333 625 374 618 l 333 660 q 446 653 389 653 q 576 660 507 653 l 576 625 q 507 607 528 619 q 453 553 486 594 l 354 422 l 511 119 q 558 49 542 64 q 613 31 575 33 l 613 -4 q 538 -1 554 -1 q 426 -4 486 -1 l 276 317 l 232 258 l 232 111 q 244 47 232 60 q 310 31 257 33 l 310 -4 q 167 4 236 4 q 26 -4 99 4 l 26 31 q 92 47 79 33 q 104 111 104 60 l 104 514 q 92 585 104 571 q 28 600 79 599 l 28 632 q 232 675 139 646 l 232 336 z "},"Ĺ":{"ha":599,"x_min":35,"x_max":585,"o":"m 585 244 l 554 0 l 35 0 l 35 44 q 110 64 94 47 q 126 140 126 81 l 126 792 q 110 867 126 850 q 35 886 93 883 l 35 931 q 194 921 133 921 q 356 931 257 921 l 356 886 q 280 867 296 885 q 264 792 264 850 l 264 126 q 277 65 264 81 q 331 50 290 50 l 382 50 q 482 92 454 50 q 544 244 522 144 l 585 244 m 164 1004 l 281 1190 l 463 1190 l 221 1004 l 164 1004 z "},"ĺ":{"ha":344,"x_min":28,"x_max":415,"o":"m 238 949 l 238 111 q 250 47 238 60 q 315 31 263 33 l 315 -4 q 171 4 238 4 q 28 -4 106 4 l 28 31 q 93 47 81 33 q 106 111 106 60 l 106 781 q 93 857 106 842 q 29 872 81 872 l 29 904 q 238 949 138 915 m 117 1004 l 233 1190 l 415 1190 l 174 1004 l 117 1004 z "},"Ļ":{"ha":599,"x_min":35,"x_max":585,"o":"m 585 244 l 554 0 l 35 0 l 35 44 q 110 64 94 47 q 126 140 126 81 l 126 792 q 110 867 126 850 q 35 886 93 883 l 35 931 q 194 921 133 921 q 356 931 257 921 l 356 886 q 280 867 296 885 q 264 792 264 850 l 264 126 q 277 65 264 81 q 331 50 290 50 l 382 50 q 482 92 454 50 q 544 244 522 144 l 585 244 m 301 -357 l 247 -357 q 308 -225 299 -296 l 306 -225 l 301 -225 q 257 -205 275 -225 q 239 -153 239 -185 q 259 -98 239 -119 q 311 -76 279 -76 q 366 -101 346 -76 q 386 -165 386 -125 q 301 -357 386 -258 z "},"ļ":{"ha":344,"x_min":28,"x_max":315,"o":"m 238 949 l 238 111 q 250 47 238 60 q 315 31 263 33 l 315 -4 q 171 4 238 4 q 28 -4 106 4 l 28 31 q 93 47 81 33 q 106 111 106 60 l 106 781 q 93 857 106 842 q 29 872 81 872 l 29 904 q 238 949 138 915 m 161 -357 l 107 -357 q 169 -222 160 -297 l 167 -222 l 163 -222 q 119 -202 136 -222 q 101 -151 101 -182 q 121 -97 101 -118 q 172 -76 140 -76 q 226 -100 206 -76 q 246 -164 246 -124 q 161 -357 246 -258 z "},"Ľ":{"ha":599,"x_min":35,"x_max":585,"o":"m 585 244 l 554 0 l 35 0 l 35 44 q 110 64 94 47 q 126 140 126 81 l 126 792 q 110 867 126 850 q 35 886 93 883 l 35 931 q 194 921 133 921 q 356 931 257 921 l 356 886 q 280 867 296 885 q 264 792 264 850 l 264 126 q 277 65 264 81 q 331 50 290 50 l 382 50 q 482 92 454 50 q 544 244 522 144 l 585 244 m 476 797 l 475 799 q 469 797 472 797 q 424 818 442 797 q 407 871 407 839 q 427 927 407 906 q 479 949 447 949 q 534 924 514 949 q 554 857 554 899 q 463 653 554 749 l 410 653 q 476 797 468 715 z "},"ľ":{"ha":417,"x_min":28,"x_max":426,"o":"m 238 949 l 238 111 q 250 47 238 60 q 315 31 263 33 l 315 -4 q 171 4 238 4 q 28 -4 106 4 l 28 31 q 93 47 81 33 q 106 111 106 60 l 106 781 q 93 857 106 842 q 29 872 81 872 l 29 904 q 238 949 138 915 m 350 800 l 347 800 l 343 800 q 299 820 317 800 q 282 871 282 840 q 302 926 282 904 q 353 947 322 947 q 406 923 386 947 q 426 858 426 899 q 350 675 426 764 q 336 656 338 658 l 283 656 q 350 800 342 725 z "},"Ŀ":{"ha":599,"x_min":35,"x_max":585,"o":"m 481 529 q 538 505 514 529 q 563 446 563 481 q 538 387 563 411 q 479 363 514 363 q 420 387 444 363 q 396 446 396 411 q 421 505 396 481 q 481 529 446 529 m 585 244 l 554 0 l 35 0 l 35 44 q 110 64 94 47 q 126 140 126 81 l 126 792 q 110 867 126 850 q 35 886 93 883 l 35 931 q 194 921 133 921 q 356 931 257 921 l 356 886 q 280 867 296 885 q 264 792 264 850 l 264 126 q 277 65 264 81 q 331 50 290 50 l 382 50 q 482 92 454 50 q 544 244 522 144 l 585 244 z "},"ŀ":{"ha":428,"x_min":28,"x_max":468,"o":"m 386 529 q 444 505 419 529 q 468 446 468 481 q 444 387 468 411 q 385 363 419 363 q 326 387 350 363 q 301 446 301 411 q 326 505 301 481 q 386 529 350 529 m 238 949 l 238 111 q 250 47 238 60 q 315 31 263 33 l 315 -4 q 171 4 238 4 q 28 -4 106 4 l 28 31 q 93 47 81 33 q 106 111 106 60 l 106 781 q 93 857 106 842 q 29 872 81 872 l 29 904 q 238 949 138 915 z "},"Ł":{"ha":599,"x_min":35,"x_max":586,"o":"m 126 401 l 35 340 l 35 400 l 126 461 l 126 792 q 110 867 126 850 q 35 886 93 883 l 35 931 q 194 921 133 921 q 356 931 257 921 l 356 886 q 280 867 296 885 q 264 792 264 850 l 264 554 l 408 651 l 408 590 l 264 494 l 264 126 q 277 65 264 81 q 331 50 290 50 l 383 50 q 483 92 454 50 q 546 244 521 144 l 586 244 l 554 0 l 35 0 l 35 44 q 110 64 94 47 q 126 140 126 81 l 126 401 z "},"ł":{"ha":344,"x_min":28,"x_max":315,"o":"m 238 561 l 315 614 l 315 554 l 238 501 l 238 111 q 250 47 238 60 q 315 31 263 33 l 315 -4 q 171 4 238 4 q 28 -4 106 4 l 28 31 q 93 47 81 33 q 106 111 106 60 l 106 413 l 28 360 l 28 419 l 106 472 l 106 781 q 93 857 106 842 q 29 872 81 872 l 29 904 q 238 949 138 915 l 238 561 z "},"Ń":{"ha":765,"x_min":33,"x_max":735,"o":"m 642 -25 l 615 -25 q 490 207 563 81 l 175 760 l 175 136 q 191 61 175 78 q 268 40 207 44 l 268 -4 q 149 1 197 1 q 35 -4 101 1 l 35 40 q 111 60 96 44 q 126 136 126 76 l 126 838 q 85 874 106 864 q 33 886 65 883 l 33 931 q 135 926 97 926 q 236 931 171 926 l 593 306 l 593 790 q 577 867 593 850 q 501 886 561 885 l 501 931 q 619 925 572 925 q 735 931 667 925 l 735 886 q 658 867 675 885 q 642 790 642 850 l 642 -25 m 353 1004 l 469 1190 l 651 1190 l 410 1004 l 353 1004 z "},"ń":{"ha":646,"x_min":32,"x_max":621,"o":"m 32 603 l 32 635 q 208 675 143 650 q 225 571 224 624 q 378 669 282 669 q 501 610 458 669 q 543 439 543 551 l 543 111 q 556 47 543 60 q 621 31 568 33 l 621 -4 q 486 4 553 4 q 354 -4 415 4 l 354 29 q 400 47 389 32 q 411 106 411 61 l 411 454 q 392 565 411 531 q 333 600 374 600 q 242 450 242 600 l 242 106 q 253 46 242 61 q 300 29 264 31 l 300 -4 q 167 4 236 4 q 32 -4 100 4 l 32 31 q 97 47 85 33 q 110 111 110 60 l 110 508 q 99 588 110 572 q 42 603 88 603 l 32 603 m 282 764 l 371 961 l 538 961 l 339 764 l 282 764 z "},"Ņ":{"ha":765,"x_min":33,"x_max":735,"o":"m 642 -25 l 615 -25 q 490 207 563 81 l 175 760 l 175 136 q 191 61 175 78 q 268 40 207 44 l 268 -4 q 149 1 197 1 q 35 -4 101 1 l 35 40 q 111 60 96 44 q 126 136 126 76 l 126 838 q 85 874 106 864 q 33 886 65 883 l 33 931 q 135 926 97 926 q 236 931 171 926 l 593 306 l 593 790 q 577 867 593 850 q 501 886 561 885 l 501 931 q 619 925 572 925 q 735 931 667 925 l 735 886 q 658 867 675 885 q 642 790 642 850 l 642 -25 m 375 -357 l 321 -357 q 382 -225 372 -296 l 381 -225 l 375 -225 q 331 -205 349 -225 q 313 -153 313 -185 q 333 -98 313 -119 q 385 -76 353 -76 q 440 -101 419 -76 q 460 -165 460 -125 q 375 -357 460 -258 z "},"ņ":{"ha":646,"x_min":32,"x_max":621,"o":"m 32 603 l 32 635 q 208 675 143 650 q 225 571 224 624 q 378 669 282 669 q 501 610 458 669 q 543 439 543 551 l 543 111 q 556 47 543 60 q 621 31 568 33 l 621 -4 q 486 4 553 4 q 354 -4 415 4 l 354 29 q 400 47 389 32 q 411 106 411 61 l 411 454 q 392 565 411 531 q 333 600 374 600 q 242 450 242 600 l 242 106 q 253 46 242 61 q 300 29 264 31 l 300 -4 q 167 4 236 4 q 32 -4 100 4 l 32 31 q 97 47 85 33 q 110 111 110 60 l 110 508 q 99 588 110 572 q 42 603 88 603 l 32 603 m 315 -357 l 261 -357 q 324 -222 314 -297 l 322 -222 l 318 -222 q 273 -202 290 -222 q 256 -151 256 -182 q 275 -97 256 -118 q 326 -76 294 -76 q 380 -100 360 -76 q 400 -164 400 -124 q 315 -357 400 -258 z "},"Ň":{"ha":765,"x_min":33,"x_max":735,"o":"m 642 -25 l 615 -25 q 490 207 563 81 l 175 760 l 175 136 q 191 61 175 78 q 268 40 207 44 l 268 -4 q 149 1 197 1 q 35 -4 101 1 l 35 40 q 111 60 96 44 q 126 136 126 76 l 126 838 q 85 874 106 864 q 33 886 65 883 l 33 931 q 135 926 97 926 q 236 931 171 926 l 593 306 l 593 790 q 577 867 593 850 q 501 886 561 885 l 501 931 q 619 925 572 925 q 735 931 667 925 l 735 886 q 658 867 675 885 q 642 790 642 850 l 642 -25 m 197 1194 l 257 1194 l 383 1110 l 511 1194 l 571 1194 l 407 1004 l 360 1004 l 197 1194 z "},"ň":{"ha":646,"x_min":32,"x_max":621,"o":"m 32 603 l 32 635 q 208 675 143 650 q 225 571 224 624 q 378 669 282 669 q 501 610 458 669 q 543 439 543 551 l 543 111 q 556 47 543 60 q 621 31 568 33 l 621 -4 q 486 4 553 4 q 354 -4 415 4 l 354 29 q 400 47 389 32 q 411 106 411 61 l 411 454 q 392 565 411 531 q 333 600 374 600 q 242 450 242 600 l 242 106 q 253 46 242 61 q 300 29 264 31 l 300 -4 q 167 4 236 4 q 32 -4 100 4 l 32 31 q 97 47 85 33 q 110 111 110 60 l 110 508 q 99 588 110 572 q 42 603 88 603 l 32 603 m 147 963 l 206 963 l 326 878 l 449 963 l 507 963 l 350 764 l 303 764 l 147 963 z "},"ŉ":{"ha":854,"x_min":63,"x_max":828,"o":"m 135 779 l 131 779 q 82 801 101 779 q 63 858 63 824 q 85 918 63 894 q 142 942 107 942 q 199 916 178 942 q 219 847 219 890 q 125 619 219 739 l 68 619 q 135 779 125 692 m 239 603 l 239 635 q 415 675 350 650 q 432 571 431 624 q 583 669 489 669 q 708 610 665 669 q 750 439 750 551 l 750 111 q 763 47 750 60 q 828 31 775 33 l 828 -4 q 693 4 760 4 q 560 -4 624 4 l 560 29 q 607 47 596 32 q 618 106 618 61 l 618 454 q 599 565 618 531 q 539 600 581 600 q 449 450 449 600 l 449 106 q 460 46 449 61 q 506 29 471 31 l 506 -4 q 374 4 442 4 q 239 -4 307 4 l 239 31 q 304 47 292 33 q 317 111 317 60 l 317 508 q 306 588 317 572 q 249 603 294 603 l 239 603 z "},"Ŋ":{"ha":715,"x_min":36,"x_max":600,"o":"m 36 853 l 36 897 q 229 950 138 911 q 247 814 243 894 q 417 947 311 947 q 556 869 507 947 q 600 654 600 797 l 600 6 q 564 -187 600 -126 q 385 -279 513 -279 q 336 -275 369 -279 l 336 -222 q 371 -225 369 -225 q 443 -187 424 -225 q 463 -53 463 -150 l 463 671 q 441 806 463 764 q 371 849 419 849 q 265 665 265 849 l 265 136 q 280 63 265 81 q 343 40 294 44 l 354 40 l 354 -4 q 193 6 249 6 q 36 -4 135 6 l 36 40 l 47 40 q 113 62 99 44 q 128 136 128 79 l 128 738 q 117 834 128 817 q 53 853 106 851 l 36 853 z "},"ŋ":{"ha":643,"x_min":33,"x_max":542,"o":"m 33 603 l 33 635 q 211 675 147 650 q 229 578 225 636 q 375 669 283 669 q 499 610 457 669 q 542 436 542 550 l 542 22 q 503 -179 542 -108 q 308 -279 450 -279 l 289 -279 l 289 -231 q 382 -187 354 -229 q 410 -43 410 -144 l 410 451 q 392 565 410 529 q 333 600 374 600 q 264 556 289 600 q 244 447 244 522 l 244 106 q 255 46 244 60 q 301 29 265 32 l 301 -4 q 168 4 236 4 q 33 -4 101 4 l 33 31 l 44 31 q 100 47 88 32 q 113 111 113 63 l 113 508 q 102 588 113 574 q 47 603 92 603 l 33 603 z "},"Ō":{"ha":732,"x_min":51,"x_max":682,"o":"m 367 947 q 487 919 429 947 q 581 840 544 890 q 682 450 682 704 q 644 215 682 326 q 546 49 606 103 q 367 -21 468 -21 q 164 71 247 -21 q 82 234 113 128 q 51 460 51 340 q 137 815 51 683 q 367 947 222 947 m 371 906 q 240 790 285 906 q 196 454 196 675 q 240 133 196 246 q 367 21 285 21 q 538 456 538 21 q 479 831 538 729 q 371 906 436 906 m 179 1044 l 179 1124 l 554 1124 l 554 1044 l 179 1044 z "},"ō":{"ha":549,"x_min":42,"x_max":507,"o":"m 278 674 q 425 606 365 674 q 484 486 461 564 q 507 326 507 408 q 442 78 507 174 q 274 -17 378 -17 q 106 78 169 -17 q 42 328 42 172 q 106 578 42 483 q 278 674 171 674 m 275 636 q 178 324 178 636 q 274 21 178 21 q 371 307 371 21 q 349 559 371 482 q 275 636 326 636 m 100 815 l 100 894 l 449 894 l 449 815 l 100 815 z "},"Ŏ":{"ha":732,"x_min":51,"x_max":682,"o":"m 367 947 q 487 919 429 947 q 581 840 544 890 q 682 450 682 704 q 644 215 682 326 q 546 49 606 103 q 367 -21 468 -21 q 164 71 247 -21 q 82 234 113 128 q 51 460 51 340 q 137 815 51 683 q 367 947 222 947 m 371 906 q 240 790 285 906 q 196 454 196 675 q 240 133 196 246 q 367 21 285 21 q 538 456 538 21 q 479 831 538 729 q 371 906 436 906 m 210 1194 l 254 1194 q 300 1121 278 1139 q 367 1103 322 1103 q 433 1121 411 1103 q 479 1194 456 1139 l 524 1194 q 500 1090 518 1131 q 447 1026 483 1050 q 367 1001 411 1001 q 286 1026 322 1001 q 233 1090 250 1050 q 210 1194 215 1131 z "},"ŏ":{"ha":549,"x_min":42,"x_max":507,"o":"m 278 674 q 425 606 365 674 q 484 486 461 564 q 507 326 507 408 q 442 78 507 174 q 274 -17 378 -17 q 106 78 169 -17 q 42 328 42 172 q 106 578 42 483 q 278 674 171 674 m 275 636 q 178 324 178 636 q 274 21 178 21 q 371 307 371 21 q 349 559 371 482 q 275 636 326 636 m 118 957 l 164 957 q 210 883 188 903 q 274 864 233 864 q 338 883 315 864 q 385 957 361 903 l 431 957 q 407 853 422 892 q 354 788 390 813 q 274 764 318 764 q 194 788 231 764 q 142 853 158 813 q 118 957 124 897 z "},"Ő":{"ha":732,"x_min":51,"x_max":686,"o":"m 367 947 q 487 919 429 947 q 581 840 544 890 q 682 450 682 704 q 644 215 682 326 q 546 49 606 103 q 367 -21 468 -21 q 164 71 247 -21 q 82 234 113 128 q 51 460 51 340 q 137 815 51 683 q 367 947 222 947 m 371 906 q 240 790 285 906 q 196 454 196 675 q 240 133 196 246 q 367 21 285 21 q 538 456 538 21 q 479 831 538 729 q 371 906 436 906 m 435 1004 l 546 1190 l 686 1190 l 500 1004 l 435 1004 m 244 1004 l 356 1190 l 496 1190 l 310 1004 l 244 1004 z "},"ő":{"ha":549,"x_min":42,"x_max":551,"o":"m 278 674 q 425 606 365 674 q 484 486 461 564 q 507 326 507 408 q 442 78 507 174 q 274 -17 378 -17 q 106 78 169 -17 q 42 328 42 172 q 106 578 42 483 q 278 674 171 674 m 275 636 q 178 324 178 636 q 274 21 178 21 q 371 307 371 21 q 349 559 371 482 q 275 636 326 636 m 160 764 l 253 961 l 382 961 l 218 764 l 160 764 m 325 764 l 422 961 l 551 961 l 383 764 l 325 764 z "},"Œ":{"ha":1053,"x_min":53,"x_max":1004,"o":"m 550 0 l 550 111 q 365 -15 488 -15 q 137 115 221 -15 q 53 467 53 244 q 137 812 53 682 q 360 942 221 942 q 550 818 493 942 l 550 926 l 965 926 l 993 696 l 953 696 q 903 840 932 803 q 813 878 875 878 l 683 878 l 683 506 l 806 506 q 854 526 840 506 q 871 601 868 546 l 872 621 l 913 621 l 913 342 l 872 342 q 856 434 869 411 q 804 457 843 457 l 683 457 l 683 125 q 697 64 683 79 q 751 49 711 49 l 801 49 q 900 89 872 49 q 964 244 943 147 l 1004 244 l 972 0 l 550 0 m 376 897 q 243 785 289 897 q 197 461 197 674 q 254 111 197 214 q 374 29 299 29 q 550 475 550 29 q 493 818 550 722 q 376 897 444 897 z "},"œ":{"ha":858,"x_min":42,"x_max":817,"o":"m 767 210 l 817 210 q 750 42 804 101 q 610 -17 696 -17 q 438 75 504 -17 q 274 -17 375 -17 q 106 78 169 -17 q 42 329 42 174 q 106 578 42 483 q 276 674 171 674 q 439 583 375 674 q 601 674 503 674 q 716 633 667 674 q 790 517 765 593 q 817 335 813 449 l 507 335 q 538 103 508 172 q 633 35 567 35 q 767 210 744 35 m 276 636 q 201 559 225 636 q 178 311 178 482 q 274 21 178 21 q 371 333 371 21 q 276 636 371 636 m 508 385 l 683 385 q 600 636 679 636 q 508 385 517 636 z "},"Ŕ":{"ha":699,"x_min":35,"x_max":689,"o":"m 263 426 l 263 135 q 276 61 263 78 q 342 40 290 44 l 353 40 l 353 -4 q 197 6 260 6 q 35 -4 133 6 l 35 40 l 46 40 q 112 62 97 44 q 126 135 126 79 l 126 786 q 110 862 126 844 q 35 882 93 879 l 35 926 l 347 926 q 494 896 442 926 q 574 808 544 867 q 604 678 604 749 q 532 496 604 557 q 424 442 496 463 q 485 401 463 428 q 532 314 508 374 l 597 129 q 634 57 618 72 q 689 40 650 42 l 689 -4 q 596 0 631 0 q 503 -4 561 0 q 471 81 488 29 l 392 314 q 347 404 369 382 q 281 426 325 426 l 263 426 m 264 475 l 318 475 q 421 515 388 475 q 464 678 464 568 q 449 780 464 732 q 411 850 435 828 q 325 878 381 878 l 264 878 l 264 475 m 257 1004 l 374 1190 l 556 1190 l 314 1004 l 257 1004 z "},"ŕ":{"ha":465,"x_min":32,"x_max":454,"o":"m 321 31 l 321 -4 q 176 4 243 4 q 32 -4 113 4 l 32 31 q 98 47 85 33 q 111 111 111 60 l 111 515 q 100 595 111 581 q 40 610 89 610 l 35 610 l 32 610 l 32 642 q 208 675 139 651 q 222 565 221 613 q 346 675 269 675 q 424 641 394 675 q 454 553 454 607 q 393 479 454 479 q 354 492 369 479 q 339 528 339 506 q 342 551 339 535 q 344 581 344 576 q 338 602 344 593 q 321 611 331 611 q 269 571 290 611 q 243 421 243 519 l 243 111 q 256 47 243 60 q 321 31 268 33 m 199 764 l 288 961 l 454 961 l 256 764 l 199 764 z "},"Ŗ":{"ha":699,"x_min":35,"x_max":689,"o":"m 263 426 l 263 135 q 276 61 263 78 q 342 40 290 44 l 353 40 l 353 -4 q 197 6 260 6 q 35 -4 133 6 l 35 40 l 46 40 q 112 62 97 44 q 126 135 126 79 l 126 786 q 110 862 126 844 q 35 882 93 879 l 35 926 l 347 926 q 494 896 442 926 q 574 808 544 867 q 604 678 604 749 q 532 496 604 557 q 424 442 496 463 q 485 401 463 428 q 532 314 508 374 l 597 129 q 634 57 618 72 q 689 40 650 42 l 689 -4 q 596 0 631 0 q 503 -4 561 0 q 471 81 488 29 l 392 314 q 347 404 369 382 q 281 426 325 426 l 263 426 m 264 475 l 318 475 q 421 515 388 475 q 464 678 464 568 q 449 780 464 732 q 411 850 435 828 q 325 878 381 878 l 264 878 l 264 475 m 353 -357 l 300 -357 q 360 -225 351 -293 l 358 -225 l 354 -225 q 310 -205 328 -225 q 292 -153 292 -185 q 312 -98 292 -119 q 363 -76 332 -76 q 417 -101 397 -76 q 438 -165 438 -125 q 353 -357 438 -258 z "},"ŗ":{"ha":465,"x_min":32,"x_max":454,"o":"m 321 31 l 321 -4 q 176 4 243 4 q 32 -4 113 4 l 32 31 q 98 47 85 33 q 111 111 111 60 l 111 515 q 100 595 111 581 q 40 610 89 610 l 35 610 l 32 610 l 32 642 q 208 675 139 651 q 222 565 221 613 q 346 675 269 675 q 424 641 394 675 q 454 553 454 607 q 393 479 454 479 q 354 492 369 479 q 339 528 339 506 q 342 551 339 535 q 344 581 344 576 q 338 602 344 593 q 321 611 331 611 q 269 571 290 611 q 243 421 243 519 l 243 111 q 256 47 243 60 q 321 31 268 33 m 163 -357 l 108 -357 q 171 -222 161 -297 l 169 -222 l 165 -222 q 120 -202 138 -222 q 103 -151 103 -182 q 122 -97 103 -118 q 174 -76 142 -76 q 227 -100 207 -76 q 247 -164 247 -124 q 163 -357 247 -256 z "},"Ř":{"ha":699,"x_min":35,"x_max":689,"o":"m 263 426 l 263 135 q 276 61 263 78 q 342 40 290 44 l 353 40 l 353 -4 q 197 6 260 6 q 35 -4 133 6 l 35 40 l 46 40 q 112 62 97 44 q 126 135 126 79 l 126 786 q 110 862 126 844 q 35 882 93 879 l 35 926 l 347 926 q 494 896 442 926 q 574 808 544 867 q 604 678 604 749 q 532 496 604 557 q 424 442 496 463 q 485 401 463 428 q 532 314 508 374 l 597 129 q 634 57 618 72 q 689 40 650 42 l 689 -4 q 596 0 631 0 q 503 -4 561 0 q 471 81 488 29 l 392 314 q 347 404 369 382 q 281 426 325 426 l 263 426 m 264 475 l 318 475 q 421 515 388 475 q 464 678 464 568 q 449 780 464 732 q 411 850 435 828 q 325 878 381 878 l 264 878 l 264 475 m 125 1194 l 185 1194 l 313 1110 l 439 1194 l 499 1194 l 336 1004 l 289 1004 l 125 1194 z "},"ř":{"ha":465,"x_min":32,"x_max":454,"o":"m 321 31 l 321 -4 q 176 4 243 4 q 32 -4 113 4 l 32 31 q 98 47 85 33 q 111 111 111 60 l 111 515 q 100 595 111 581 q 40 610 89 610 l 35 610 l 32 610 l 32 642 q 208 675 139 651 q 222 565 221 613 q 346 675 269 675 q 424 641 394 675 q 454 553 454 607 q 393 479 454 479 q 354 492 369 479 q 339 528 339 506 q 342 551 339 535 q 344 581 344 576 q 338 602 344 593 q 321 611 331 611 q 269 571 290 611 q 243 421 243 519 l 243 111 q 256 47 243 60 q 321 31 268 33 m 63 963 l 122 963 l 243 878 l 364 963 l 422 963 l 267 764 l 219 764 l 63 963 z "},"Ś":{"ha":606,"x_min":65,"x_max":563,"o":"m 65 294 l 106 294 q 170 104 121 171 q 296 38 219 38 q 395 85 356 38 q 435 204 435 132 q 401 315 435 269 q 279 417 368 360 q 119 550 161 492 q 78 696 78 608 q 140 873 78 806 q 304 940 203 940 q 460 864 394 940 l 490 949 l 518 949 l 518 674 l 478 674 q 318 892 446 892 q 230 849 265 892 q 194 740 194 806 q 224 647 194 682 q 354 546 253 611 q 510 412 469 472 q 551 258 551 351 q 486 63 551 139 q 319 -14 421 -14 q 129 72 217 -14 l 93 -26 l 65 -26 l 65 294 m 264 1004 l 381 1190 l 563 1190 l 321 1004 l 264 1004 z "},"ś":{"ha":507,"x_min":65,"x_max":468,"o":"m 65 -21 l 65 222 l 100 222 q 239 33 124 33 q 308 64 281 33 q 335 142 335 94 q 317 203 335 179 q 249 260 300 228 q 118 351 144 328 q 67 482 67 396 q 118 617 67 564 q 250 669 169 669 q 374 619 319 669 l 394 686 l 419 686 l 419 461 l 385 461 q 269 624 368 624 q 202 594 229 624 q 175 522 175 565 q 192 469 175 490 q 265 413 210 447 q 406 314 381 343 q 449 189 449 268 q 394 43 449 100 q 257 -14 340 -14 q 117 50 179 -14 l 90 -21 l 65 -21 m 213 764 l 301 961 l 468 961 l 269 764 l 213 764 z "},"Ŝ":{"ha":606,"x_min":65,"x_max":551,"o":"m 65 294 l 106 294 q 170 104 121 171 q 296 38 219 38 q 395 85 356 38 q 435 204 435 132 q 401 315 435 269 q 279 417 368 360 q 119 550 161 492 q 78 696 78 608 q 140 873 78 806 q 304 940 203 940 q 460 864 394 940 l 490 949 l 518 949 l 518 674 l 478 674 q 318 892 446 892 q 230 849 265 892 q 194 740 194 806 q 224 647 194 682 q 354 546 253 611 q 510 412 469 472 q 551 258 551 351 q 486 63 551 139 q 319 -14 421 -14 q 129 72 217 -14 l 93 -26 l 65 -26 l 65 294 m 121 1004 l 285 1194 l 332 1194 l 496 1004 l 435 1004 l 308 1089 l 182 1004 l 121 1004 z "},"ŝ":{"ha":507,"x_min":65,"x_max":449,"o":"m 65 -21 l 65 222 l 100 222 q 239 33 124 33 q 308 64 281 33 q 335 142 335 94 q 317 203 335 179 q 249 260 300 228 q 118 351 144 328 q 67 482 67 396 q 118 617 67 564 q 250 669 169 669 q 374 619 319 669 l 394 686 l 419 686 l 419 461 l 385 461 q 269 624 368 624 q 202 594 229 624 q 175 522 175 565 q 192 469 175 490 q 265 413 210 447 q 406 314 381 343 q 449 189 449 268 q 394 43 449 100 q 257 -14 340 -14 q 117 50 179 -14 l 90 -21 l 65 -21 m 78 764 l 233 963 l 281 963 l 436 764 l 378 764 l 257 849 l 136 764 l 78 764 z "},"Ş":{"ha":606,"x_min":65,"x_max":551,"o":"m 325 -14 l 297 -76 q 407 -174 407 -81 q 376 -253 407 -222 q 296 -285 344 -285 q 199 -261 251 -285 l 199 -214 q 260 -226 238 -226 q 294 -210 281 -226 q 307 -169 307 -194 q 229 -111 307 -111 l 275 -10 q 131 72 193 6 l 93 -26 l 65 -26 l 65 294 l 106 294 q 170 104 121 171 q 296 38 219 38 q 395 85 356 38 q 435 204 435 132 q 402 313 435 268 q 279 415 369 358 q 119 550 161 492 q 78 696 78 608 q 140 873 78 806 q 304 940 203 940 q 460 864 394 940 l 490 949 l 518 949 l 518 674 l 478 674 q 318 892 446 892 q 230 849 265 892 q 194 740 194 806 q 224 647 194 682 q 354 546 253 611 q 510 412 469 472 q 551 258 551 351 q 489 66 551 142 q 325 -14 426 -10 z "},"ş":{"ha":507,"x_min":65,"x_max":449,"o":"m 274 -14 l 246 -75 q 350 -172 350 -81 q 319 -247 350 -218 q 239 -276 288 -276 q 149 -253 196 -276 l 149 -207 q 206 -219 185 -219 q 239 -206 226 -219 q 251 -168 251 -192 q 233 -124 251 -140 q 185 -108 215 -108 l 183 -108 l 178 -108 l 222 -11 q 115 50 165 -3 l 90 -21 l 65 -21 l 65 222 l 100 222 q 239 32 124 32 q 308 63 281 32 q 335 140 335 93 q 317 203 335 179 q 249 260 300 226 q 118 350 156 318 q 67 482 67 397 q 118 617 67 564 q 250 669 169 669 q 374 619 319 669 l 394 686 l 419 686 l 419 461 l 385 461 q 269 624 368 624 q 202 594 229 624 q 175 522 175 565 q 192 467 175 489 q 265 413 210 446 q 406 314 383 339 q 449 189 449 267 q 400 49 449 106 q 274 -14 351 -7 z "},"Š":{"ha":606,"x_min":65,"x_max":551,"o":"m 65 294 l 106 294 q 170 104 121 171 q 296 38 219 38 q 395 85 356 38 q 435 204 435 132 q 401 315 435 269 q 279 417 368 360 q 119 550 161 492 q 78 696 78 608 q 140 873 78 806 q 304 940 203 940 q 460 864 394 940 l 490 949 l 518 949 l 518 674 l 478 674 q 318 892 446 892 q 230 849 265 892 q 194 740 194 806 q 224 647 194 682 q 354 546 253 611 q 510 412 469 472 q 551 258 551 351 q 486 63 551 139 q 319 -14 421 -14 q 129 72 217 -14 l 93 -26 l 65 -26 l 65 294 m 121 1194 l 182 1194 l 308 1110 l 435 1194 l 496 1194 l 332 1004 l 285 1004 l 121 1194 z "},"š":{"ha":507,"x_min":65,"x_max":449,"o":"m 65 -21 l 65 222 l 100 222 q 239 33 124 33 q 308 64 281 33 q 335 142 335 94 q 317 203 335 179 q 249 260 300 228 q 118 351 144 328 q 67 482 67 396 q 118 617 67 564 q 250 669 169 669 q 374 619 319 669 l 394 686 l 419 686 l 419 461 l 385 461 q 269 624 368 624 q 202 594 229 624 q 175 522 175 565 q 192 469 175 490 q 265 413 210 447 q 406 314 381 343 q 449 189 449 268 q 394 43 449 100 q 257 -14 340 -14 q 117 50 179 -14 l 90 -21 l 65 -21 m 78 963 l 136 963 l 257 878 l 378 963 l 436 963 l 281 764 l 233 764 l 78 963 z "},"Ţ":{"ha":629,"x_min":24,"x_max":607,"o":"m 607 688 l 567 688 q 515 836 546 794 q 422 878 483 878 l 383 878 l 383 136 q 399 60 383 76 q 475 40 415 43 l 475 -4 q 319 6 382 6 q 156 -4 257 6 l 156 40 q 231 60 215 44 q 246 136 246 76 l 246 878 l 211 878 q 118 836 150 878 q 65 688 86 794 l 24 688 l 57 926 l 574 926 l 607 688 m 307 -357 l 253 -357 q 313 -225 304 -293 l 311 -225 l 307 -225 q 263 -205 281 -225 q 244 -153 244 -185 q 265 -98 244 -119 q 317 -76 285 -76 q 372 -101 351 -76 q 392 -165 392 -125 q 307 -357 392 -258 z "},"ţ":{"ha":368,"x_min":32,"x_max":357,"o":"m 357 83 l 357 33 q 292 -4 314 4 q 238 -12 269 -12 q 92 189 83 -12 l 92 201 l 99 603 l 32 603 l 32 651 q 188 858 151 651 l 232 858 l 231 656 l 347 656 l 347 603 l 229 603 l 228 193 q 240 81 228 111 q 286 50 253 50 q 349 78 306 50 l 357 83 m 199 -357 l 144 -357 q 207 -222 197 -297 l 204 -222 l 200 -222 q 156 -202 174 -222 q 139 -151 139 -182 q 158 -97 139 -118 q 210 -76 178 -76 q 263 -100 243 -76 q 283 -164 283 -124 q 199 -357 283 -258 z "},"Ť":{"ha":629,"x_min":24,"x_max":607,"o":"m 607 688 l 567 688 q 515 836 546 794 q 422 878 483 878 l 383 878 l 383 136 q 399 60 383 76 q 475 40 415 43 l 475 -4 q 319 6 382 6 q 156 -4 257 6 l 156 40 q 231 60 215 44 q 246 136 246 76 l 246 878 l 211 878 q 118 836 150 878 q 65 688 86 794 l 24 688 l 57 926 l 574 926 l 607 688 m 128 1194 l 189 1194 l 315 1110 l 442 1194 l 503 1194 l 339 1004 l 292 1004 l 128 1194 z "},"ť":{"ha":368,"x_min":32,"x_max":411,"o":"m 357 83 l 357 33 q 292 -4 314 4 q 238 -12 269 -12 q 92 189 83 -12 l 92 201 l 99 603 l 32 603 l 32 651 q 188 858 151 651 l 232 858 l 231 656 l 347 656 l 347 603 l 229 603 l 228 193 q 240 81 228 111 q 286 50 253 50 q 349 78 306 50 l 357 83 m 335 863 l 333 863 l 329 863 q 285 883 303 863 q 267 933 267 903 q 287 988 267 967 q 338 1010 307 1010 q 391 985 371 1010 q 411 921 411 961 q 336 739 411 826 q 322 719 324 722 l 269 719 q 335 863 326 786 z "},"Ŧ":{"ha":629,"x_min":24,"x_max":607,"o":"m 383 528 l 383 135 q 399 60 383 76 q 475 40 415 43 l 475 -4 q 319 6 382 6 q 156 -4 257 6 l 156 40 q 231 60 215 44 q 246 135 246 76 l 246 528 l 99 528 l 99 581 l 246 581 l 246 878 l 211 878 q 117 836 150 878 q 64 688 85 794 l 24 688 l 57 926 l 574 926 l 607 688 l 567 688 q 515 836 546 794 q 422 878 483 878 l 383 878 l 383 581 l 531 581 l 531 528 l 383 528 z "},"ŧ":{"ha":374,"x_min":33,"x_max":358,"o":"m 350 438 l 231 438 l 231 193 q 243 81 231 113 q 288 50 256 50 q 358 83 314 50 l 358 33 q 240 -12 299 -12 q 126 38 161 -12 q 94 201 92 89 l 99 438 l 33 438 l 33 490 l 99 490 l 100 603 l 33 603 l 33 651 q 190 858 153 651 l 235 858 l 233 656 l 350 656 l 350 603 l 232 603 l 232 490 l 350 490 l 350 438 z "},"Ũ":{"ha":763,"x_min":28,"x_max":733,"o":"m 500 886 l 500 931 q 618 925 572 925 q 733 931 665 925 l 733 886 q 658 867 675 883 q 642 790 642 850 l 642 313 q 599 103 642 178 q 382 -15 531 -15 q 160 107 229 -15 q 119 301 119 178 l 119 790 q 103 867 119 850 q 28 886 86 883 l 28 931 q 189 921 126 921 q 349 931 250 921 l 349 886 q 273 867 289 885 q 257 790 257 850 l 257 276 q 285 129 257 175 q 415 58 328 58 q 499 81 460 58 q 558 139 539 103 q 593 317 593 199 l 593 790 q 576 867 593 850 q 500 886 560 883 m 250 1019 l 208 1031 q 258 1147 232 1114 q 329 1181 285 1181 q 419 1139 372 1181 q 475 1108 456 1108 q 508 1124 494 1108 q 536 1178 521 1139 l 578 1167 q 456 1014 546 1014 q 417 1022 433 1014 q 357 1065 400 1031 q 313 1086 331 1086 q 278 1071 292 1086 q 250 1019 264 1056 z "},"ũ":{"ha":638,"x_min":18,"x_max":608,"o":"m 18 606 l 18 638 q 226 681 119 647 l 226 200 q 245 91 226 125 q 307 57 264 57 q 396 210 396 57 l 396 515 q 384 590 396 575 q 326 606 372 606 l 322 606 l 319 606 l 319 638 q 528 681 421 647 l 528 149 q 539 72 528 88 q 597 57 550 57 l 608 57 l 608 25 q 424 -19 497 11 q 413 89 413 36 q 349 12 383 35 q 263 -11 314 -11 q 94 217 94 -11 l 94 239 l 94 514 q 83 590 94 575 q 25 606 71 606 l 21 606 l 18 606 m 172 778 l 132 789 q 181 903 156 871 q 250 935 207 935 q 339 894 290 935 q 393 864 375 864 q 426 878 413 864 q 453 932 439 893 l 494 922 q 375 771 461 771 q 336 780 353 771 q 278 822 319 789 q 235 843 251 843 q 200 828 214 843 q 172 778 186 814 z "},"Ū":{"ha":763,"x_min":28,"x_max":733,"o":"m 500 886 l 500 931 q 618 925 572 925 q 733 931 665 925 l 733 886 q 658 867 675 883 q 642 790 642 850 l 642 313 q 599 103 642 178 q 382 -15 531 -15 q 160 107 229 -15 q 119 301 119 178 l 119 790 q 103 867 119 850 q 28 886 86 883 l 28 931 q 189 921 126 921 q 349 931 250 921 l 349 886 q 273 867 289 885 q 257 790 257 850 l 257 276 q 285 129 257 175 q 415 58 328 58 q 499 81 460 58 q 558 139 539 103 q 593 317 593 199 l 593 790 q 576 867 593 850 q 500 886 560 883 m 219 1044 l 219 1124 l 594 1124 l 594 1044 l 219 1044 z "},"ū":{"ha":638,"x_min":18,"x_max":608,"o":"m 18 606 l 18 638 q 226 681 119 647 l 226 200 q 245 91 226 125 q 307 57 264 57 q 396 210 396 57 l 396 515 q 384 590 396 575 q 326 606 372 606 l 322 606 l 319 606 l 319 638 q 528 681 421 647 l 528 149 q 539 72 528 88 q 597 57 550 57 l 608 57 l 608 25 q 424 -19 497 11 q 413 89 413 36 q 349 12 383 35 q 263 -11 314 -11 q 94 217 94 -11 l 94 239 l 94 514 q 83 590 94 575 q 25 606 71 606 l 21 606 l 18 606 m 135 815 l 135 894 l 483 894 l 483 815 l 135 815 z "},"Ŭ":{"ha":763,"x_min":28,"x_max":733,"o":"m 500 886 l 500 931 q 618 925 572 925 q 733 931 665 925 l 733 886 q 658 867 675 883 q 642 790 642 850 l 642 313 q 599 103 642 178 q 382 -15 531 -15 q 160 107 229 -15 q 119 301 119 178 l 119 790 q 103 867 119 850 q 28 886 86 883 l 28 931 q 189 921 126 921 q 349 931 250 921 l 349 886 q 273 867 289 885 q 257 790 257 850 l 257 276 q 285 129 257 175 q 415 58 328 58 q 499 81 460 58 q 558 139 539 103 q 593 317 593 199 l 593 790 q 576 867 593 850 q 500 886 560 883 m 235 1194 l 281 1194 q 326 1121 304 1139 q 393 1103 349 1103 q 460 1121 438 1103 q 506 1194 482 1139 l 550 1194 q 526 1090 544 1131 q 474 1026 510 1050 q 393 1001 438 1001 q 313 1026 349 1001 q 258 1090 276 1050 q 235 1194 242 1131 z "},"ŭ":{"ha":638,"x_min":18,"x_max":608,"o":"m 18 606 l 18 638 q 226 681 119 647 l 226 200 q 245 91 226 125 q 307 57 264 57 q 396 210 396 57 l 396 515 q 384 590 396 575 q 326 606 372 606 l 322 606 l 319 606 l 319 638 q 528 681 421 647 l 528 149 q 539 72 528 88 q 597 57 550 57 l 608 57 l 608 25 q 424 -19 497 11 q 413 89 413 36 q 349 12 383 35 q 263 -11 314 -11 q 94 217 94 -11 l 94 239 l 94 514 q 83 590 94 575 q 25 606 71 606 l 21 606 l 18 606 m 157 957 l 201 957 q 249 883 226 903 q 313 864 272 864 q 377 883 354 864 q 424 957 400 903 l 469 957 q 446 853 461 892 q 393 788 429 813 q 313 764 357 764 q 233 788 269 764 q 181 853 197 813 q 157 957 163 897 z "},"Ů":{"ha":763,"x_min":28,"x_max":733,"o":"m 500 886 l 500 931 q 618 925 572 925 q 733 931 665 925 l 733 886 q 658 867 675 883 q 642 790 642 850 l 642 313 q 599 103 642 178 q 382 -15 531 -15 q 160 107 229 -15 q 119 301 119 178 l 119 790 q 103 867 119 850 q 28 886 86 883 l 28 931 q 189 921 126 921 q 349 931 250 921 l 349 886 q 273 867 289 885 q 257 790 257 850 l 257 276 q 285 129 257 175 q 415 58 328 58 q 499 81 460 58 q 558 139 539 103 q 593 317 593 199 l 593 790 q 576 867 593 850 q 500 886 560 883 m 411 1222 q 492 1188 458 1222 q 525 1106 525 1154 q 491 1023 525 1057 q 410 989 457 989 q 327 1024 361 989 q 293 1107 293 1058 q 328 1188 293 1154 q 411 1222 363 1222 m 410 1168 q 365 1150 383 1168 q 347 1106 347 1132 q 365 1061 347 1079 q 410 1043 383 1043 q 453 1061 435 1043 q 471 1106 471 1079 q 453 1149 471 1131 q 410 1168 435 1168 z "},"ů":{"ha":638,"x_min":18,"x_max":608,"o":"m 18 606 l 18 638 q 226 681 119 647 l 226 200 q 245 91 226 125 q 307 57 264 57 q 396 210 396 57 l 396 515 q 384 590 396 575 q 326 606 372 606 l 322 606 l 319 606 l 319 638 q 528 681 421 647 l 528 149 q 539 72 528 88 q 597 57 550 57 l 608 57 l 608 25 q 424 -19 497 11 q 413 89 413 36 q 349 12 383 35 q 263 -11 314 -11 q 94 217 94 -11 l 94 239 l 94 514 q 83 590 94 575 q 25 606 71 606 l 21 606 l 18 606 m 315 989 q 396 955 363 989 q 429 872 429 921 q 395 790 429 824 q 314 756 361 756 q 233 790 267 756 q 199 872 199 824 q 233 955 199 921 q 315 989 267 989 m 315 935 q 271 917 289 935 q 253 872 253 899 q 271 828 253 846 q 314 810 289 810 q 357 828 339 810 q 375 872 375 846 q 357 916 375 897 q 315 935 339 935 z "},"Ű":{"ha":763,"x_min":28,"x_max":733,"o":"m 500 886 l 500 931 q 618 925 572 925 q 733 931 665 925 l 733 886 q 658 867 675 883 q 642 790 642 850 l 642 313 q 599 103 642 178 q 382 -15 531 -15 q 160 107 229 -15 q 119 301 119 178 l 119 790 q 103 867 119 850 q 28 886 86 883 l 28 931 q 189 921 126 921 q 349 931 250 921 l 349 886 q 273 867 289 885 q 257 790 257 850 l 257 276 q 285 129 257 175 q 415 58 328 58 q 499 81 460 58 q 558 139 539 103 q 593 317 593 199 l 593 790 q 576 867 593 850 q 500 886 560 883 m 453 1004 l 564 1190 l 704 1190 l 518 1004 l 453 1004 m 263 1004 l 374 1190 l 514 1190 l 328 1004 l 263 1004 z "},"ű":{"ha":638,"x_min":18,"x_max":608,"o":"m 18 606 l 18 638 q 226 681 119 647 l 226 200 q 245 91 226 125 q 307 57 264 57 q 396 210 396 57 l 396 515 q 384 590 396 575 q 326 606 372 606 l 322 606 l 319 606 l 319 638 q 528 681 421 647 l 528 149 q 539 72 528 88 q 597 57 550 57 l 608 57 l 608 25 q 424 -19 497 11 q 413 89 413 36 q 349 12 383 35 q 263 -11 314 -11 q 94 217 94 -11 l 94 239 l 94 514 q 83 590 94 575 q 25 606 71 606 l 21 606 l 18 606 m 188 764 l 281 961 l 410 961 l 246 764 l 188 764 m 353 764 l 450 961 l 579 961 l 411 764 l 353 764 z "},"Ų":{"ha":763,"x_min":28,"x_max":733,"o":"m 733 931 l 733 886 q 658 867 675 883 q 642 790 642 850 l 642 313 q 626 169 642 221 q 561 53 610 117 q 546 33 551 42 l 521 -3 q 479 -112 479 -57 q 494 -158 479 -140 q 531 -176 508 -176 q 588 -162 551 -176 l 588 -210 q 492 -233 536 -233 q 411 -204 443 -233 q 379 -129 379 -175 q 394 -72 379 -96 q 458 -6 410 -49 q 383 -15 414 -15 q 160 106 229 -15 q 119 301 119 178 l 119 790 q 103 867 119 850 q 28 886 88 885 l 28 931 q 189 921 126 921 q 349 931 250 921 l 349 886 q 274 867 290 883 q 257 790 257 850 l 257 276 q 285 129 257 175 q 415 58 328 58 q 499 81 460 58 q 558 139 539 103 q 593 317 593 201 l 593 790 q 576 867 593 849 q 500 886 560 885 l 500 931 q 618 925 572 925 q 733 931 665 925 z "},"ų":{"ha":638,"x_min":18,"x_max":608,"o":"m 608 57 l 608 25 q 538 -44 557 -17 q 519 -104 519 -71 q 533 -147 519 -131 q 568 -164 546 -164 q 608 -156 589 -164 l 608 -201 q 531 -219 571 -219 q 452 -190 483 -219 q 421 -117 421 -161 q 539 14 421 -36 q 424 -19 469 0 q 413 89 413 36 q 349 12 383 35 q 263 -11 314 -11 q 94 217 94 -11 l 94 514 q 83 590 94 575 q 25 606 71 606 l 21 606 l 18 606 l 18 638 q 226 681 119 647 l 226 200 q 245 91 226 125 q 307 57 264 57 q 396 210 396 57 l 396 515 q 384 590 396 575 q 326 606 372 606 l 322 606 l 319 606 l 319 638 q 528 681 421 647 l 528 149 q 539 72 528 88 q 597 57 550 57 l 608 57 z "},"Ŵ":{"ha":1010,"x_min":24,"x_max":993,"o":"m 328 -19 l 299 -19 q 282 69 292 24 l 119 783 q 87 862 106 842 q 24 886 68 882 l 24 931 q 175 921 107 921 q 326 931 243 921 l 326 886 q 253 842 253 879 q 261 788 253 821 l 367 318 l 536 956 l 569 956 l 736 315 l 844 781 q 853 843 853 818 q 838 875 853 865 q 783 886 822 885 l 783 931 q 888 925 840 925 q 993 931 933 925 l 993 886 q 930 865 947 882 q 897 793 913 847 l 731 81 q 710 -19 719 38 l 679 -19 q 672 17 674 11 l 669 29 q 660 65 663 57 l 506 664 l 353 83 q 328 -19 338 35 m 360 1004 l 524 1194 l 571 1194 l 735 1004 l 674 1004 l 547 1089 l 421 1004 l 360 1004 z "},"ŵ":{"ha":822,"x_min":11,"x_max":814,"o":"m 418 436 l 296 36 q 282 -19 288 10 l 247 -19 l 238 14 l 233 31 l 93 544 q 63 608 78 593 q 11 625 49 624 l 11 660 q 146 653 86 653 q 279 660 204 653 l 279 625 q 219 594 219 621 q 225 564 219 581 l 311 232 l 444 676 l 481 676 l 604 232 l 688 550 q 694 596 694 581 q 638 625 694 624 l 638 660 q 728 654 693 654 q 814 660 764 654 l 814 625 q 763 604 779 621 q 732 543 747 588 l 592 31 l 586 13 l 583 1 q 579 -19 581 -10 l 542 -19 q 531 21 536 3 l 528 31 l 418 436 m 281 764 l 438 963 l 483 963 l 640 764 l 582 764 l 461 849 l 339 764 l 281 764 z "},"Ŷ":{"ha":686,"x_min":19,"x_max":672,"o":"m 183 -4 l 183 40 q 259 60 243 43 q 275 136 275 76 l 275 401 l 126 786 q 83 862 104 842 q 19 886 61 882 l 19 931 q 175 921 106 921 q 332 931 244 921 l 332 886 q 274 875 290 883 q 257 849 257 867 q 269 796 257 829 l 392 475 l 513 790 q 529 851 529 828 q 457 886 529 882 l 457 931 q 565 925 522 925 q 672 931 610 925 l 672 886 q 608 865 628 881 q 569 804 588 850 l 413 401 l 413 136 q 428 60 413 76 q 504 40 444 43 l 504 -4 q 344 6 406 6 q 183 -4 285 6 m 189 1004 l 353 1194 l 400 1194 l 564 1004 l 503 1004 l 376 1089 l 250 1004 l 189 1004 z "},"ŷ":{"ha":571,"x_min":11,"x_max":564,"o":"m 261 19 l 97 543 q 64 606 81 590 q 11 625 47 622 l 11 660 q 146 653 82 653 q 281 660 211 653 l 281 625 q 224 597 224 621 q 233 556 224 585 l 328 221 l 431 546 q 442 599 442 583 q 382 625 442 624 l 382 660 q 469 654 431 654 q 564 660 510 654 l 564 625 q 513 603 531 621 q 478 536 496 585 l 268 -108 q 197 -236 239 -197 q 90 -275 156 -275 q 65 -274 76 -275 l 65 -199 q 86 -200 75 -200 q 168 -174 136 -200 q 222 -87 200 -147 l 261 19 m 124 764 l 279 963 l 326 963 l 482 764 l 424 764 l 303 849 l 182 764 l 124 764 z "},"Ÿ":{"ha":686,"x_min":19,"x_max":672,"o":"m 183 -4 l 183 40 q 259 60 243 43 q 275 136 275 76 l 275 401 l 126 786 q 83 862 104 842 q 19 886 61 882 l 19 931 q 175 921 106 921 q 332 931 244 921 l 332 886 q 274 875 290 883 q 257 849 257 867 q 269 796 257 829 l 392 475 l 513 790 q 529 851 529 828 q 457 886 529 882 l 457 931 q 565 925 522 925 q 672 931 610 925 l 672 886 q 608 865 628 881 q 569 804 588 850 l 413 401 l 413 136 q 428 60 413 76 q 504 40 444 43 l 504 -4 q 344 6 406 6 q 183 -4 285 6 m 271 1175 q 326 1151 303 1175 q 350 1096 350 1128 q 326 1039 350 1063 q 269 1015 303 1015 q 214 1039 238 1015 q 190 1096 190 1063 q 214 1152 190 1129 q 271 1175 238 1175 m 483 1175 q 539 1151 515 1175 q 563 1096 563 1128 q 539 1039 563 1063 q 483 1015 515 1015 q 426 1039 450 1015 q 403 1094 403 1063 q 426 1152 403 1129 q 483 1175 450 1175 z "},"Ź":{"ha":628,"x_min":32,"x_max":596,"o":"m 32 0 l 408 878 l 283 878 q 178 840 214 878 q 117 699 143 803 l 75 699 l 107 926 l 579 926 l 204 49 l 375 49 q 479 86 450 49 q 554 256 524 140 l 594 256 l 560 0 l 32 0 m 297 1004 l 414 1190 l 596 1190 l 354 1004 l 297 1004 z "},"ź":{"ha":513,"x_min":36,"x_max":492,"o":"m 36 0 l 311 614 l 231 614 q 149 584 175 614 q 94 460 122 554 l 60 460 l 86 656 l 474 656 l 199 42 l 288 42 q 374 78 344 42 q 432 218 404 114 l 467 218 l 436 0 l 36 0 m 236 764 l 325 961 l 492 961 l 293 764 l 236 764 z "},"Ż":{"ha":628,"x_min":32,"x_max":594,"o":"m 32 0 l 408 878 l 283 878 q 178 840 214 878 q 117 699 143 803 l 75 699 l 107 926 l 579 926 l 204 49 l 375 49 q 479 86 450 49 q 554 256 524 140 l 594 256 l 560 0 l 32 0 m 340 1175 q 396 1151 372 1175 q 419 1096 419 1128 q 396 1039 419 1063 q 339 1015 372 1015 q 283 1039 307 1015 q 260 1096 260 1063 q 283 1152 260 1129 q 340 1175 307 1175 z "},"ż":{"ha":513,"x_min":36,"x_max":474,"o":"m 36 0 l 311 614 l 231 614 q 149 584 175 614 q 94 460 122 554 l 60 460 l 86 656 l 474 656 l 199 42 l 288 42 q 374 78 344 42 q 432 218 404 114 l 467 218 l 436 0 l 36 0 m 285 938 q 342 913 318 938 q 367 854 367 889 q 342 795 367 819 q 283 771 318 771 q 224 795 249 771 q 200 854 200 819 q 224 913 200 889 q 285 938 249 938 z "},"Ž":{"ha":628,"x_min":32,"x_max":594,"o":"m 32 0 l 408 878 l 283 878 q 178 840 214 878 q 117 699 143 803 l 75 699 l 107 926 l 579 926 l 204 49 l 375 49 q 479 86 450 49 q 554 256 524 140 l 594 256 l 560 0 l 32 0 m 150 1194 l 211 1194 l 338 1110 l 464 1194 l 525 1194 l 361 1004 l 314 1004 l 150 1194 z "},"ž":{"ha":513,"x_min":36,"x_max":474,"o":"m 36 0 l 311 614 l 231 614 q 149 584 175 614 q 94 460 122 554 l 60 460 l 86 656 l 474 656 l 199 42 l 288 42 q 374 78 344 42 q 432 218 404 114 l 467 218 l 436 0 l 36 0 m 101 963 l 160 963 l 281 878 l 403 963 l 461 963 l 304 764 l 257 764 l 101 963 z "},"ſ":{"ha":364,"x_min":28,"x_max":411,"o":"m 315 31 l 315 -4 q 174 4 242 4 q 28 -4 104 4 l 28 31 q 93 47 81 33 q 106 111 106 60 l 106 742 q 152 896 106 840 q 282 951 199 951 q 376 919 340 951 q 411 836 411 888 q 358 775 411 775 q 306 819 306 775 q 311 844 306 829 q 319 879 319 867 q 310 903 319 893 q 289 914 301 914 q 238 781 238 914 l 238 111 q 250 47 238 60 q 315 31 263 33 z "},"Ə":{"ha":731,"x_min":51,"x_max":681,"o":"m 53 499 l 535 499 q 331 885 528 885 q 194 817 249 885 q 121 626 140 750 l 65 626 q 163 863 86 778 q 358 947 240 947 q 595 819 510 947 q 681 463 681 690 q 594 110 681 242 q 363 -21 508 -21 q 225 17 289 -21 q 126 119 161 56 q 51 447 51 256 q 53 499 51 476 m 535 442 l 194 442 q 241 121 201 221 q 361 21 281 21 q 486 123 443 21 q 535 442 529 225 z "},"ƒ":{"ha":618,"x_min":0,"x_max":619,"o":"m 532 654 l 526 600 l 406 600 l 351 217 q 282 -75 322 4 q 126 -178 228 -178 q 33 -147 67 -178 q 0 -64 0 -117 q 15 -12 0 -32 q 56 8 31 8 q 88 -4 75 8 q 101 -35 101 -17 q 94 -69 101 -49 q 89 -101 89 -94 q 97 -120 89 -112 q 117 -128 106 -128 q 162 -87 144 -128 q 193 50 179 -47 l 271 600 l 192 600 l 197 650 l 213 650 q 275 671 261 650 q 304 772 285 685 q 372 933 328 885 q 494 982 417 982 q 587 953 554 982 q 619 871 619 924 q 605 818 619 838 q 567 799 590 799 q 533 812 547 799 q 519 843 519 825 q 525 876 519 861 q 531 910 531 894 q 523 926 531 919 q 506 933 515 933 q 436 813 453 933 l 414 654 l 532 654 z "},"Ǎ":{"ha":744,"x_min":14,"x_max":731,"o":"m 217 257 l 183 146 q 169 81 169 106 q 187 51 169 61 q 246 40 204 42 l 246 -4 q 124 3 156 3 q 14 -4 81 3 l 14 40 q 88 65 67 43 q 135 163 108 86 l 385 958 l 624 132 q 660 61 640 78 q 731 40 679 44 l 731 -4 q 554 1 668 1 q 411 -4 485 1 l 411 40 q 469 51 451 43 q 486 78 486 60 q 478 129 486 96 l 446 257 l 217 257 m 232 308 l 433 308 l 340 661 l 232 308 m 197 1194 l 257 1194 l 385 1110 l 511 1194 l 571 1194 l 407 1004 l 361 1004 l 197 1194 z "},"ǎ":{"ha":546,"x_min":39,"x_max":524,"o":"m 524 40 l 524 1 q 444 -12 478 -12 q 336 82 358 -12 q 199 -14 286 -14 q 83 35 126 -14 q 39 165 39 85 q 119 331 39 274 q 322 408 201 386 l 322 504 q 249 628 322 628 q 200 609 221 628 q 179 565 179 590 q 181 536 179 547 q 182 507 182 525 q 165 459 182 476 q 121 442 149 442 q 72 499 72 442 q 128 620 72 571 q 265 669 185 669 q 428 579 379 669 q 454 400 454 531 l 454 140 q 463 56 454 79 q 494 33 472 33 q 524 40 506 33 m 322 242 l 322 371 q 206 305 240 347 q 172 182 172 263 q 192 90 172 124 q 243 56 211 56 q 300 92 279 56 q 322 242 322 135 m 86 963 l 144 963 l 265 878 l 388 963 l 446 963 l 289 764 l 242 764 l 86 963 z "},"Ǒ":{"ha":326,"x_min":75,"x_max":258,"o":"m 126 619 l 203 619 l 238 0 l 92 0 l 126 619 m 167 928 q 231 901 204 928 q 258 836 258 874 q 231 772 258 799 q 168 744 204 744 q 102 771 129 744 q 75 835 75 797 q 101 901 75 874 q 167 928 128 928 z "},"ǒ":{"ha":549,"x_min":42,"x_max":507,"o":"m 278 674 q 425 606 365 674 q 484 486 461 564 q 507 326 507 408 q 442 78 507 174 q 274 -17 378 -17 q 106 78 169 -17 q 42 328 42 172 q 106 578 42 483 q 278 674 171 674 m 275 636 q 178 324 178 636 q 274 21 178 21 q 371 307 371 21 q 349 559 371 482 q 275 636 326 636 m 94 963 l 153 963 l 274 878 l 396 963 l 454 963 l 297 764 l 251 764 l 94 963 z "},"Ǔ":{"ha":763,"x_min":28,"x_max":733,"o":"m 500 886 l 500 931 q 618 925 572 925 q 733 931 665 925 l 733 886 q 658 867 675 883 q 642 790 642 850 l 642 313 q 599 103 642 178 q 382 -15 531 -15 q 160 107 229 -15 q 119 301 119 178 l 119 790 q 103 867 119 850 q 28 886 86 883 l 28 931 q 189 921 126 921 q 349 931 250 921 l 349 886 q 273 867 289 885 q 257 790 257 850 l 257 276 q 285 129 257 175 q 415 58 328 58 q 499 81 460 58 q 558 139 539 103 q 593 317 593 199 l 593 790 q 576 867 593 850 q 500 886 560 883 m 226 1194 l 286 1194 l 413 1110 l 540 1194 l 600 1194 l 436 1004 l 390 1004 l 226 1194 z "},"ǔ":{"ha":638,"x_min":18,"x_max":608,"o":"m 18 606 l 18 638 q 226 681 119 647 l 226 200 q 245 91 226 125 q 307 57 264 57 q 396 210 396 57 l 396 515 q 384 590 396 575 q 326 606 372 606 l 322 606 l 319 606 l 319 638 q 528 681 421 647 l 528 149 q 539 72 528 88 q 597 57 550 57 l 608 57 l 608 25 q 424 -19 497 11 q 413 89 413 36 q 349 12 383 35 q 263 -11 314 -11 q 94 217 94 -11 l 94 239 l 94 514 q 83 590 94 575 q 25 606 71 606 l 21 606 l 18 606 m 133 963 l 192 963 l 313 878 l 435 963 l 493 963 l 336 764 l 289 764 l 133 963 z "},"ǝ":{"ha":529,"x_min":42,"x_max":488,"o":"m 92 447 l 42 447 q 109 615 56 556 q 249 674 163 674 q 423 580 358 674 q 488 328 488 486 q 424 78 488 174 q 258 -17 361 -17 q 142 24 192 -17 q 68 140 93 64 q 42 322 46 208 l 351 322 q 322 554 350 486 q 225 622 293 622 q 92 447 114 622 m 351 272 l 175 272 q 258 21 179 21 q 351 272 340 21 z "},"Ǧ":{"ha":738,"x_min":51,"x_max":711,"o":"m 564 854 l 599 946 l 628 946 l 628 644 l 586 644 q 515 836 561 775 q 393 897 468 897 q 196 457 196 897 q 386 28 196 28 q 504 63 444 28 l 504 308 q 490 366 504 353 q 424 382 475 379 l 424 426 q 568 418 515 418 q 711 426 617 418 l 711 382 q 650 365 663 378 q 638 306 638 351 l 638 93 q 376 -15 504 -15 q 138 113 225 -15 q 51 464 51 242 q 138 813 51 685 q 374 942 225 942 q 564 854 485 942 m 188 1194 l 247 1194 l 375 1110 l 501 1194 l 561 1194 l 399 1004 l 351 1004 l 188 1194 z "},"ǧ":{"ha":560,"x_min":33,"x_max":535,"o":"m 385 632 l 535 632 l 535 569 l 431 578 q 464 449 464 522 q 357 254 464 304 q 264 229 336 243 q 163 167 163 210 q 236 124 163 128 q 426 92 371 118 q 519 -65 519 49 q 449 -223 519 -162 q 264 -283 378 -283 q 96 -234 158 -283 q 33 -101 33 -185 q 124 36 33 -6 q 69 131 69 75 q 186 250 69 221 q 65 453 65 306 q 119 612 65 554 q 267 669 172 669 q 385 632 336 669 m 265 632 q 208 587 229 632 q 188 465 188 542 q 265 274 188 274 q 321 319 301 274 q 340 449 340 365 q 265 632 340 632 m 231 -3 q 93 -103 93 -3 q 141 -197 93 -160 q 263 -233 189 -233 q 375 -201 333 -233 q 417 -115 417 -169 q 231 -3 417 -3 m 89 963 l 147 963 l 268 878 l 390 963 l 449 963 l 292 764 l 244 764 l 89 963 z "},"Ǵ":{"ha":739,"x_min":51,"x_max":711,"o":"m 564 854 l 599 946 l 628 946 l 628 644 l 586 644 q 515 836 561 775 q 393 897 468 897 q 196 457 196 897 q 386 28 196 28 q 504 63 444 28 l 504 308 q 490 366 504 353 q 424 382 475 379 l 424 426 q 568 418 515 418 q 711 426 617 418 l 711 382 q 650 365 663 378 q 638 306 638 351 l 638 93 q 376 -15 504 -15 q 138 113 225 -15 q 51 464 51 242 q 138 813 51 685 q 374 942 225 942 q 564 854 485 942 m 346 1004 l 463 1190 l 644 1190 l 403 1004 l 346 1004 z "},"Ǻ":{"ha":744,"x_min":14,"x_max":731,"o":"m 217 257 l 183 146 q 169 81 169 106 q 187 51 169 61 q 246 40 204 42 l 246 -4 q 124 3 156 3 q 14 -4 81 3 l 14 40 q 88 65 67 43 q 135 163 108 86 l 385 958 l 624 132 q 660 61 640 78 q 731 40 679 44 l 731 -4 q 554 1 668 1 q 411 -4 485 1 l 411 40 q 469 51 451 43 q 486 78 486 60 q 478 129 486 96 l 446 257 l 217 257 m 232 308 l 433 308 l 340 661 l 232 308 m 385 1210 q 465 1176 432 1210 q 499 1093 499 1142 q 465 1010 499 1044 q 383 976 431 976 q 301 1011 335 976 q 267 1094 267 1046 q 301 1176 267 1142 q 385 1210 336 1210 m 383 1156 q 339 1138 357 1156 q 321 1093 321 1119 q 339 1049 321 1067 q 383 1031 357 1031 q 426 1049 408 1031 q 444 1093 444 1067 q 426 1137 444 1118 q 383 1156 408 1156 m 208 1172 l 325 1357 l 507 1357 l 265 1172 l 208 1172 z "},"Ǽ":{"ha":1022,"x_min":8,"x_max":975,"o":"m 517 300 l 258 300 l 179 126 q 165 75 165 94 q 181 50 165 57 q 239 40 196 43 l 239 -4 q 124 1 167 1 q 8 -4 81 1 l 8 40 q 78 62 56 42 q 135 151 100 82 l 492 926 l 936 926 l 964 696 l 924 696 q 874 840 903 803 q 783 878 846 878 l 654 878 l 654 506 l 776 506 q 825 526 811 506 q 842 601 839 546 l 843 621 l 883 621 l 883 342 l 843 342 q 827 433 842 410 q 775 457 813 457 l 654 457 l 654 125 q 668 64 654 79 q 722 49 682 49 l 772 49 q 871 89 843 49 q 935 244 914 147 l 975 244 l 943 0 l 422 0 l 422 44 q 500 65 483 47 q 517 140 517 82 l 517 300 m 517 351 l 517 867 l 282 351 l 517 351 m 529 1004 l 646 1190 l 828 1190 l 586 1004 l 529 1004 z "},"ǽ":{"ha":813,"x_min":39,"x_max":771,"o":"m 721 210 l 771 210 q 703 44 757 103 q 561 -14 649 -14 q 361 129 428 -14 q 296 20 335 54 q 199 -14 257 -14 q 83 35 128 -14 q 39 161 39 83 q 126 324 39 267 q 325 386 208 376 l 325 504 q 249 628 325 628 q 199 609 219 628 q 178 564 178 590 q 179 539 178 554 q 182 510 182 526 q 121 443 182 443 q 72 500 72 443 q 128 620 72 571 q 265 669 185 669 q 408 604 356 669 q 554 669 469 669 q 744 515 692 669 q 771 336 767 447 l 460 336 q 491 106 463 174 q 588 38 519 38 q 676 83 642 38 q 721 210 710 128 m 461 388 l 638 388 q 553 629 633 629 q 461 388 471 629 m 325 242 l 325 339 q 207 286 242 324 q 172 175 172 249 q 192 89 172 122 q 243 56 211 56 q 301 93 281 56 q 325 242 325 135 m 356 764 l 443 961 l 610 961 l 411 764 l 356 764 z "},"Ǿ":{"ha":732,"x_min":32,"x_max":703,"o":"m 703 926 l 614 790 q 682 467 682 649 q 597 111 682 243 q 365 -21 511 -21 q 150 89 235 -21 l 90 0 l 32 0 l 121 135 q 51 463 51 267 q 138 815 51 683 q 367 947 224 947 q 583 836 500 947 l 643 926 l 703 926 m 526 661 l 221 196 q 275 67 236 113 q 368 21 314 21 q 494 133 449 21 q 539 449 539 246 q 526 661 539 544 m 208 265 l 514 732 q 460 860 497 815 q 371 906 422 906 q 240 790 286 906 q 194 457 194 674 q 208 265 194 354 m 300 1004 l 417 1190 l 599 1190 l 357 1004 l 300 1004 z "},"ǿ":{"ha":549,"x_min":18,"x_max":529,"o":"m 529 669 l 456 558 q 507 324 507 456 q 442 78 507 172 q 274 -17 378 -17 q 121 58 182 -17 l 74 -12 l 18 -12 l 93 100 q 42 328 42 193 q 106 579 42 483 q 276 675 171 675 q 428 603 371 675 l 472 669 l 529 669 m 368 428 l 189 158 q 219 53 199 86 q 274 21 239 21 q 371 314 371 21 q 368 428 371 382 m 181 232 l 361 501 q 276 638 342 638 q 178 338 178 638 q 181 232 178 310 m 240 764 l 329 961 l 496 961 l 297 764 l 240 764 z "},"Ș":{"ha":606,"x_min":65,"x_max":551,"o":"m 300 -357 l 246 -357 q 307 -225 297 -296 l 306 -225 l 300 -225 q 256 -205 274 -225 q 238 -153 238 -185 q 258 -98 238 -119 q 310 -76 278 -76 q 365 -101 344 -76 q 385 -165 385 -125 q 300 -357 385 -258 m 65 294 l 106 294 q 170 104 121 171 q 296 38 219 38 q 395 85 356 38 q 435 204 435 132 q 401 315 435 269 q 279 417 368 360 q 119 550 161 492 q 78 696 78 608 q 140 873 78 806 q 304 940 203 940 q 460 864 394 940 l 490 949 l 518 949 l 518 674 l 478 674 q 318 892 446 892 q 230 849 265 892 q 194 740 194 806 q 224 647 194 682 q 354 546 253 611 q 510 412 469 472 q 551 258 551 351 q 486 63 551 139 q 319 -14 421 -14 q 129 72 217 -14 l 93 -26 l 65 -26 l 65 294 z "},"ș":{"ha":507,"x_min":65,"x_max":449,"o":"m 65 -21 l 65 222 l 100 222 q 239 33 124 33 q 308 64 281 33 q 335 142 335 94 q 317 203 335 179 q 249 260 300 228 q 118 351 144 328 q 67 482 67 396 q 118 617 67 564 q 250 669 169 669 q 374 619 319 669 l 394 686 l 419 686 l 419 461 l 385 461 q 269 624 368 624 q 202 594 229 624 q 175 522 175 565 q 192 469 175 490 q 265 413 210 447 q 406 314 381 343 q 449 189 449 268 q 394 43 449 100 q 257 -14 340 -14 q 117 50 179 -14 l 90 -21 l 65 -21 m 246 -357 l 192 -357 q 254 -222 244 -297 l 253 -222 l 249 -222 q 203 -202 221 -222 q 186 -151 186 -182 q 206 -97 186 -118 q 257 -76 225 -76 q 310 -100 290 -76 q 331 -164 331 -124 q 246 -357 331 -256 z "},"Ț":{"ha":629,"x_min":24,"x_max":607,"o":"m 607 688 l 567 688 q 515 836 546 794 q 422 878 483 878 l 383 878 l 383 136 q 399 60 383 76 q 475 40 415 43 l 475 -4 q 319 6 382 6 q 156 -4 257 6 l 156 40 q 231 60 215 44 q 246 136 246 76 l 246 878 l 211 878 q 118 836 150 878 q 65 688 86 794 l 24 688 l 57 926 l 574 926 l 607 688 m 307 -357 l 253 -357 q 313 -225 304 -293 l 311 -225 l 307 -225 q 263 -205 281 -225 q 244 -153 244 -185 q 265 -98 244 -119 q 317 -76 285 -76 q 372 -101 351 -76 q 392 -165 392 -125 q 307 -357 392 -258 z "},"ț":{"ha":368,"x_min":32,"x_max":357,"o":"m 357 83 l 357 33 q 292 -4 314 4 q 238 -12 269 -12 q 92 189 83 -12 l 92 201 l 99 603 l 32 603 l 32 651 q 188 858 151 651 l 232 858 l 231 656 l 347 656 l 347 603 l 229 603 l 228 193 q 240 81 228 111 q 286 50 253 50 q 349 78 306 50 l 357 83 m 199 -357 l 144 -357 q 207 -222 197 -297 l 204 -222 l 200 -222 q 156 -202 174 -222 q 139 -151 139 -182 q 158 -97 139 -118 q 210 -76 178 -76 q 263 -100 243 -76 q 283 -164 283 -124 q 199 -357 283 -258 z "},"ə":{"ha":529,"x_min":42,"x_max":488,"o":"m 92 447 l 42 447 q 109 615 56 556 q 249 674 163 674 q 423 580 358 674 q 488 328 488 486 q 424 78 488 174 q 258 -17 361 -17 q 142 24 192 -17 q 68 140 93 64 q 42 322 46 208 l 351 322 q 322 554 350 486 q 225 622 293 622 q 92 447 114 622 m 351 272 l 175 272 q 258 21 179 21 q 351 272 340 21 z "},"ʼ":{"ha":288,"x_min":64,"x_max":225,"o":"m 124 619 l 65 619 q 142 779 129 694 l 135 779 q 84 802 104 779 q 64 858 64 825 q 87 918 64 894 q 144 942 110 942 q 203 917 182 942 q 225 847 225 892 q 124 619 225 739 z "},"ˆ":{"ha":561,"x_min":101,"x_max":461,"o":"m 101 764 l 257 963 l 304 963 l 461 764 l 403 764 l 281 849 l 160 764 l 101 764 z "},"ˇ":{"ha":561,"x_min":101,"x_max":461,"o":"m 101 963 l 160 963 l 281 878 l 403 963 l 461 963 l 304 764 l 257 764 l 101 963 z "},"ˉ":{"ha":561,"x_min":106,"x_max":454,"o":"m 106 815 l 106 894 l 454 894 l 454 815 l 106 815 z "},"˘":{"ha":560,"x_min":124,"x_max":436,"o":"m 124 957 l 168 957 q 216 883 193 903 q 279 864 239 864 q 344 883 321 864 q 390 957 367 903 l 436 957 q 413 853 428 892 q 360 788 396 813 q 279 764 324 764 q 200 788 236 764 q 147 853 164 813 q 124 957 129 897 z "},"˙":{"ha":451,"x_min":144,"x_max":311,"o":"m 229 938 q 287 913 263 938 q 311 854 311 889 q 287 795 311 819 q 228 771 263 771 q 169 795 193 771 q 144 854 144 819 q 169 913 144 889 q 229 938 193 938 z "},"˚":{"ha":568,"x_min":169,"x_max":400,"o":"m 286 989 q 367 955 333 989 q 400 872 400 921 q 366 790 400 824 q 285 756 332 756 q 203 790 238 756 q 169 872 169 824 q 203 955 169 921 q 286 989 238 989 m 286 935 q 242 917 260 935 q 224 872 224 899 q 242 828 224 846 q 285 810 260 810 q 328 828 310 810 q 346 872 346 846 q 328 916 346 897 q 286 935 310 935 z "},"˛":{"ha":561,"x_min":276,"x_max":463,"o":"m 411 18 l 461 8 q 375 -106 375 -51 q 389 -147 375 -131 q 424 -164 403 -164 q 463 -156 443 -164 l 463 -201 q 386 -219 425 -219 q 308 -190 339 -219 q 276 -117 276 -161 q 308 -43 276 -75 q 411 18 340 -11 z "},"˜":{"ha":561,"x_min":99,"x_max":463,"o":"m 140 778 l 99 789 q 147 903 121 871 q 218 935 174 935 q 307 894 257 935 q 361 864 342 864 q 394 878 381 864 q 421 932 407 893 l 463 922 q 342 771 429 771 q 303 780 319 771 q 244 822 286 789 q 201 843 219 843 q 167 828 181 843 q 140 778 153 814 z "},"˝":{"ha":561,"x_min":179,"x_max":571,"o":"m 179 764 l 274 961 l 401 961 l 239 764 l 179 764 m 344 764 l 442 961 l 571 961 l 403 764 l 344 764 z "},"·":{"ha":307,"x_min":63,"x_max":246,"o":"m 156 429 q 219 402 193 429 q 246 338 246 375 q 219 273 246 300 q 154 246 192 246 q 90 273 117 246 q 63 338 63 300 q 90 403 63 376 q 156 429 117 429 z "},"Ә":{"ha":731,"x_min":51,"x_max":681,"o":"m 53 499 l 535 499 q 331 885 528 885 q 194 817 249 885 q 121 626 140 750 l 65 626 q 163 863 86 778 q 358 947 240 947 q 595 819 510 947 q 681 463 681 690 q 594 110 681 242 q 363 -21 508 -21 q 225 17 289 -21 q 126 119 161 56 q 51 447 51 256 q 53 499 51 476 m 535 442 l 194 442 q 241 121 201 221 q 361 21 281 21 q 486 123 443 21 q 535 442 529 225 z "},"ә":{"ha":529,"x_min":42,"x_max":488,"o":"m 92 447 l 42 447 q 109 615 56 556 q 249 674 163 674 q 423 580 358 674 q 488 328 488 486 q 424 78 488 174 q 258 -17 361 -17 q 142 24 192 -17 q 68 140 93 64 q 42 322 46 208 l 351 322 q 322 554 350 486 q 225 622 293 622 q 92 447 114 622 m 351 272 l 175 272 q 258 21 179 21 q 351 272 340 21 z "},"Ẃ":{"ha":397,"x_min":53,"x_max":344,"o":"m 53 326 l 53 396 l 344 396 l 344 326 l 53 326 z "},"Ẅ":{"ha":1010,"x_min":24,"x_max":993,"o":"m 328 -19 l 299 -19 q 282 69 292 24 l 119 783 q 87 862 106 842 q 24 886 68 882 l 24 931 q 175 921 107 921 q 326 931 243 921 l 326 886 q 253 842 253 879 q 261 788 253 821 l 367 318 l 536 956 l 569 956 l 736 315 l 844 781 q 853 843 853 818 q 838 875 853 865 q 783 886 822 885 l 783 931 q 888 925 840 925 q 993 931 933 925 l 993 886 q 930 865 947 882 q 897 793 913 847 l 731 81 q 710 -19 719 38 l 679 -19 q 672 17 674 11 l 669 29 q 660 65 663 57 l 506 664 l 353 83 q 328 -19 338 35 m 449 1175 q 504 1151 481 1175 q 528 1096 528 1128 q 504 1039 528 1063 q 447 1015 481 1015 q 392 1039 415 1015 q 368 1096 368 1063 q 392 1152 368 1129 q 449 1175 415 1175 m 661 1175 q 717 1151 693 1175 q 740 1096 740 1128 q 717 1039 740 1063 q 661 1015 693 1015 q 604 1039 628 1015 q 581 1094 581 1063 q 604 1152 581 1129 q 661 1175 628 1175 z "}," ":{"ha":694,"x_min":0,"x_max":0,"o":""}," ":{"ha":1389,"x_min":0,"x_max":0,"o":""}," ":{"ha":463,"x_min":0,"x_max":0,"o":""}," ":{"ha":347,"x_min":0,"x_max":0,"o":""}," ":{"ha":232,"x_min":0,"x_max":0,"o":""}," ":{"ha":740,"x_min":0,"x_max":0,"o":""}," ":{"ha":354,"x_min":0,"x_max":0,"o":""}," ":{"ha":174,"x_min":0,"x_max":0,"o":""}," ":{"ha":58,"x_min":0,"x_max":0,"o":""},"‑":{"ha":297,"x_min":3,"x_max":294,"o":"m 3 326 l 3 396 l 294 396 l 294 326 l 3 326 z "},"‒":{"ha":599,"x_min":82,"x_max":515,"o":"m 82 326 l 82 396 l 515 396 l 515 326 l 82 326 z "},"–":{"ha":599,"x_min":82,"x_max":515,"o":"m 82 326 l 82 396 l 515 396 l 515 326 l 82 326 z "},"—":{"ha":706,"x_min":3,"x_max":703,"o":"m 3 326 l 3 396 l 703 396 l 703 326 l 3 326 z "},"―":{"ha":706,"x_min":3,"x_max":703,"o":"m 3 326 l 3 396 l 703 396 l 703 326 l 3 326 z "},"‗":{"ha":561,"x_min":25,"x_max":536,"o":"m 25 -49 l 536 -49 l 536 -117 l 25 -117 l 25 -49 m 25 -196 l 536 -196 l 536 -264 l 25 -264 l 25 -196 z "},"‘":{"ha":271,"x_min":61,"x_max":222,"o":"m 163 933 l 222 933 q 143 774 156 863 l 144 774 q 149 775 146 775 q 199 753 179 775 q 219 696 219 731 q 197 635 219 660 q 142 611 175 611 q 83 638 104 611 q 61 708 61 664 q 163 933 61 821 z "},"’":{"ha":282,"x_min":61,"x_max":214,"o":"m 133 779 l 131 779 l 128 779 q 80 801 99 779 q 61 857 61 822 q 83 918 61 894 q 138 942 104 942 q 193 915 172 942 q 214 844 214 889 q 121 619 214 738 l 63 619 q 133 779 124 697 z "},"‚":{"ha":282,"x_min":61,"x_max":214,"o":"m 133 -3 l 131 -3 l 128 -3 q 80 19 99 -3 q 61 75 61 40 q 83 136 61 113 q 138 160 104 160 q 193 133 172 160 q 214 63 214 107 q 121 -162 214 -44 l 63 -162 q 133 -3 124 -86 z "},"“":{"ha":483,"x_min":61,"x_max":418,"o":"m 358 933 l 418 933 q 339 774 351 863 l 340 774 q 346 775 343 775 q 395 753 375 775 q 415 696 415 731 q 393 635 415 660 q 338 611 371 611 q 278 638 300 611 q 257 708 257 664 q 358 933 257 821 m 163 933 l 222 933 q 143 774 156 863 l 144 774 q 149 775 146 775 q 199 753 179 775 q 219 696 219 731 q 197 635 219 660 q 142 611 175 611 q 83 638 104 611 q 61 708 61 664 q 163 933 61 821 z "},"”":{"ha":483,"x_min":61,"x_max":418,"o":"m 119 619 l 61 619 q 140 781 128 694 l 138 781 q 133 779 136 779 q 83 801 103 779 q 64 857 64 824 q 86 917 64 893 q 143 942 108 942 q 201 915 179 942 q 222 844 222 889 q 119 619 222 739 m 315 619 l 257 619 q 336 781 324 694 l 335 781 q 329 779 332 779 q 279 801 299 779 q 260 857 260 824 q 282 917 260 893 q 338 942 304 942 q 396 915 374 942 q 418 844 418 889 q 315 619 418 739 z "},"„":{"ha":483,"x_min":61,"x_max":418,"o":"m 119 -165 l 61 -165 q 140 -6 128 -90 l 138 -6 l 133 -6 q 83 17 103 -6 q 64 72 64 39 q 86 133 64 108 q 143 157 108 157 q 201 131 179 157 q 222 60 222 104 q 119 -165 222 -46 m 315 -165 l 257 -165 q 336 -6 324 -90 l 335 -6 l 329 -6 q 279 17 299 -6 q 260 72 260 39 q 282 133 260 108 q 338 157 304 157 q 396 131 374 157 q 418 60 418 104 q 315 -165 418 -46 z "},"†":{"ha":599,"x_min":81,"x_max":518,"o":"m 518 536 l 344 557 l 363 -169 l 236 -169 l 254 557 l 81 536 l 81 664 l 254 643 l 236 903 l 363 903 l 344 643 l 518 664 l 518 536 z "},"‡":{"ha":599,"x_min":81,"x_max":518,"o":"m 254 165 l 254 579 l 81 560 l 81 686 l 254 665 l 236 903 l 363 903 l 343 665 l 518 686 l 518 560 l 343 579 l 343 165 l 518 186 l 518 60 l 343 79 l 363 -169 l 236 -169 l 254 79 l 81 60 l 81 186 l 254 165 z "},"•":{"ha":799,"x_min":213,"x_max":588,"o":"m 403 657 q 533 602 479 657 q 588 469 588 547 q 533 337 588 392 q 400 282 478 282 q 267 337 322 282 q 213 469 213 392 q 267 602 213 547 q 403 657 322 657 z "},"…":{"ha":906,"x_min":61,"x_max":844,"o":"m 154 171 q 218 144 192 171 q 244 79 244 117 q 218 14 244 40 q 153 -12 192 -12 q 88 15 114 -12 q 61 81 61 42 q 88 144 61 118 q 154 171 115 171 m 457 171 q 521 144 494 171 q 547 79 547 117 q 520 14 547 40 q 456 -12 493 -12 q 390 15 417 -12 q 364 81 364 42 q 391 144 364 118 q 457 171 418 171 m 754 171 q 818 144 792 171 q 844 79 844 117 q 818 14 844 40 q 753 -12 792 -12 q 688 15 714 -12 q 661 81 661 42 q 688 144 661 118 q 754 171 715 171 z "},"‰":{"ha":1081,"x_min":38,"x_max":1044,"o":"m 83 871 q 105 903 83 871 q 196 935 128 935 q 307 872 264 935 q 350 713 350 810 q 306 553 350 617 q 193 489 261 489 q 81 552 125 489 q 38 713 38 615 q 83 871 38 807 m 196 896 q 133 726 133 896 q 194 528 133 528 q 254 711 254 528 q 196 896 254 896 m 532 438 q 642 375 599 438 q 685 215 685 313 q 640 56 685 119 q 529 -8 596 -8 q 417 55 461 -8 q 374 217 374 118 q 419 374 374 311 q 532 438 464 438 m 531 399 q 469 214 469 399 q 531 31 469 31 q 589 214 589 31 q 531 399 589 399 m 777 374 q 800 406 777 374 q 890 438 822 438 q 1001 375 958 438 q 1044 217 1044 313 q 1000 56 1044 119 q 888 -7 956 -7 q 776 56 819 -7 q 732 215 732 118 q 777 374 732 310 m 890 399 q 828 231 828 399 q 889 32 828 32 q 949 217 949 32 q 890 399 949 399 m 113 0 l 544 926 l 610 926 l 178 0 l 113 0 z "},"′":{"ha":274,"x_min":51,"x_max":211,"o":"m 132 792 l 131 792 l 126 792 q 81 813 99 793 q 64 864 64 832 q 84 920 64 899 q 136 942 104 942 q 191 917 171 942 q 211 850 211 892 q 106 631 211 739 l 51 631 q 132 792 124 703 z "},"″":{"ha":453,"x_min":51,"x_max":390,"o":"m 132 792 l 131 792 l 126 792 q 81 813 99 793 q 64 864 64 832 q 84 920 64 899 q 136 942 104 942 q 191 917 171 942 q 211 850 211 892 q 106 631 211 739 l 51 631 q 132 792 124 703 m 313 792 l 311 792 l 306 792 q 261 812 279 792 q 243 864 243 832 q 263 920 243 899 q 315 942 283 942 q 370 917 350 942 q 390 850 390 892 q 285 631 390 739 l 232 631 q 313 792 304 704 z "},"‹":{"ha":310,"x_min":50,"x_max":247,"o":"m 203 656 l 247 656 l 163 332 l 247 0 l 203 0 l 50 332 l 203 656 z "},"›":{"ha":311,"x_min":64,"x_max":261,"o":"m 108 656 l 261 332 l 108 0 l 64 0 l 149 332 l 64 656 l 108 656 z "},"‼":{"ha":569,"x_min":114,"x_max":456,"o":"m 189 283 l 153 283 q 132 568 153 374 l 125 631 q 114 792 114 722 q 131 896 114 851 q 171 940 147 940 q 211 897 194 940 q 228 793 228 853 q 217 631 228 724 l 210 568 q 189 283 189 389 m 171 111 q 210 93 194 111 q 226 49 226 75 q 210 7 226 25 q 171 -11 193 -11 q 132 7 149 -11 q 115 50 115 25 q 132 93 115 75 q 171 111 149 111 m 417 283 l 381 283 q 360 568 381 368 l 353 631 q 342 792 342 724 q 358 896 342 851 q 399 940 375 940 q 439 897 422 940 q 456 793 456 853 q 442 590 456 715 l 433 528 q 417 283 418 397 m 399 111 q 438 93 422 111 q 454 49 454 75 q 438 7 454 25 q 399 -11 421 -11 q 360 7 376 -11 q 343 50 343 25 q 360 93 343 75 q 399 111 376 111 z "},"‾":{"ha":569,"x_min":25,"x_max":544,"o":"m 25 1172 l 544 1172 l 544 1104 l 25 1104 l 25 1172 z "},"⁄":{"ha":72,"x_min":-207,"x_max":279,"o":"m -207 0 l 215 904 l 279 904 l -142 0 l -207 0 z "}," ":{"ha":308,"x_min":0,"x_max":0,"o":""},"⁰":{"ha":392,"x_min":40,"x_max":351,"o":"m 82 1070 q 103 1107 82 1070 q 196 1144 124 1144 q 310 1069 268 1144 q 351 867 351 994 q 310 660 351 735 q 196 585 269 585 q 81 659 122 585 q 40 868 40 733 q 82 1070 40 996 m 197 1113 q 135 868 135 1113 q 197 617 135 617 q 257 872 257 617 q 197 1113 257 1113 z "},"⁴":{"ha":390,"x_min":17,"x_max":361,"o":"m 196 586 l 196 729 l 17 729 l 197 1153 l 292 1153 l 292 803 l 361 803 l 361 729 l 292 729 l 292 586 l 196 586 m 199 803 l 199 1057 l 93 803 l 199 803 z "},"⁵":{"ha":392,"x_min":50,"x_max":342,"o":"m 310 1054 l 126 1054 l 108 928 q 200 964 151 964 q 303 915 264 964 q 342 785 342 865 q 298 640 342 696 q 185 583 254 583 q 88 624 124 583 q 50 742 53 665 l 90 742 q 163 650 100 650 q 222 686 200 650 q 244 783 244 722 q 224 871 244 838 q 168 904 203 904 q 96 843 122 904 l 57 849 l 97 1136 l 322 1136 l 310 1054 z "},"⁶":{"ha":392,"x_min":43,"x_max":349,"o":"m 257 1163 l 310 1163 q 169 960 222 1068 q 217 971 193 971 q 310 917 272 971 q 349 785 349 864 q 305 642 349 699 q 196 585 261 585 q 87 641 131 585 q 43 782 43 697 q 257 1163 43 961 m 197 931 q 139 781 139 931 q 194 618 139 618 q 251 772 251 618 q 197 931 251 931 z "},"⁷":{"ha":392,"x_min":42,"x_max":349,"o":"m 61 593 l 265 1053 l 42 1053 l 42 1136 l 349 1136 l 151 593 l 61 593 z "},"⁸":{"ha":392,"x_min":47,"x_max":343,"o":"m 268 878 q 343 744 343 839 q 303 628 343 671 q 197 585 264 585 q 88 628 129 585 q 47 740 47 671 q 122 878 47 835 q 57 1000 57 914 q 96 1104 57 1064 q 197 1144 135 1144 q 297 1105 260 1144 q 333 1000 333 1065 q 268 878 333 917 m 197 858 q 142 738 142 858 q 156 649 142 682 q 196 617 171 617 q 247 739 247 617 q 197 858 247 858 m 197 1113 q 151 1003 151 1113 q 196 892 151 892 q 238 1000 238 892 q 197 1113 238 1113 z "},"⁹":{"ha":392,"x_min":47,"x_max":347,"o":"m 139 565 l 86 565 q 224 769 182 672 q 176 758 200 758 q 84 812 121 758 q 47 946 47 865 q 90 1088 47 1032 q 197 1144 133 1144 q 304 1088 261 1144 q 347 949 347 1032 q 139 565 347 767 m 251 938 q 197 1111 251 1111 q 143 960 143 1111 q 196 799 143 799 q 251 938 251 799 z "},"⁽":{"ha":222,"x_min":46,"x_max":185,"o":"m 160 1199 l 185 1199 q 121 822 121 1049 q 185 454 121 606 l 160 454 q 46 828 46 597 q 160 1199 46 1057 z "},"⁾":{"ha":222,"x_min":38,"x_max":176,"o":"m 63 454 l 38 454 q 101 822 101 606 q 38 1199 101 1049 l 63 1199 q 176 825 176 1057 q 63 454 176 599 z "},"₀":{"ha":392,"x_min":40,"x_max":351,"o":"m 82 245 q 103 282 82 245 q 196 319 124 319 q 310 244 268 319 q 351 42 351 169 q 310 -165 351 -90 q 196 -240 269 -240 q 81 -166 122 -240 q 40 43 40 -92 q 82 245 40 171 m 197 286 q 135 47 135 286 q 197 -208 135 -208 q 257 47 257 -208 q 197 286 257 286 z "},"₁":{"ha":392,"x_min":79,"x_max":304,"o":"m 249 335 l 249 -147 q 257 -189 249 -179 q 296 -200 265 -199 l 304 -201 l 304 -235 q 201 -229 247 -229 q 99 -235 156 -229 l 99 -201 l 107 -200 q 146 -189 138 -199 q 154 -147 154 -179 l 154 211 l 79 211 l 79 244 q 164 272 126 247 q 215 335 201 296 l 249 335 z "},"₂":{"ha":392,"x_min":51,"x_max":338,"o":"m 338 -146 l 326 -232 l 51 -232 l 51 -160 l 81 -119 q 231 174 231 83 q 213 229 231 207 q 169 251 196 251 q 97 150 111 251 l 56 150 q 86 264 63 226 q 131 304 100 289 q 197 319 161 319 q 290 282 253 319 q 328 189 328 244 q 197 -62 328 92 q 174 -92 186 -76 q 152 -120 161 -108 q 142 -133 143 -132 l 132 -146 l 338 -146 z "},"₃":{"ha":392,"x_min":43,"x_max":340,"o":"m 43 -72 l 83 -72 q 107 -151 89 -126 q 161 -175 125 -175 q 223 -147 200 -175 q 246 -69 246 -118 q 222 9 246 -15 q 144 33 197 33 l 131 33 l 131 72 l 144 72 q 228 165 228 72 q 210 230 228 206 q 165 254 193 254 q 94 163 111 254 l 57 163 q 193 319 69 319 q 287 282 251 319 q 322 183 322 244 q 246 60 322 94 q 340 -74 340 31 q 297 -193 340 -146 q 185 -240 253 -240 q 43 -72 50 -240 z "},"₄":{"ha":392,"x_min":24,"x_max":368,"o":"m 203 -240 l 203 -97 l 24 -97 l 204 328 l 299 328 l 299 -24 l 368 -24 l 368 -97 l 299 -97 l 299 -240 l 203 -240 m 206 -24 l 206 231 l 100 -24 l 206 -24 z "},"₅":{"ha":392,"x_min":50,"x_max":342,"o":"m 310 231 l 126 231 l 108 104 q 200 140 151 140 q 303 91 264 140 q 342 -39 342 42 q 297 -184 342 -128 q 183 -240 253 -240 q 88 -199 122 -240 q 50 -82 53 -158 l 90 -82 q 163 -174 100 -174 q 222 -137 200 -174 q 244 -40 244 -101 q 224 47 244 14 q 168 81 203 81 q 96 19 122 81 l 57 25 l 97 313 l 322 313 l 310 231 z "},"₆":{"ha":392,"x_min":43,"x_max":349,"o":"m 257 339 l 310 339 q 169 135 219 240 q 217 146 193 146 q 311 93 274 146 q 349 -40 349 40 q 305 -182 349 -125 q 196 -239 261 -239 q 87 -183 131 -239 q 43 -43 43 -128 q 257 339 43 138 m 197 104 q 139 -39 139 104 q 194 -206 139 -206 q 251 -53 251 -206 q 197 104 251 104 z "},"₇":{"ha":392,"x_min":42,"x_max":349,"o":"m 61 -232 l 265 228 l 42 228 l 42 311 l 349 311 l 151 -232 l 61 -232 z "},"₈":{"ha":392,"x_min":47,"x_max":343,"o":"m 268 54 q 343 -81 343 14 q 303 -197 343 -154 q 197 -240 264 -240 q 88 -197 129 -240 q 47 -85 47 -154 q 122 53 47 10 q 57 175 57 92 q 96 279 57 239 q 197 319 135 319 q 297 280 260 319 q 333 175 333 240 q 268 54 333 93 m 197 35 q 142 -83 142 35 q 196 -208 142 -208 q 247 -85 247 -208 q 197 35 247 35 m 197 286 q 151 185 151 286 q 196 68 151 68 q 238 175 238 68 q 197 286 238 286 z "},"₉":{"ha":392,"x_min":47,"x_max":347,"o":"m 139 -260 l 86 -260 q 224 -56 185 -150 q 176 -65 196 -65 q 84 -12 121 -65 q 47 122 47 42 q 90 263 47 207 q 197 319 133 319 q 304 263 261 319 q 347 124 347 207 q 139 -260 347 -58 m 197 286 q 143 136 143 286 q 197 -24 143 -24 q 253 107 253 -24 q 197 286 253 286 z "},"₍":{"ha":222,"x_min":46,"x_max":185,"o":"m 160 385 l 185 385 q 121 8 121 235 q 185 -361 121 -210 l 160 -361 q 46 13 46 -219 q 160 385 46 243 z "},"₎":{"ha":222,"x_min":38,"x_max":176,"o":"m 63 -361 l 38 -361 q 101 8 101 -208 q 38 385 101 235 l 63 385 q 176 11 176 243 q 63 -361 176 -217 z "},"₣":{"ha":843,"x_min":36,"x_max":828,"o":"m 494 342 l 453 342 l 453 361 q 435 436 450 415 q 385 457 421 457 l 265 457 l 265 136 q 281 61 265 78 q 357 40 297 44 l 357 -4 q 196 6 264 6 q 36 -4 129 6 l 36 40 l 47 40 q 113 62 99 44 q 128 136 128 79 l 128 786 q 111 862 128 844 q 36 882 94 879 l 36 926 l 547 926 l 575 696 l 538 696 q 488 840 517 803 q 394 878 458 878 l 265 878 l 265 506 l 388 506 q 435 526 422 506 q 451 601 449 546 l 453 621 l 494 621 l 494 342 m 739 26 l 739 -3 q 642 3 682 3 q 544 -3 601 3 l 544 26 q 587 35 579 28 q 594 72 594 43 l 594 304 q 588 351 594 343 q 544 358 581 358 l 544 385 q 665 408 611 390 q 675 344 671 381 q 714 389 699 378 q 756 400 729 400 q 808 379 788 400 q 828 326 828 358 q 782 278 828 278 q 743 310 743 278 q 746 331 743 317 q 749 344 749 342 q 733 358 749 358 q 701 327 714 358 q 689 244 689 296 l 689 72 q 697 35 689 43 q 739 26 704 28 z "},"₤":{"ha":599,"x_min":44,"x_max":557,"o":"m 394 513 l 264 513 l 256 439 l 394 439 l 394 386 l 250 386 l 244 335 q 208 185 238 258 q 135 64 178 113 q 269 106 218 106 q 346 93 299 106 q 417 82 390 82 q 513 229 490 82 l 557 229 q 507 51 547 101 q 375 0 467 0 l 44 0 q 85 102 72 43 q 114 325 97 161 l 121 386 l 44 386 l 44 439 l 125 439 l 132 513 l 44 513 l 44 565 l 138 565 l 140 601 q 222 851 156 760 q 390 942 289 942 q 549 736 536 942 l 493 736 q 467 851 488 815 q 406 886 446 886 q 325 836 357 886 q 294 760 306 804 q 274 618 283 715 l 269 565 l 394 565 l 394 513 z "},"₧":{"ha":1119,"x_min":35,"x_max":1079,"o":"m 35 926 l 344 926 q 496 896 443 926 q 576 803 546 865 q 607 665 607 740 q 528 460 607 536 q 358 403 467 403 l 264 403 l 264 135 q 278 62 264 79 q 344 40 293 44 l 356 40 l 356 -4 q 196 6 257 6 q 35 -4 133 6 l 35 40 l 46 40 q 112 62 97 44 q 126 135 126 79 l 126 786 q 110 862 126 844 q 35 882 93 879 l 35 926 m 835 -12 l 835 140 l 867 140 q 950 28 882 28 q 988 47 972 28 q 1003 93 1003 65 q 988 131 1003 115 q 938 164 974 146 q 858 217 881 190 q 836 285 836 244 q 869 373 836 340 q 954 406 901 406 q 1029 378 997 406 l 1043 415 l 1063 415 l 1063 274 l 1031 274 q 965 369 1022 369 q 926 353 942 369 q 910 314 910 338 q 957 260 910 283 l 978 249 q 1059 194 1039 218 q 1079 126 1079 169 q 1045 31 1079 69 q 961 -8 1011 -8 q 871 28 911 -8 l 854 -12 l 835 -12 m 776 65 l 776 25 q 696 -6 732 -6 q 599 115 592 -6 l 599 126 l 603 357 l 561 357 l 561 394 q 658 518 636 394 l 697 518 l 697 397 l 768 397 l 768 357 l 696 357 l 696 121 q 703 56 696 74 q 728 39 710 39 q 776 65 744 39 m 264 451 l 310 451 q 467 669 467 451 q 452 774 467 725 q 414 846 438 824 q 314 878 379 878 l 264 878 l 264 451 z "},"€":{"ha":599,"x_min":-24,"x_max":565,"o":"m 564 189 l 564 83 q 367 -17 489 -17 q 172 81 247 -17 q 85 350 97 178 l -24 350 l 6 411 l 76 411 l 81 411 l 81 442 q 82 501 81 471 l -7 501 l 22 563 l 89 563 q 185 826 111 731 q 368 922 258 922 q 514 847 461 922 l 535 919 l 565 919 l 565 647 l 528 647 q 385 863 494 863 q 225 563 254 863 l 496 563 l 474 501 l 222 501 q 221 456 221 479 q 222 411 221 447 l 442 411 l 419 350 l 225 350 q 389 58 247 58 q 482 93 435 58 q 564 189 529 128 z "},"℁":{"ha":1021,"x_min":15,"x_max":979,"o":"m 261 401 l 278 403 q 307 418 307 406 q 306 424 307 419 q 304 434 306 428 q 301 446 303 440 l 281 517 l 143 517 l 125 454 q 117 419 117 431 q 151 403 117 403 l 161 401 l 161 368 q 89 372 108 372 q 15 368 67 372 l 15 401 q 61 414 50 403 q 90 475 72 425 l 247 956 l 408 457 q 430 413 419 422 q 475 401 440 404 l 475 368 q 369 374 419 374 q 261 368 317 374 l 261 401 m 156 556 l 268 556 l 214 738 l 156 556 m 368 0 l 706 926 l 758 926 l 421 0 l 368 0 m 657 183 l 690 183 q 813 35 710 35 q 869 60 847 35 q 890 126 890 86 q 868 192 890 167 q 790 242 846 218 q 685 312 717 274 q 654 408 654 350 q 699 521 654 476 q 813 565 743 565 q 913 524 869 565 l 931 572 l 956 572 l 956 399 l 922 399 q 818 525 897 525 q 763 502 783 525 q 742 440 742 479 q 763 383 742 406 q 839 339 783 361 q 946 266 913 308 q 979 161 979 224 q 933 41 979 89 q 819 -7 888 -7 q 703 43 757 -7 l 682 -17 l 657 -17 l 657 183 z "},"℅":{"ha":325,"x_min":81,"x_max":247,"o":"m 165 551 q 223 527 199 551 q 247 468 247 503 q 223 409 247 433 q 164 385 199 385 q 105 409 129 385 q 81 468 81 433 q 105 527 81 503 q 165 551 129 551 z "},"ℓ":{"ha":561,"x_min":97,"x_max":479,"o":"m 174 346 l 179 354 q 278 796 224 656 q 403 936 332 936 q 458 905 436 936 q 479 824 479 874 q 390 525 479 681 q 281 367 363 475 q 264 243 271 285 q 249 85 249 149 q 268 53 249 53 q 319 126 293 53 q 343 153 329 153 q 360 132 360 153 q 303 3 360 67 q 244 -26 275 -26 q 184 8 206 -26 q 163 103 163 42 q 167 206 163 147 l 171 263 l 163 251 q 113 203 128 203 q 102 212 107 203 q 97 231 97 221 q 117 269 97 244 q 174 346 146 304 m 299 503 l 290 449 q 379 601 349 528 q 431 821 431 724 q 422 853 431 840 q 403 867 414 867 q 349 783 372 867 q 299 503 325 699 z "},"℗":{"ha":240,"x_min":26,"x_max":217,"o":"m 168 775 l 168 432 q 175 398 168 406 q 207 389 182 390 l 217 389 l 217 360 q 122 364 150 364 q 26 360 93 364 l 26 389 l 38 389 q 68 398 61 390 q 75 432 75 406 l 75 669 q 67 712 75 704 q 28 719 60 719 l 28 747 q 138 767 72 750 l 154 772 q 168 775 157 772 m 121 926 q 160 910 143 926 q 176 869 176 893 q 160 829 176 846 q 119 813 143 813 q 79 829 96 813 q 63 869 63 846 q 80 910 63 893 q 121 926 97 926 z "},"™":{"ha":996,"x_min":21,"x_max":967,"o":"m 358 926 l 381 775 l 347 775 q 318 864 336 839 q 264 889 300 889 l 244 889 l 244 456 q 253 415 244 424 q 300 404 263 406 l 300 369 q 204 375 246 375 q 100 369 157 375 l 100 404 q 147 415 138 406 q 156 456 156 424 l 156 889 l 138 889 q 83 864 101 889 q 53 775 65 839 l 21 775 l 42 926 l 358 926 m 682 389 l 661 389 q 631 496 651 428 l 525 822 l 517 456 q 526 417 517 425 q 572 406 536 408 l 572 371 q 503 374 506 374 q 424 371 469 374 l 424 406 l 432 406 q 471 416 464 408 q 479 457 478 424 l 489 846 q 479 883 489 875 q 433 892 469 890 l 433 928 q 507 925 492 925 q 583 929 533 925 l 699 571 l 815 929 q 890 925 868 925 q 961 928 908 925 l 961 893 q 915 883 924 892 q 906 842 906 874 l 911 457 q 922 416 913 424 q 967 406 931 408 l 967 369 q 867 376 910 376 q 767 369 824 376 l 767 406 l 775 407 q 815 417 807 410 q 822 456 822 425 l 817 819 l 711 488 q 682 389 699 449 z "},"Ω":{"ha":857,"x_min":14,"x_max":843,"o":"m 843 176 l 799 0 l 475 0 l 475 72 q 596 190 557 128 q 676 499 676 318 q 646 694 676 600 q 567 840 615 789 q 428 900 508 900 q 272 821 335 900 q 205 681 231 768 q 179 504 179 593 q 206 317 179 408 q 279 163 233 225 q 382 72 313 118 l 382 0 l 57 0 l 14 176 l 49 176 q 88 101 64 122 q 165 76 113 79 l 310 69 l 310 78 q 149 192 206 125 q 35 500 35 322 q 72 688 35 596 q 178 846 110 779 q 429 942 276 942 q 708 815 603 942 q 821 501 821 681 q 678 161 821 296 q 547 78 631 118 l 547 69 l 681 75 q 766 97 740 76 q 807 176 792 117 l 843 176 z "},"⅓":{"ha":843,"x_min":79,"x_max":792,"o":"m 247 926 l 247 446 q 256 404 247 414 q 296 393 265 394 l 304 393 l 304 358 q 201 364 247 364 q 99 358 154 364 l 99 393 l 107 393 q 146 404 138 394 q 154 446 154 414 l 154 804 l 79 804 l 79 836 q 215 926 182 846 l 247 926 m 182 0 l 604 904 l 669 904 l 247 0 l 182 0 m 494 160 l 535 160 q 558 81 540 106 q 613 57 576 57 q 674 85 651 57 q 697 163 697 114 q 673 241 697 217 q 596 265 649 265 l 582 265 l 582 304 l 596 304 q 679 397 679 304 q 662 462 679 438 q 617 486 644 486 q 546 394 563 486 l 508 394 q 644 551 521 551 q 738 514 703 551 q 774 415 774 476 q 697 292 774 326 q 792 158 792 263 q 748 39 792 86 q 636 -8 704 -8 q 494 160 501 -8 z "},"⅔":{"ha":843,"x_min":51,"x_max":793,"o":"m 192 0 l 614 904 l 679 904 l 257 0 l 192 0 m 496 160 l 536 160 q 560 81 542 106 q 614 57 578 57 q 676 85 653 57 q 699 163 699 114 q 674 241 699 217 q 597 265 650 265 l 583 265 l 583 304 l 597 304 q 681 397 681 304 q 663 462 681 438 q 618 486 646 486 q 547 394 564 486 l 510 394 q 646 551 522 551 q 740 514 704 551 q 775 415 775 476 q 699 292 775 326 q 793 158 793 263 q 749 39 793 86 q 638 -8 706 -8 q 496 160 503 -8 m 338 447 l 326 361 l 51 361 l 51 433 q 192 638 157 576 q 235 767 235 717 q 217 822 235 800 q 171 844 199 844 q 96 743 110 844 l 56 743 q 97 872 63 831 q 196 913 131 913 q 290 876 253 913 q 328 782 328 839 q 192 521 328 690 q 132 447 189 518 l 338 447 z "},"⅛":{"ha":844,"x_min":79,"x_max":796,"o":"m 181 0 l 601 904 l 667 904 l 246 0 l 181 0 m 721 285 q 796 151 796 247 q 756 35 796 78 q 650 -8 717 -8 q 541 35 582 -8 q 500 149 500 78 q 575 285 500 242 q 510 407 510 324 q 549 511 510 471 q 650 551 588 551 q 749 512 713 551 q 786 407 786 472 q 721 285 786 324 m 650 265 q 594 143 594 265 q 609 56 594 88 q 649 24 624 24 q 700 146 700 24 q 650 265 700 265 m 649 518 q 603 414 603 518 q 649 299 603 299 q 690 407 690 299 q 649 518 690 518 m 247 926 l 247 446 q 256 404 247 414 q 296 393 265 394 l 304 393 l 304 358 q 201 364 247 364 q 99 358 154 364 l 99 393 l 107 393 q 146 404 138 394 q 154 446 154 414 l 154 804 l 79 804 l 79 836 q 215 926 182 846 l 247 926 z "},"⅜":{"ha":844,"x_min":43,"x_max":796,"o":"m 721 285 q 796 151 796 247 q 756 35 796 78 q 650 -8 717 -8 q 541 35 582 -8 q 500 149 500 78 q 575 285 500 242 q 510 407 510 324 q 549 511 510 471 q 650 551 588 551 q 749 512 713 551 q 786 407 786 472 q 721 285 786 325 m 650 265 q 594 143 594 265 q 609 56 594 88 q 649 24 624 24 q 700 146 700 24 q 650 265 700 265 m 649 518 q 603 414 603 518 q 649 299 603 299 q 690 407 690 299 q 649 518 690 518 m 181 0 l 603 904 l 667 904 l 246 0 l 181 0 m 43 521 l 82 521 q 106 442 88 467 q 161 418 125 418 q 224 447 200 418 q 247 525 247 476 q 223 603 247 578 q 144 628 199 628 l 131 628 l 131 667 l 144 667 q 231 758 231 667 q 213 823 231 799 q 165 847 196 847 q 93 756 110 847 l 57 756 q 192 913 69 913 q 287 875 251 913 q 322 776 322 838 q 246 654 322 689 q 340 519 340 624 q 297 400 340 447 q 185 353 253 353 q 43 521 50 353 z "},"⅝":{"ha":843,"x_min":50,"x_max":797,"o":"m 722 285 q 797 151 797 247 q 758 35 797 78 q 651 -8 718 -8 q 542 35 583 -8 q 501 149 501 78 q 575 285 501 242 q 510 407 510 324 q 549 511 510 471 q 650 551 588 551 q 749 512 713 551 q 786 407 786 472 q 722 285 786 324 m 649 518 q 603 414 603 518 q 649 299 603 299 q 690 407 690 299 q 649 518 690 518 m 651 265 q 596 143 596 265 q 610 56 596 88 q 650 24 625 24 q 701 146 701 24 q 651 265 701 265 m 181 0 l 603 904 l 668 904 l 246 0 l 181 0 m 310 822 l 126 822 l 108 696 q 200 732 151 732 q 303 683 264 732 q 342 553 342 633 q 297 408 342 465 q 185 351 253 351 q 88 392 124 351 q 50 510 53 433 l 90 510 q 163 418 100 418 q 222 454 200 418 q 244 551 244 490 q 224 639 244 606 q 168 672 203 672 q 96 611 122 672 l 57 617 l 97 904 l 322 904 l 310 822 z "},"⅞":{"ha":843,"x_min":68,"x_max":797,"o":"m 722 285 q 797 151 797 247 q 758 35 797 78 q 651 -8 718 -8 q 542 35 583 -8 q 501 149 501 78 q 575 285 501 242 q 510 407 510 324 q 549 511 510 471 q 650 551 588 551 q 749 512 713 551 q 786 407 786 472 q 722 285 786 326 m 649 518 q 603 414 603 518 q 649 299 603 299 q 690 407 690 299 q 649 518 690 518 m 651 265 q 596 143 596 265 q 610 56 596 88 q 650 24 625 24 q 701 146 701 24 q 651 265 701 265 m 133 0 l 556 904 l 621 904 l 199 0 l 133 0 m 88 361 l 292 821 l 68 821 l 68 904 l 375 904 l 178 361 l 88 361 z "},"←":{"ha":774,"x_min":18,"x_max":756,"o":"m 756 517 l 756 421 l 210 421 q 258 288 258 321 q 249 266 258 275 q 229 257 240 257 q 193 286 213 257 q 50 426 143 364 q 18 467 18 447 q 42 501 18 485 q 200 658 131 565 q 229 678 214 678 q 250 669 242 678 q 258 646 258 660 q 210 517 258 607 l 756 517 z "},"↑":{"ha":740,"x_min":160,"x_max":581,"o":"m 321 18 l 321 715 q 190 667 228 667 q 169 676 178 667 q 160 696 160 685 q 179 725 160 713 q 265 794 235 764 q 329 874 294 825 q 371 907 351 907 q 411 875 390 907 q 551 732 471 786 q 581 696 581 714 q 572 676 581 685 q 550 667 563 667 q 417 715 517 667 l 417 18 l 321 18 z "},"→":{"ha":774,"x_min":18,"x_max":756,"o":"m 18 419 l 18 515 l 564 515 q 515 647 515 615 q 524 669 515 660 q 544 678 533 678 q 581 649 563 678 q 724 510 635 567 q 756 469 756 489 q 722 428 756 450 q 642 362 672 392 q 574 278 613 332 q 544 258 561 258 q 524 267 533 258 q 515 289 515 276 q 564 419 515 329 l 18 419 z "},"↓":{"ha":740,"x_min":160,"x_max":581,"o":"m 321 907 l 417 907 l 417 210 q 550 258 517 258 q 572 249 563 258 q 581 229 581 240 q 551 193 581 211 q 411 50 471 139 q 371 18 390 18 q 329 51 351 18 q 265 131 294 100 q 179 200 235 161 q 160 229 160 213 q 169 249 160 240 q 190 258 178 258 q 321 210 231 258 l 321 907 z "},"↔":{"ha":774,"x_min":18,"x_max":756,"o":"m 564 418 l 208 418 q 257 289 257 322 q 249 266 257 275 q 228 257 240 257 q 196 281 213 257 q 61 418 136 368 q 18 469 18 446 q 50 508 18 488 q 192 647 142 571 q 228 678 210 678 q 249 669 240 678 q 257 646 257 660 q 208 514 257 611 l 564 514 q 533 583 543 556 l 525 604 q 515 647 515 633 q 524 669 515 660 q 544 678 533 678 q 581 649 561 678 q 724 508 633 568 q 756 468 756 488 q 732 433 756 450 q 574 276 643 372 q 544 257 560 257 q 524 266 533 257 q 515 288 515 275 q 564 418 515 325 z "},"↕":{"ha":740,"x_min":160,"x_max":581,"o":"m 321 210 l 321 715 q 190 667 228 667 q 169 676 178 667 q 160 696 160 685 q 179 725 160 713 q 265 794 235 764 q 329 874 294 825 q 371 907 351 907 q 411 875 390 907 q 551 732 471 786 q 581 696 581 714 q 572 676 581 685 q 550 667 563 667 q 417 715 517 667 l 417 210 q 550 258 514 258 q 572 249 563 258 q 581 229 581 240 q 551 193 581 211 q 411 50 471 139 q 371 18 390 18 q 329 51 351 18 q 265 131 294 100 q 179 200 235 161 q 160 229 160 213 q 169 249 160 240 q 190 258 178 258 q 321 210 228 258 z "},"↨":{"ha":740,"x_min":160,"x_max":581,"o":"m 321 210 l 321 715 q 190 667 228 667 q 169 676 178 667 q 160 696 160 685 q 179 725 160 713 q 265 794 235 764 q 329 874 294 825 q 371 907 351 907 q 411 875 390 907 q 551 732 471 786 q 581 696 581 714 q 572 676 581 685 q 550 667 563 667 q 417 715 517 667 l 417 210 q 550 258 514 258 q 572 249 563 258 q 581 229 581 240 q 551 193 581 211 q 411 50 471 139 q 371 18 390 18 q 329 51 351 18 q 265 131 294 100 q 179 200 235 161 q 160 229 160 213 q 169 249 160 240 q 190 258 178 258 q 321 210 228 258 m 160 -58 l 581 -58 l 581 -154 l 160 -154 l 160 -58 z "},"∂":{"ha":549,"x_min":36,"x_max":513,"o":"m 160 929 l 172 954 q 365 779 290 886 q 474 554 435 679 q 513 310 513 429 q 444 76 513 171 q 274 -18 375 -18 q 104 75 172 -18 q 36 307 36 168 q 104 540 36 447 q 275 633 172 633 q 360 594 322 633 q 274 795 318 721 q 160 929 229 869 m 276 597 q 214 551 238 597 q 167 304 167 460 q 197 100 167 182 q 272 18 228 18 q 349 100 317 18 q 382 297 382 182 q 353 515 382 433 q 276 597 324 597 z "},"∅":{"ha":858,"x_min":94,"x_max":768,"o":"m 682 899 l 614 767 q 768 485 768 660 q 668 245 768 343 q 424 147 568 147 q 314 169 360 147 l 232 7 l 164 42 l 244 203 q 94 483 94 310 q 193 722 94 624 q 433 821 292 821 q 547 801 489 821 l 617 933 l 682 899 m 581 696 l 350 238 q 431 225 392 225 q 614 301 538 225 q 690 483 690 376 q 661 606 690 549 q 581 696 632 663 m 281 274 l 511 731 q 433 743 474 743 q 249 667 325 743 q 172 483 172 592 q 281 274 172 357 z "},"∆":{"ha":746,"x_min":6,"x_max":740,"o":"m 399 947 l 740 0 l 6 0 l 346 947 l 399 947 m 332 761 l 126 189 q 111 119 111 146 q 164 81 111 81 l 571 81 l 332 761 z "},"∏":{"ha":774,"x_min":10,"x_max":764,"o":"m 10 926 l 764 926 l 764 885 l 739 885 q 675 865 689 885 q 661 774 661 846 l 661 -153 q 678 -237 661 -218 q 750 -256 694 -256 l 761 -256 l 761 -297 q 640 -290 707 -290 q 429 -297 558 -290 l 429 -256 l 439 -256 q 511 -237 494 -256 q 528 -153 528 -218 l 528 774 q 514 865 528 846 q 451 885 500 885 l 325 885 q 263 865 276 885 q 249 774 249 846 l 249 -153 q 265 -237 249 -218 q 336 -256 281 -256 l 347 -256 l 347 -297 q 149 -290 233 -290 q 15 -297 78 -290 l 15 -256 l 25 -256 q 99 -237 82 -256 q 115 -153 115 -218 l 115 774 q 101 865 115 846 q 38 885 88 885 l 10 885 l 10 926 z "},"∑":{"ha":746,"x_min":57,"x_max":679,"o":"m 63 926 l 638 926 l 657 693 l 619 693 q 558 841 597 801 q 435 881 518 881 l 218 881 l 432 394 l 151 -221 l 439 -221 q 571 -167 528 -221 q 642 -6 617 -107 l 679 -6 l 640 -294 l 57 -294 l 335 313 l 63 926 z "},"−":{"ha":599,"x_min":57,"x_max":542,"o":"m 57 417 l 57 519 l 542 519 l 542 417 l 57 417 z "},"∘":{"ha":660,"x_min":154,"x_max":539,"o":"m 350 664 q 483 607 428 664 q 539 471 539 550 q 483 334 539 390 q 347 278 426 278 q 210 334 267 278 q 154 471 154 390 q 211 608 154 551 q 350 664 268 664 m 349 599 q 256 562 293 599 q 218 471 218 525 q 256 381 218 418 q 347 343 293 343 q 438 381 400 343 q 475 471 475 418 q 438 561 475 524 q 349 599 400 599 z "},"√":{"ha":746,"x_min":8,"x_max":725,"o":"m 725 1143 l 725 1101 l 604 1101 l 399 0 l 265 0 l 169 496 l 8 496 l 8 538 l 290 538 l 368 121 l 560 1143 l 725 1143 z "},"∞":{"ha":774,"x_min":13,"x_max":763,"o":"m 361 386 q 276 271 315 304 q 186 238 236 238 q 63 301 114 238 q 13 458 13 365 q 68 630 13 560 q 203 700 124 700 q 397 540 310 700 q 404 552 401 547 q 409 560 407 557 q 411 564 411 563 q 482 665 453 640 q 578 701 522 701 q 709 634 656 701 q 763 468 763 567 q 704 296 763 367 q 561 225 646 225 q 453 268 507 225 q 361 386 400 311 m 417 506 q 516 365 468 410 q 618 321 564 321 q 696 363 664 321 q 728 465 728 406 q 688 571 728 532 q 576 610 647 610 q 484 585 521 610 q 417 506 447 561 m 338 426 l 331 442 q 151 603 249 603 q 78 563 108 603 q 47 464 47 522 q 85 363 47 400 q 188 326 122 326 q 272 349 239 326 q 338 426 306 371 z "},"∟":{"ha":386,"x_min":25,"x_max":360,"o":"m 25 664 l 360 664 l 360 603 l 25 603 l 25 664 z "},"∩":{"ha":690,"x_min":75,"x_max":617,"o":"m 617 0 l 479 0 l 479 596 q 473 728 479 688 q 449 804 467 769 q 307 894 399 894 q 163 804 217 894 q 131 715 139 763 q 122 568 122 667 l 122 0 l 75 0 l 75 589 q 117 821 75 746 q 346 946 192 946 q 483 912 422 946 q 576 818 544 878 q 609 733 601 775 q 617 603 617 690 l 617 0 z "}}}
